<svg width="394" height="259" viewBox="0 0 394 259" fill="none" xmlns="http://www.w3.org/2000/svg">
<rect width="394" height="259" fill="#194266"/>
<path fill-rule="evenodd" clip-rule="evenodd" d="M266.283 160.206L253.429 158.882C246.246 158.143 240 163.779 240 171H316.5C316.5 167.804 314.083 165.126 310.904 164.799L306.375 164.333C306.395 159.515 304.694 154.827 301.551 151.131C298.071 147.04 293.109 144.498 287.756 144.066C282.403 143.633 277.097 145.345 273.006 148.824C269.537 151.774 267.183 155.79 266.283 160.206Z" fill="url(#paint0_linear_1489_3193)"/>
<path fill-rule="evenodd" clip-rule="evenodd" d="M145.086 103.685L138.197 102.976C134.347 102.58 131 105.601 131 109.471H172C172 107.758 170.705 106.323 169.001 106.147L166.574 105.897C166.584 103.315 165.673 100.803 163.988 98.8218C162.123 96.6292 159.464 95.2671 156.595 95.0353C153.726 94.8035 150.882 95.7208 148.689 97.5856C146.831 99.1666 145.569 101.319 145.086 103.685Z" fill="url(#paint1_linear_1489_3193)"/>
<path fill-rule="evenodd" clip-rule="evenodd" d="M25.0863 145.685L18.1973 144.976C14.3475 144.58 11 147.601 11 151.471H52C52 149.758 50.7049 148.323 49.0012 148.147L46.5735 147.897C46.5842 145.315 45.6727 142.803 43.988 140.822C42.1232 138.629 39.4638 137.267 36.5948 137.035C33.7257 136.803 30.8821 137.721 28.6895 139.586C26.8306 141.167 25.5686 143.319 25.0863 145.685Z" fill="url(#paint2_linear_1489_3193)"/>
<rect x="231.717" y="100.661" width="4.72441" height="11.2597" fill="url(#paint3_linear_1489_3193)"/>
<rect x="265.969" y="100.661" width="4.72441" height="11.2597" fill="url(#paint4_linear_1489_3193)"/>
<path d="M231.717 98.4845C231.717 96.7058 232.034 94.9413 232.653 93.2739L233.377 91.3229C233.619 90.6723 234.539 90.6723 234.78 91.3229L235.505 93.274C236.124 94.9414 236.441 96.7058 236.441 98.4844V100.66H231.717V98.4845Z" fill="url(#paint5_linear_1489_3193)"/>
<path d="M265.969 98.4845C265.969 96.7058 266.286 94.9413 266.905 93.2739L267.629 91.3229C267.871 90.6723 268.791 90.6723 269.032 91.3229L269.757 93.274C270.376 94.9414 270.693 96.7058 270.693 98.4844V100.66H265.969V98.4845Z" fill="url(#paint6_linear_1489_3193)"/>
<rect x="242.346" y="124.866" width="17.7165" height="7.08661" fill="#2B435B"/>
<path fill-rule="evenodd" clip-rule="evenodd" d="M242.284 90.6141C242.284 88.6572 243.871 87.0708 245.828 87.0708H256.458C258.414 87.0708 260.001 88.6572 260.001 90.6141V99.6313C260.477 99.6345 260.964 99.7844 261.398 100.112L287.295 119.657C288.225 120.359 288.504 121.635 287.951 122.662L285.515 127.187C285.068 128.017 284.17 128.502 283.23 128.42L259.771 126.38C259.642 126.369 259.517 126.348 259.396 126.317C258.762 127.941 257.661 129.332 256.26 130.326H259.975L259.975 126.783L275.656 138.617C276.148 138.988 276.295 139.663 276.003 140.205L274.716 142.596C274.48 143.034 274.005 143.29 273.509 143.247L261.156 142.173V150.995C261.156 151.321 260.892 151.586 260.566 151.586C260.24 151.586 259.975 151.321 259.975 150.995V140.931C259.975 140.929 259.975 140.928 259.975 140.926V134.47C259.97 136.748 258.121 138.594 255.841 138.594C253.558 138.594 251.707 136.743 251.707 134.46V133.883C251.7 136.486 249.588 138.594 246.983 138.594C244.374 138.594 242.259 136.479 242.259 133.869V130.326H246.026C244.465 129.22 243.279 127.622 242.692 125.758C242.617 125.772 242.541 125.783 242.463 125.789L219.003 127.829C218.064 127.911 217.166 127.426 216.719 126.596L214.283 122.071C213.73 121.045 214.009 119.768 214.939 119.066L240.836 99.5214C241.286 99.1817 241.792 99.0331 242.284 99.0406V90.6141ZM226.578 138.617C226.086 138.988 225.939 139.663 226.231 140.205L227.518 142.596C227.754 143.034 228.229 143.29 228.725 143.247L241.078 142.173V150.995C241.078 151.321 241.342 151.586 241.668 151.586C241.994 151.586 242.259 151.321 242.259 150.995V136.231L242.259 126.783L226.578 138.617Z" fill="url(#paint7_linear_1489_3193)"/>
<path d="M255.339 85.89C255.339 84.5854 256.396 83.5278 257.701 83.5278C259.005 83.5278 260.063 84.5854 260.063 85.89V93.6064C260.063 94.2587 259.534 94.7875 258.882 94.7875H256.52C255.867 94.7875 255.339 94.2587 255.339 93.6064V85.89Z" fill="url(#paint8_linear_1489_3193)"/>
<path d="M242.346 85.89C242.346 84.5854 243.404 83.5278 244.709 83.5278C246.013 83.5278 247.071 84.5854 247.071 85.89V93.6064C247.071 94.2587 246.542 94.7875 245.89 94.7875H243.528C242.875 94.7875 242.346 94.2587 242.346 93.6064V85.89Z" fill="url(#paint9_linear_1489_3193)"/>
<path d="M242.346 130.22C242.346 131.525 243.404 132.583 244.709 132.583C246.013 132.583 247.071 131.525 247.071 130.22V122.504C247.071 121.852 246.542 121.323 245.89 121.323H243.528C242.875 121.323 242.346 121.852 242.346 122.504V130.22Z" fill="url(#paint10_linear_1489_3193)"/>
<path d="M247.071 71.7163H255.339V102.425C255.339 104.382 253.752 105.968 251.795 105.968H250.614C248.657 105.968 247.071 104.382 247.071 102.425V71.7163Z" fill="url(#paint11_linear_1489_3193)"/>
<path d="M247.071 89.4331H255.339V102.425C255.339 104.382 253.752 105.969 251.795 105.969H250.614C248.657 105.969 247.071 104.382 247.071 102.425V89.4331Z" fill="url(#paint12_linear_1489_3193)"/>
<path d="M247.071 68.7125C247.071 65.627 247.675 62.5714 248.85 59.7183L250.113 56.6523C250.514 55.6771 251.895 55.6771 252.297 56.6523L253.559 59.7184C254.734 62.5714 255.339 65.6269 255.339 68.7123V71.7165H247.071V68.7125Z" fill="url(#paint13_linear_1489_3193)"/>
<path d="M288.039 123.107C288.592 122.08 288.313 120.804 287.382 120.101L259.593 99.1286C258.815 98.5413 257.701 99.0964 257.701 100.071V124.471C257.701 125.697 258.638 126.719 259.858 126.825L283.318 128.865C284.258 128.946 285.156 128.462 285.603 127.631L288.039 123.107Z" fill="url(#paint14_linear_1489_3193)"/>
<path d="M255.339 130.22C255.339 131.525 256.396 132.583 257.701 132.583C259.005 132.583 260.063 131.525 260.063 130.22V122.504C260.063 121.852 259.534 121.323 258.882 121.323H256.52C255.867 121.323 255.339 121.852 255.339 122.504V130.22Z" fill="url(#paint15_linear_1489_3193)"/>
<path d="M276.091 140.65C276.383 140.108 276.235 139.434 275.744 139.063L260.063 127.228V141.371C260.063 142.019 260.558 142.559 261.203 142.615L273.597 143.692C274.093 143.736 274.567 143.479 274.804 143.041L276.091 140.65Z" fill="url(#paint16_linear_1489_3193)"/>
<path fill-rule="evenodd" clip-rule="evenodd" d="M182.708 135.147C182.043 136.761 181.701 138.489 181.701 140.234V141.932V141.932V148.611H179.03V150.615H178.995V157.384C178.716 157.38 178.43 157.464 178.175 157.656L175.69 159.532V158.3H173.019V161.548L163.531 168.708C163.005 169.105 162.847 169.827 163.16 170.408L164.538 172.966C164.79 173.436 165.298 173.71 165.829 173.664L178.995 172.519V175.076H178.98L178.98 173.072L170.113 179.764C169.835 179.974 169.751 180.355 169.917 180.662L170.644 182.014C170.778 182.262 171.046 182.407 171.327 182.382L178.312 181.775V187.098H178.98V181.075L178.98 181.07L178.98 179.751H184.323H188.999V187.098H189.667V182.022C189.675 182.023 189.684 182.024 189.693 182.024L196.702 182.634C196.982 182.658 197.251 182.514 197.384 182.265L198.112 180.914C198.214 180.725 198.221 180.507 198.147 180.319C198.144 180.107 198.046 179.9 197.866 179.764L189.048 173.109V173.106L202.199 174.249C202.73 174.295 203.238 174.021 203.491 173.552L204.869 170.993C205.042 170.671 205.071 170.306 204.972 169.977C204.936 169.616 204.755 169.274 204.448 169.042L195.06 161.957V158.3H192.388V159.941L189.803 157.99C189.607 157.842 189.391 157.758 189.175 157.729L189.013 157.607V154.979H189.048V148.611H186.377V141.932V141.932V140.233C186.377 138.489 186.035 136.761 185.371 135.147L184.657 133.414C184.43 132.862 183.649 132.862 183.421 133.414L182.708 135.147ZM173.548 154.123C173.198 155.066 173.019 156.063 173.019 157.069V158.3H175.69V157.069C175.69 156.063 175.511 155.066 175.161 154.123L174.751 153.019C174.615 152.651 174.094 152.651 173.958 153.019L173.548 154.123ZM192.388 157.069C192.388 156.063 192.567 155.066 192.917 154.123L193.327 153.019C193.464 152.651 193.984 152.651 194.121 153.019L194.53 154.123C194.88 155.066 195.06 156.063 195.06 157.069V158.3H192.388V157.069Z" fill="url(#paint17_linear_1489_3193)"/>
<path fill-rule="evenodd" clip-rule="evenodd" d="M321.172 115.743C320.323 117.804 319.887 120.011 319.887 122.239V124.409V124.409V132.94H316.474V135.499H316.43V144.145C316.074 144.14 315.708 144.247 315.383 144.492L312.209 146.888V145.315H308.796V149.463L296.679 158.609C296.006 159.116 295.805 160.038 296.204 160.78L297.964 164.048C298.287 164.648 298.935 164.998 299.614 164.939L316.43 163.477V166.742H316.411V172.714H323.236H329.208L329.208 171.007V182.098H330.061V175.615C330.072 175.616 330.083 175.617 330.094 175.618L339.046 176.397C339.405 176.428 339.747 176.243 339.918 175.926L340.848 174.199C340.978 173.958 340.987 173.68 340.892 173.44C340.889 173.169 340.763 172.904 340.534 172.731L329.271 164.231V164.226L346.068 165.687C346.747 165.746 347.395 165.395 347.718 164.796L349.478 161.528C349.699 161.117 349.736 160.65 349.61 160.23C349.565 159.769 349.333 159.332 348.94 159.036L336.949 149.986V145.315H333.537V147.41L330.235 144.919C329.984 144.729 329.708 144.622 329.432 144.586L329.226 144.431V141.073H329.271V132.94H325.858V124.409V124.409V122.239C325.858 120.011 325.422 117.804 324.573 115.743L323.661 113.528C323.371 112.824 322.374 112.824 322.084 113.528L321.172 115.743ZM305.085 172.731C304.73 172.999 304.623 173.486 304.834 173.878L305.764 175.604C305.935 175.921 306.277 176.106 306.636 176.075L315.558 175.299V182.098H316.411V174.402L316.411 174.398V164.183L305.085 172.731ZM309.473 139.98C309.025 141.184 308.796 142.458 308.796 143.743V145.315H312.209V143.743C312.209 142.458 311.98 141.184 311.533 139.98L311.009 138.57C310.835 138.1 310.17 138.1 309.996 138.57L309.473 139.98ZM333.537 143.743C333.537 142.458 333.765 141.184 334.213 139.98L334.736 138.57C334.91 138.1 335.575 138.1 335.75 138.57L336.273 139.98C336.72 141.184 336.949 142.458 336.949 143.743V145.315H333.537V143.743Z" fill="url(#paint18_linear_1489_3193)"/>
<defs>
<linearGradient id="paint0_linear_1489_3193" x1="224" y1="147.5" x2="325.5" y2="147.5" gradientUnits="userSpaceOnUse">
<stop stop-color="#1C6478"/>
<stop offset="1" stop-color="#194266"/>
</linearGradient>
<linearGradient id="paint1_linear_1489_3193" x1="179" y1="102" x2="132.5" y2="107.5" gradientUnits="userSpaceOnUse">
<stop stop-color="#1C6478"/>
<stop offset="1" stop-color="#194266"/>
</linearGradient>
<linearGradient id="paint2_linear_1489_3193" x1="12.8088" y1="146.044" x2="49.5883" y2="148.456" gradientUnits="userSpaceOnUse">
<stop stop-color="#1C6478"/>
<stop offset="1" stop-color="#194266"/>
</linearGradient>
<linearGradient id="paint3_linear_1489_3193" x1="233.588" y1="105.151" x2="236.207" y2="105.151" gradientUnits="userSpaceOnUse">
<stop stop-color="#365166"/>
<stop offset="1" stop-color="#1F334C"/>
</linearGradient>
<linearGradient id="paint4_linear_1489_3193" x1="267.84" y1="105.151" x2="270.459" y2="105.151" gradientUnits="userSpaceOnUse">
<stop stop-color="#365166"/>
<stop offset="1" stop-color="#1F334C"/>
</linearGradient>
<linearGradient id="paint5_linear_1489_3193" x1="236.582" y1="97.6663" x2="233" y2="97.6663" gradientUnits="userSpaceOnUse">
<stop stop-color="#15232E"/>
<stop offset="1" stop-color="#194266"/>
</linearGradient>
<linearGradient id="paint6_linear_1489_3193" x1="270.834" y1="97.6663" x2="266.5" y2="97.6663" gradientUnits="userSpaceOnUse">
<stop stop-color="#15232E"/>
<stop offset="1" stop-color="#194266"/>
</linearGradient>
<linearGradient id="paint7_linear_1489_3193" x1="211" y1="119" x2="250.904" y2="114.632" gradientUnits="userSpaceOnUse">
<stop stop-color="#194266"/>
<stop offset="1" stop-color="#13243A"/>
</linearGradient>
<linearGradient id="paint8_linear_1489_3193" x1="257.21" y1="88.0186" x2="259.829" y2="88.0186" gradientUnits="userSpaceOnUse">
<stop stop-color="#365166"/>
<stop offset="1" stop-color="#1F334C"/>
</linearGradient>
<linearGradient id="paint9_linear_1489_3193" x1="244.218" y1="88.0186" x2="246.837" y2="88.0186" gradientUnits="userSpaceOnUse">
<stop stop-color="#365166"/>
<stop offset="1" stop-color="#1F334C"/>
</linearGradient>
<linearGradient id="paint10_linear_1489_3193" x1="244.218" y1="128.092" x2="246.837" y2="128.092" gradientUnits="userSpaceOnUse">
<stop stop-color="#365166"/>
<stop offset="1" stop-color="#1F334C"/>
</linearGradient>
<linearGradient id="paint11_linear_1489_3193" x1="250.345" y1="85.3774" x2="254.93" y2="85.3774" gradientUnits="userSpaceOnUse">
<stop stop-color="#365166"/>
<stop offset="1" stop-color="#1F334C"/>
</linearGradient>
<linearGradient id="paint12_linear_1489_3193" x1="255.339" y1="103.016" x2="248.252" y2="87.6615" gradientUnits="userSpaceOnUse">
<stop stop-color="#13243A"/>
<stop offset="1" stop-color="#2B435B"/>
</linearGradient>
<linearGradient id="paint13_linear_1489_3193" x1="255.585" y1="66.9921" x2="249" y2="66.9921" gradientUnits="userSpaceOnUse">
<stop stop-color="#15232E"/>
<stop offset="1" stop-color="#194266"/>
</linearGradient>
<linearGradient id="paint14_linear_1489_3193" x1="285.457" y1="128.409" x2="258.882" y2="101.834" gradientUnits="userSpaceOnUse">
<stop stop-color="#2D5477"/>
<stop offset="1" stop-color="#13243A"/>
</linearGradient>
<linearGradient id="paint15_linear_1489_3193" x1="257.21" y1="128.092" x2="259.829" y2="128.092" gradientUnits="userSpaceOnUse">
<stop stop-color="#365166"/>
<stop offset="1" stop-color="#1F334C"/>
</linearGradient>
<linearGradient id="paint16_linear_1489_3193" x1="274.827" y1="139.039" x2="261.835" y2="137.267" gradientUnits="userSpaceOnUse">
<stop stop-color="#2B435B"/>
<stop offset="1" stop-color="#13243A"/>
</linearGradient>
<linearGradient id="paint17_linear_1489_3193" x1="187.5" y1="190.5" x2="190.5" y2="92.5" gradientUnits="userSpaceOnUse">
<stop stop-color="#194266"/>
<stop offset="1" stop-color="#13243A"/>
</linearGradient>
<linearGradient id="paint18_linear_1489_3193" x1="332.5" y1="182" x2="332.5" y2="84" gradientUnits="userSpaceOnUse">
<stop stop-color="#194266"/>
<stop offset="1" stop-color="#13243A"/>
</linearGradient>
</defs>
</svg>
