<svg width="393" height="321" viewBox="0 0 393 321" fill="none" xmlns="http://www.w3.org/2000/svg">
<rect width="394" height="259" fill="#937575"/>
<path d="M266.654 66.5981C278.165 49.897 302.835 49.897 314.346 66.5982L408.601 203.354C421.843 222.567 408.09 248.75 384.755 248.75H196.245C172.91 248.75 159.157 222.567 172.399 203.354L266.654 66.5981Z" fill="url(#paint0_linear_1489_2982)"/>
<path d="M217.567 124.569L216.714 120.308C216.998 118.035 217.567 112.808 217.567 110.081C217.567 107.354 220.691 106.672 222.254 106.672L225.663 107.951C226.344 107.269 227.083 107.098 227.367 107.098L233.333 107.951L237.168 109.229L238.872 127.126L231.202 132.239L217.567 124.569Z" fill="#2C2E31"/>
<path d="M274.665 118.177C255.916 134.796 237.31 117.609 232.48 107.098C249.099 90.4803 264.012 87.4975 272.535 85.793L272.535 85.7929C273.671 81.8159 277.478 75.5663 283.614 82.3841C289.75 89.2018 284.182 94.5992 280.631 96.4457C282.335 102.837 281.483 110.933 274.665 118.177Z" fill="url(#paint1_linear_1489_2982)"/>
<path d="M274.665 82.3838C261.03 96.7011 241.571 107.666 233.759 109.655C243.304 127.722 258.757 127.409 265.291 124.995C282.761 116.899 281.477 100.672 280.631 95.5932C279.779 90.4799 276.086 84.3723 274.665 82.3838Z" fill="url(#paint2_linear_1489_2982)"/>
<path d="M268.273 87.4972C253.615 90.906 238.304 102.269 232.48 107.524C227.708 109.91 225 105.5 226.089 101.985C214.158 78.1228 225.378 62.2147 232.48 57.2434C259.875 37.7703 282.822 61.9973 291.73 77.8671C292.267 78.8229 292.298 80.006 291.67 80.9039C288.549 85.3627 283.56 85.4147 280.601 83.4999C279.536 82.8113 278.164 82.4283 277.036 83.0064L268.273 87.4972Z" fill="url(#paint3_linear_1489_2982)"/>
<path d="M205.68 145.423L253.36 126.273L250.377 168.032C245.69 173.855 226.344 187.633 215.436 185.928C206.592 184.546 197.618 175.043 193.781 168.543C192.369 166.151 192.729 163.264 194.042 160.817L199.18 151.241C200.598 148.6 202.898 146.54 205.68 145.423Z" fill="url(#paint4_linear_1489_2982)"/>
<path d="M227.793 143.616C227.793 142.566 228.734 141.766 229.77 141.934L236.588 143.038C237.413 143.172 238.02 143.885 238.02 144.721V169.873C238.02 170.759 237.34 171.498 236.457 171.571L229.639 172.139C228.645 172.222 227.793 171.438 227.793 170.441V143.616Z" fill="#2C2E31"/>
<path d="M223.958 153.118C221.913 150.391 223.39 148.005 224.384 147.153C223.532 145.306 222.765 141.528 226.515 141.187C230.265 140.846 235.747 145.022 238.02 147.153C242.111 150.562 239.724 151.982 238.02 152.266C241.77 155.675 239.582 157.379 238.02 157.805C240.747 159.851 238.304 161.498 236.742 162.067C234.185 162.493 228.219 162.578 224.81 159.51C221.402 156.442 222.822 153.97 223.958 153.118Z" fill="url(#paint5_linear_1489_2982)"/>
<path d="M280.631 96.4455C275.176 116.899 260.177 124.569 253.36 125.847C242.451 150.391 242.565 200.842 243.985 223H358.609C359.035 125.421 308.328 108.803 302.788 104.542C297.249 100.28 295.971 104.968 291.71 101.559C289 99.3911 291 96.8722 287.022 95.1672C282.25 93.1215 280.773 95.1672 280.631 96.4455Z" fill="url(#paint6_linear_1489_2982)"/>
<path d="M239 155.647V150.5C248.204 146.068 252.081 138.062 252.508 136.073L259.208 137.145C260.055 137.281 260.853 137.632 261.525 138.165L282.342 154.68C284.211 156.162 286.932 155.823 288.378 153.927L302 136.074C313.5 121.5 326.651 122.438 332.19 126.699C353.113 142.794 352.609 165.756 345.085 174.875C344.124 176.04 342.825 176.854 341.487 177.554L293.621 202.621C292.646 203.132 291.557 203.404 290.455 203.382C281.777 203.202 276.178 201.659 273.613 200.537C272.878 200.216 272.281 199.667 271.784 199.036L240.071 158.74C239.377 157.858 239 156.769 239 155.647Z" fill="url(#paint7_linear_1489_2982)"/>
<path d="M220.975 139.057C216.544 138.034 214.868 131.813 214.584 128.83C216.288 120.649 226.657 126.273 231.628 130.108C238.105 128.404 234.895 119.74 232.48 115.621C232.196 114.342 232.395 111.786 235.463 111.786C238.531 111.786 242.423 118.319 243.985 121.586C248.417 127.04 248.672 130.961 248.246 132.239L254.5 136.5C253.818 147.408 243.687 152.142 239 152C239 152 233.901 145.448 233.333 143.744C228.645 143.744 229.498 142.039 225.663 141.613C222.595 141.272 221.259 139.767 220.975 139.057Z" fill="url(#paint8_linear_1489_2982)"/>
<path fill-rule="evenodd" clip-rule="evenodd" d="M218.477 102.373C217.409 101.521 216.714 100.138 216.714 98.5759C216.714 95.9872 218.622 93.8887 220.975 93.8887C223.329 93.8887 225.237 95.9872 225.237 98.5759C225.237 100.138 224.542 101.521 223.474 102.373L223.106 107.524H218.845L218.477 102.373ZM220.974 101.559C219.563 101.558 218.419 100.223 218.419 98.5761C218.419 96.9287 219.563 95.5933 220.975 95.5933C222.387 95.5933 223.532 96.9287 223.532 98.5761C223.532 100.223 222.388 101.558 220.977 101.559C220.976 101.559 220.976 101.559 220.975 101.559C220.975 101.559 220.974 101.559 220.974 101.559Z" fill="#43464A"/>
<circle cx="220.123" cy="109.229" r="3.40888" fill="#43464A"/>
<circle cx="220.123" cy="117.751" r="3.40888" fill="#43464A"/>
<path d="M206 111.577C206 110.682 206.692 109.94 207.584 109.877L218.176 109.129C219.162 109.059 220 109.84 220 110.829V118.187C220 119.169 219.171 119.949 218.19 119.888L207.599 119.231C206.7 119.175 206 118.43 206 117.529V111.577Z" fill="#2C2E31"/>
<rect x="246.724" y="104.669" width="5.36831" height="4.02623" rx="2.01312" transform="rotate(-120.489 246.724 104.669)" fill="#2C2E31"/>
<path d="M250 96.5L247.598 100L243.5 101.5L245.646 98.4961C245.877 98.1727 246.199 97.9255 246.571 97.7859L250 96.5Z" fill="#2C2E31"/>
<rect x="239.033" y="108.747" width="4.41075" height="3.30807" rx="1.65403" transform="rotate(-120.489 239.033 108.747)" fill="#2C2E31"/>
<path d="M240.561 103.533L238.356 105.573L235.293 105.968L237.243 104.23C237.453 104.043 237.714 103.922 237.993 103.884L240.561 103.533Z" fill="#2C2E31"/>
<path d="M170 121.5C170 114.044 163.956 108 156.5 108H107.5C100.044 108 94 114.044 94 121.5C94 128.956 100.044 135 107.5 135H156.5C163.956 135 170 128.956 170 121.5Z" fill="url(#paint9_linear_1489_2982)"/>
<path d="M118 164.5C118 155.94 111.06 149 102.5 149H0V180H102.5C111.06 180 118 173.06 118 164.5Z" fill="#8F6D6D"/>
<defs>
<linearGradient id="paint0_linear_1489_2982" x1="262.233" y1="73.2857" x2="404.036" y2="209.686" gradientUnits="userSpaceOnUse">
<stop stop-color="#A17E7E"/>
<stop offset="1" stop-color="#8B6969"/>
</linearGradient>
<linearGradient id="paint1_linear_1489_2982" x1="272" y1="96.5" x2="255.5" y2="87" gradientUnits="userSpaceOnUse">
<stop stop-color="#E4B3B3"/>
<stop offset="1" stop-color="#937575"/>
</linearGradient>
<linearGradient id="paint2_linear_1489_2982" x1="251" y1="98.5" x2="277" y2="104" gradientUnits="userSpaceOnUse">
<stop stop-color="#1B604B"/>
<stop offset="1" stop-color="#43464A"/>
</linearGradient>
<linearGradient id="paint3_linear_1489_2982" x1="242" y1="97.5" x2="257" y2="52.5" gradientUnits="userSpaceOnUse">
<stop stop-color="#1B604B"/>
<stop offset="1" stop-color="#937575"/>
</linearGradient>
<linearGradient id="paint4_linear_1489_2982" x1="200.948" y1="178.258" x2="227.793" y2="151.84" gradientUnits="userSpaceOnUse">
<stop stop-color="#43464A"/>
<stop offset="1" stop-color="#2C2E31"/>
</linearGradient>
<linearGradient id="paint5_linear_1489_2982" x1="228.219" y1="142.891" x2="232.481" y2="161.214" gradientUnits="userSpaceOnUse">
<stop stop-color="#2C2E31"/>
<stop offset="1" stop-color="#43464A"/>
</linearGradient>
<linearGradient id="paint6_linear_1489_2982" x1="269.5" y1="107.5" x2="344.5" y2="174" gradientUnits="userSpaceOnUse">
<stop stop-color="#3C3E41"/>
<stop offset="1" stop-color="#937575"/>
</linearGradient>
<linearGradient id="paint7_linear_1489_2982" x1="239" y1="158" x2="349" y2="154.5" gradientUnits="userSpaceOnUse">
<stop stop-color="#2C2E31"/>
<stop offset="1" stop-color="#A17E7E"/>
</linearGradient>
<linearGradient id="paint8_linear_1489_2982" x1="247.394" y1="148.005" x2="234.611" y2="127.552" gradientUnits="userSpaceOnUse">
<stop stop-color="#43464A"/>
<stop offset="1" stop-color="#2C2E31"/>
</linearGradient>
<linearGradient id="paint9_linear_1489_2982" x1="94" y1="123.5" x2="170" y2="123.5" gradientUnits="userSpaceOnUse">
<stop stop-color="#8B6969"/>
<stop offset="1" stop-color="#A17E7E"/>
</linearGradient>
</defs>
</svg>
