<svg width="45" height="45" viewBox="0 0 45 45" fill="none" xmlns="http://www.w3.org/2000/svg">
<path d="M10 12.1739C10 10.9733 10.9733 10 12.1739 10H20.3261C21.5267 10 22.5 10.9733 22.5 12.1739V20.2186C22.5 22.92 24.6899 25.1099 27.3913 25.1099H28.4783C32.0801 25.1099 35 28.0298 35 31.6316V33.3696C35 34.27 34.27 35 33.3696 35H20.5302C20.332 35 20.1376 34.9458 19.968 34.8433L18.5562 33.99C18.19 33.7687 17.7282 33.7828 17.3762 34.0259L16.2448 34.8074C16.0632 34.9328 15.8477 35 15.627 35H11.6304C10.73 35 10 34.27 10 33.3696V25.788C10 25.0501 10.119 24.3171 10.3523 23.617L10.5783 22.9391C11.0815 21.4294 11.0216 19.7887 10.4095 18.3198C10.1392 17.671 10 16.9751 10 16.2722V12.1739Z" fill="#5ABFA1"/>
<rect x="13" y="14" width="7" height="2" rx="1" fill="#237C61"/>
<rect x="13" y="17" width="7" height="2" rx="1" fill="#237C61"/>
</svg>
