<svg width="24" height="24" viewBox="0 0 24 24" fill="none" xmlns="http://www.w3.org/2000/svg">
<rect x="3.81848" y="13.4326" width="16.3635" height="8.99992" rx="1.63639" fill="#E2E4E7"/>
<path d="M10.3639 8.5223C10.3639 8.07042 10.7302 7.7041 11.1821 7.7041H12.8184C13.2703 7.7041 13.6366 8.07042 13.6366 8.5223V12.6131H10.3639V8.5223Z" fill="#D3D7DB"/>
<path d="M10.3636 5.53612C10.3636 5.34725 10.4033 5.16048 10.48 4.98788L11.2523 3.25014C11.5403 2.60228 12.4597 2.60229 12.7477 3.25015L13.52 4.98788C13.5967 5.16048 13.6363 5.34725 13.6363 5.53612C13.6363 6.28164 13.032 6.88601 12.2865 6.88601H11.7135C10.968 6.88601 10.3636 6.28164 10.3636 5.53612Z" fill="#BFC4CB"/>
<path d="M3 14.2495C3 12.8939 4.09896 11.7949 5.45459 11.7949H18.5452C19.9009 11.7949 20.9998 12.8939 20.9998 14.2495V15.0676C20.9998 15.5195 20.6335 15.8858 20.1816 15.8858H3.8182C3.36632 15.8858 3 15.5195 3 15.0676V14.2495Z" fill="#BFC4CB"/>
</svg>
