<svg width="25" height="24" viewBox="0 0 25 24" fill="none" xmlns="http://www.w3.org/2000/svg">
<path d="M6.5 3.5C6.5 2.94772 6.94772 2.5 7.5 2.5C8.05228 2.5 8.5 2.94772 8.5 3.5V6.5C8.5 7.05228 8.05228 7.5 7.5 7.5C6.94772 7.5 6.5 7.05228 6.5 6.5V3.5Z" fill="#2C2E31"/>
<path d="M16.5 3.5C16.5 2.94772 16.9477 2.5 17.5 2.5C18.0523 2.5 18.5 2.94772 18.5 3.5V6.5C18.5 7.05228 18.0523 7.5 17.5 7.5C16.9477 7.5 16.5 7.05228 16.5 6.5V3.5Z" fill="#2C2E31"/>
<path fill-rule="evenodd" clip-rule="evenodd" d="M4 4.5C2.89543 4.5 2 5.39543 2 6.5V19.5C2 20.6046 2.89543 21.5 4 21.5H21C22.1046 21.5 23 20.6046 23 19.5V6.5C23 5.39543 22.1046 4.5 21 4.5H4ZM5 6.5C4.44772 6.5 4 6.94772 4 7.5V9.5C4 10.0523 4.44772 10.5 5 10.5H20C20.5523 10.5 21 10.0523 21 9.5V7.5C21 6.94772 20.5523 6.5 20 6.5H5Z" fill="#2C2E31"/>
</svg>
