<svg width="22" height="20" viewBox="0 0 22 20" fill="none" xmlns="http://www.w3.org/2000/svg">
<path d="M5 1.5C5 0.947715 5.44772 0.5 6 0.5C6.55228 0.5 7 0.947715 7 1.5V4.5C7 5.05228 6.55228 5.5 6 5.5C5.44772 5.5 5 5.05228 5 4.5V1.5Z" fill="#D3D7DB"/>
<path d="M15 1.5C15 0.947715 15.4477 0.5 16 0.5C16.5523 0.5 17 0.947715 17 1.5V4.5C17 5.05228 16.5523 5.5 16 5.5C15.4477 5.5 15 5.05228 15 4.5V1.5Z" fill="#D3D7DB"/>
<path fill-rule="evenodd" clip-rule="evenodd" d="M2.5 2.5C1.39543 2.5 0.5 3.39543 0.5 4.5V17.5C0.5 18.6046 1.39543 19.5 2.5 19.5H19.5C20.6046 19.5 21.5 18.6046 21.5 17.5V4.5C21.5 3.39543 20.6046 2.5 19.5 2.5H2.5ZM3.5 4.5C2.94772 4.5 2.5 4.94772 2.5 5.5V7.5C2.5 8.05228 2.94772 8.5 3.5 8.5H18.5C19.0523 8.5 19.5 8.05228 19.5 7.5V5.5C19.5 4.94772 19.0523 4.5 18.5 4.5H3.5Z" fill="#D3D7DB"/>
</svg>
