<svg width="24" height="24" viewBox="0 0 24 24" fill="none" xmlns="http://www.w3.org/2000/svg">
<g clip-path="url(#clip0_1375_4251)">
<path fill-rule="evenodd" clip-rule="evenodd" d="M12 21.941C14.7452 24.6861 19.196 24.6862 21.9411 21.941C24.6863 19.1959 24.6863 14.7451 21.9412 11.9999C24.6863 9.25478 24.6863 4.80402 21.9411 2.05887C19.196 -0.686289 14.7452 -0.686289 12 2.05887C9.25488 -0.686289 4.80403 -0.686289 2.05887 2.05887C-0.686281 4.80402 -0.686289 9.25478 2.05884 11.9999C-0.686289 14.7451 -0.68628 19.1959 2.05887 21.941C4.80403 24.6862 9.25484 24.6861 12 21.941Z" fill="#E2E4E7"/>
<rect opacity="0.8" x="10.2496" y="8.90381" width="3.58983" height="4.48728" rx="1.79492" fill="#F6F6F7"/>
<path d="M10.9103 13.7506C11.5306 12.7212 12.7712 12.7212 13.3916 13.7506" stroke="#BFC4CB" stroke-width="0.83478" stroke-linecap="round"/>
<mask id="path-4-inside-1_1375_4251" fill="white">
<path d="M18.1474 11.4278C18.1474 11.0165 17.984 10.622 17.6932 10.3312C17.4023 10.0403 17.0079 9.87695 16.5966 9.87695C16.1853 9.87695 15.7908 10.0403 15.5 10.3312C15.2092 10.622 15.0458 11.0165 15.0458 11.4278L16.5966 11.4278H18.1474Z"/>
</mask>
<path d="M18.1474 11.4278C18.1474 11.0165 17.984 10.622 17.6932 10.3312C17.4023 10.0403 17.0079 9.87695 16.5966 9.87695C16.1853 9.87695 15.7908 10.0403 15.5 10.3312C15.2092 10.622 15.0458 11.0165 15.0458 11.4278L16.5966 11.4278H18.1474Z" fill="#BFC4CB" stroke="#BFC4CB" stroke-width="1.04348" mask="url(#path-4-inside-1_1375_4251)"/>
<mask id="path-5-inside-2_1375_4251" fill="white">
<path d="M18.1473 11.4277C18.1473 11.839 17.9839 12.2335 17.693 12.5243C17.4022 12.8151 17.0078 12.9785 16.5965 12.9785C16.1852 12.9785 15.7907 12.8151 15.4999 12.5243C15.209 12.2335 15.0457 11.839 15.0457 11.4277L16.5965 11.4277H18.1473Z"/>
</mask>
<path d="M18.1473 11.4277C18.1473 11.839 17.9839 12.2335 17.693 12.5243C17.4022 12.8151 17.0078 12.9785 16.5965 12.9785C16.1852 12.9785 15.7907 12.8151 15.4999 12.5243C15.209 12.2335 15.0457 11.839 15.0457 11.4277L16.5965 11.4277H18.1473Z" fill="#F6F6F7" stroke="#F6F6F7" stroke-width="1.04348" mask="url(#path-5-inside-2_1375_4251)"/>
<mask id="path-6-inside-3_1375_4251" fill="white">
<path d="M8.84258 11.4278C8.84258 11.0165 8.67919 10.622 8.38836 10.3312C8.09753 10.0403 7.70307 9.87695 7.29177 9.87695C6.88047 9.87695 6.48602 10.0403 6.19519 10.3312C5.90436 10.622 5.74097 11.0165 5.74097 11.4278L7.29177 11.4278H8.84258Z"/>
</mask>
<path d="M8.84258 11.4278C8.84258 11.0165 8.67919 10.622 8.38836 10.3312C8.09753 10.0403 7.70307 9.87695 7.29177 9.87695C6.88047 9.87695 6.48602 10.0403 6.19519 10.3312C5.90436 10.622 5.74097 11.0165 5.74097 11.4278L7.29177 11.4278H8.84258Z" fill="#BFC4CB" stroke="#BFC4CB" stroke-width="1.04348" mask="url(#path-6-inside-3_1375_4251)"/>
<mask id="path-7-inside-4_1375_4251" fill="white">
<path d="M8.84258 11.4277C8.84258 11.839 8.67919 12.2335 8.38836 12.5243C8.09753 12.8151 7.70307 12.9785 7.29177 12.9785C6.88047 12.9785 6.48602 12.8151 6.19519 12.5243C5.90436 12.2335 5.74097 11.839 5.74097 11.4277L7.29177 11.4277H8.84258Z"/>
</mask>
<path d="M8.84258 11.4277C8.84258 11.839 8.67919 12.2335 8.38836 12.5243C8.09753 12.8151 7.70307 12.9785 7.29177 12.9785C6.88047 12.9785 6.48602 12.8151 6.19519 12.5243C5.90436 12.2335 5.74097 11.839 5.74097 11.4277L7.29177 11.4277H8.84258Z" fill="#F6F6F7" stroke="#F6F6F7" stroke-width="1.04348" mask="url(#path-7-inside-4_1375_4251)"/>
</g>
<defs>
<clipPath id="clip0_1375_4251">
<rect width="24" height="23.9999" fill="white"/>
</clipPath>
</defs>
</svg>
