<svg width="24" height="24" viewBox="0 0 24 24" fill="none" xmlns="http://www.w3.org/2000/svg">
<path fill-rule="evenodd" clip-rule="evenodd" d="M2.7071 22.7071C2.31658 23.0977 1.68341 23.0977 1.29289 22.7071C0.902365 22.3166 0.902365 21.6834 1.29289 21.2929L10.5858 12L1.29289 2.70714C0.902365 2.31661 0.902365 1.68345 1.29289 1.29292C1.68341 0.902399 2.31658 0.902399 2.7071 1.29292L12 10.5858L21.2929 1.29292C21.6834 0.902399 22.3166 0.902399 22.7071 1.29292C23.0976 1.68345 23.0976 2.31661 22.7071 2.70714L13.4142 12L22.7071 21.2929C23.0976 21.6834 23.0976 22.3166 22.7071 22.7071C22.3166 23.0977 21.6834 23.0977 21.2929 22.7071L12 13.4142L2.7071 22.7071Z" fill="#43464A"/>
</svg>
