<svg width="20" height="20" viewBox="0 0 20 20" fill="none" xmlns="http://www.w3.org/2000/svg">
<path fill-rule="evenodd" clip-rule="evenodd" d="M3.29295 17.8384C2.98053 18.1508 2.474 18.1508 2.16158 17.8384C1.84916 17.526 1.84916 17.0194 2.16158 16.707L8.86862 9.99998L2.16158 3.29293C1.84916 2.98051 1.84916 2.47398 2.16158 2.16156C2.474 1.84914 2.98053 1.84914 3.29295 2.16156L9.99999 8.86861L16.707 2.16156C17.0195 1.84914 17.526 1.84914 17.8384 2.16156C18.1508 2.47398 18.1508 2.98051 17.8384 3.29293L11.1314 9.99998L17.8384 16.707C18.1508 17.0194 18.1508 17.526 17.8384 17.8384C17.526 18.1508 17.0195 18.1508 16.707 17.8384L9.99999 11.1314L3.29295 17.8384Z" fill="#BFC4CB"/>
</svg>
