<svg width="48" height="45" viewBox="0 0 48 45" fill="none" xmlns="http://www.w3.org/2000/svg">
<path d="M5.61149 17.3274C5.20877 14.9111 6.28926 12.4881 8.35592 11.173L11.86 8.94311C12.6427 8.44503 13.685 8.75463 14.0689 9.59921L20.9736 24.7895L21.7457 25.819C22.7173 27.1144 24.1636 27.9708 25.7665 28.1997L26.7939 28.3465C27.9971 28.5184 29.1755 28.8334 30.304 29.2848L33.2777 30.4743C35.2198 31.2511 36.9379 32.4993 38.277 34.1062C39.0123 34.9886 38.4305 36.3323 37.2839 36.3997L31.8277 36.7207C28.6731 36.9062 25.5076 36.7143 22.3985 36.149L21.4855 35.983C19.7702 35.6712 18.3808 34.4122 17.9019 32.7359L16.4058 27.4995C15.8939 25.708 15.0583 24.0253 13.9404 22.5347L13.342 21.7368C12.3041 20.18 9.88826 20.7679 9.68164 22.6274L9.52621 24.0263V36.2368C9.52621 36.6583 9.18454 37 8.76306 37H7.9999C7.57842 37 7.23674 36.6583 7.23674 36.2368V25.5295C7.23674 24.5311 7.1143 23.5366 6.87216 22.568L5.71042 17.9211L5.61149 17.3274Z" fill="#FF80CA"/>
<path fill-rule="evenodd" clip-rule="evenodd" d="M21.4215 24.442C20.9128 26.3371 22.0366 28.2858 23.9316 28.7947C23.4229 30.6899 24.5469 32.6387 26.442 33.1474C28.3372 33.6562 30.286 32.5322 30.7947 30.637L30.7949 30.6364C32.69 31.145 34.6387 30.0211 35.1474 28.1259C35.656 26.2311 34.5325 24.2826 32.6379 23.7734C33.1458 21.8786 32.0219 19.9305 30.1271 19.4218C28.2321 18.9131 26.2835 20.0368 25.7746 21.9317L25.7741 21.9316C23.8789 21.4229 21.9302 22.5468 21.4215 24.442ZM29.1752 27.498C29.8126 27.1304 30.0313 26.3156 29.6637 25.6782C29.296 25.0407 28.4812 24.822 27.8438 25.1896C27.2064 25.5573 26.9877 26.372 27.3553 27.0095C27.723 27.6469 28.5378 27.8657 29.1752 27.498Z" fill="#FF42B0"/>
</svg>
