<svg width="24" height="24" viewBox="0 0 24 24" fill="none" xmlns="http://www.w3.org/2000/svg">
<path d="M1.5 10.1056C1.5 9.10249 2.0013 8.1658 2.8359 7.6094L10.3359 2.6094C11.3436 1.9376 12.6564 1.9376 13.6641 2.6094L21.1641 7.6094C21.9987 8.1658 22.5 9.10249 22.5 10.1056V20.5C22.5 21.6046 21.6046 22.5 20.5 22.5H16.5C15.3954 22.5 14.5 21.6046 14.5 20.5V15C14.5 14.1716 13.8284 13.5 13 13.5H11C10.1716 13.5 9.5 14.1716 9.5 15V20.5C9.5 21.6046 8.60457 22.5 7.5 22.5H3.5C2.39543 22.5 1.5 21.6046 1.5 20.5L1.5 10.1056Z" fill="#2C2E31"/>
</svg>
