<svg width="22" height="21" viewBox="0 0 22 21" fill="none" xmlns="http://www.w3.org/2000/svg">
<path d="M0.5 8.10555C0.5 7.10249 1.0013 6.1658 1.8359 5.6094L9.3359 0.609402C10.3436 -0.0623972 11.6564 -0.0623984 12.6641 0.6094L20.1641 5.6094C20.9987 6.1658 21.5 7.10249 21.5 8.10555V18.5C21.5 19.6046 20.6046 20.5 19.5 20.5H15.5C14.3954 20.5 13.5 19.6046 13.5 18.5V13C13.5 12.1716 12.8284 11.5 12 11.5H10C9.17157 11.5 8.5 12.1716 8.5 13V18.5C8.5 19.6046 7.60457 20.5 6.5 20.5H2.5C1.39543 20.5 0.5 19.6046 0.5 18.5L0.5 8.10555Z" fill="#D3D7DB"/>
</svg>
