<svg width="393" height="259" viewBox="0 0 393 259" fill="none" xmlns="http://www.w3.org/2000/svg">
<rect width="394" height="259" fill="#BFC4CB"/>
<path d="M144 159.5C144 172.479 154.521 183 167.5 183L393 183L393 136L167.5 136C154.521 136 144 146.521 144 159.5Z" fill="url(#paint0_linear_1375_4188)"/>
<path d="M42 73.5C42 81.5081 35.5081 88 27.5 88L3.8147e-06 88L-1.25583e-06 59L27.5 59C35.5081 59 42 65.4919 42 73.5Z" fill="url(#paint1_linear_1375_4188)"/>
<path d="M275 111.5C275 119.508 281.492 126 289.5 126L335.5 126C343.508 126 350 119.508 350 111.5C350 103.492 343.508 97 335.5 97L289.5 97C281.492 97 275 103.492 275 111.5Z" fill="url(#paint2_linear_1375_4188)"/>
<path d="M186.205 147.25L185.772 144.54C185.27 141.404 185.764 138.189 187.184 135.349C187.716 134.285 188.423 133.319 189.275 132.49L203.351 118.805L216.927 106.885C219.501 104.625 221.478 101.763 222.681 98.555C223.166 97.2627 223.753 96.0114 224.438 94.8131L225.894 92.265C226.443 91.3048 226.281 90.0962 225.499 89.3143C223.289 87.1041 221.678 84.3671 220.819 81.3618L218.99 74.9587C218.846 74.4532 219.188 73.9386 219.71 73.8767L240.59 71.3995C242.781 71.1394 244.924 70.566 246.952 69.6966L251.666 67.6764C252.23 67.435 252.856 67.8482 252.856 68.4609V70.1035C252.856 70.6999 252.977 71.2901 253.212 71.8382L254.14 74.0037C254.973 75.9463 255.215 78.091 254.837 80.1704C254.658 81.155 254.757 82.1701 255.123 83.1015L259.258 93.6261L260.322 108.879C260.463 110.899 260.002 112.915 258.997 114.674L257.844 116.692C256.281 119.427 253.764 121.49 250.776 122.486L243.016 125.073C241.103 125.711 239.477 127.005 238.427 128.727L234.984 134.374C231.28 140.447 226.517 145.806 220.92 150.196C219.318 151.453 217.524 152.443 215.607 153.13L209.692 155.249C206.069 156.547 202.226 157.118 198.383 156.93C196.473 156.837 194.634 156.186 193.091 155.057L189.271 152.262C187.628 151.06 186.527 149.259 186.205 147.25Z" fill="url(#paint3_linear_1375_4188)"/>
<path d="M186.263 147.613L185.651 143.783C185.228 141.139 185.644 138.429 186.841 136.034L187.863 133.99C187.946 133.826 188.054 133.676 188.183 133.546L191.234 130.496C191.611 130.119 192.255 130.386 192.255 130.919V133.715C192.255 136.835 194.125 139.651 197 140.861C199.168 141.774 201.594 141.867 203.826 141.123L212.012 138.395C213.626 137.857 215.151 137.08 216.536 136.091L219.056 134.291C225.795 129.477 230.988 122.806 234.002 115.092L236.541 108.593C238.62 103.27 236.92 97.2136 232.374 93.7504L228.895 91.0991C224.502 87.7525 221.309 83.0755 219.792 77.7658L218.99 74.9587C218.846 74.4532 219.188 73.9386 219.71 73.8767L240.59 71.3995C242.781 71.1394 244.924 70.566 246.952 69.6966L251.666 67.6764C252.23 67.435 252.856 67.8482 252.856 68.4609V70.1035C252.856 70.6999 252.977 71.2901 253.212 71.8382L254.14 74.0037C254.973 75.9463 255.215 78.091 254.837 80.1704C254.658 81.155 254.757 82.1701 255.123 83.1015L259.258 93.6261L260.322 108.879C260.463 110.899 260.002 112.915 258.997 114.674L257.844 116.692C256.281 119.427 253.764 121.49 250.776 122.486L243.016 125.073C241.103 125.711 239.477 127.005 238.427 128.727L234.984 134.374C231.28 140.447 226.517 145.806 220.92 150.196C219.318 151.453 217.524 152.443 215.607 153.13L209.692 155.249C206.069 156.547 202.226 157.118 198.383 156.93C196.473 156.837 194.634 156.186 193.091 155.057L188.974 152.045C187.522 150.982 186.548 149.39 186.263 147.613Z" fill="url(#paint4_linear_1375_4188)"/>
<path d="M199.51 39.4338V39H257.124V44.94C257.124 45.8087 256.958 46.6694 256.635 47.476L256.203 48.556C255.682 49.8583 255.379 51.2373 255.305 52.638L254.666 64.7838C254.602 65.9953 253.901 67.0819 252.823 67.6383L245.723 71.3027C242.832 72.7948 239.648 73.633 236.397 73.758L223.281 74.2625C220.57 74.3668 217.879 73.7511 215.483 72.4781L206.672 67.7975C205.909 67.3921 205.328 66.7124 205.047 65.8954L202.103 57.3595C201.517 55.6586 201.217 53.872 201.217 52.0729V48.2979C201.217 46.9484 200.96 45.6113 200.459 44.3583C199.832 42.7921 199.51 41.1207 199.51 39.4338Z" fill="url(#paint5_linear_1375_4188)"/>
<path d="M258.357 148.233L255.719 144.355C253.881 141.65 253.146 138.345 253.667 135.117L254.99 126.914L262.245 104.295L264.806 94.4797L266.513 86.3711L282.144 93.874C285.874 95.6646 290.031 96.3766 294.145 95.9294L305.836 94.6586C306.526 94.5836 307.012 95.3189 306.673 95.9242L302.522 103.338C301.857 104.525 301.508 105.864 301.508 107.225C301.508 109.512 301.014 111.774 300.061 113.853L298.081 118.173C297.284 119.911 297.368 121.925 298.305 123.592L300.654 127.768L307.843 146.686C308.452 148.288 309.324 149.777 310.425 151.091L319.727 162.203C322.651 165.695 325.189 169.494 327.296 173.532L332.357 183.233C333.66 185.73 334.086 188.593 333.567 191.362L332.577 196.644C332.089 199.249 330.495 201.514 328.209 202.855C322.576 206.157 315.886 207.156 309.534 205.643L307.442 205.145C303.556 204.22 299.985 202.279 297.095 199.52L288.511 191.326C284.699 187.688 281.696 183.289 279.697 178.414L275.902 169.164L274.432 163.529C273.73 160.84 272.045 158.513 269.71 157.006L262.733 152.504C261.003 151.388 259.515 149.936 258.357 148.233Z" fill="url(#paint6_linear_1375_4188)"/>
<path d="M257.93 147.807L255.293 143.928C253.454 141.224 252.719 137.918 253.24 134.69L254.563 126.487L261.818 103.869L264.379 94.0529L266.086 85.9443L281.717 93.4472C285.447 95.2379 289.604 95.9498 293.718 95.5027L303.264 94.4651C304.17 94.3666 304.579 95.5666 303.801 96.0419L294.806 101.539C288.006 105.695 283.544 112.796 282.751 120.726C282.456 123.678 281.517 126.533 280.005 129.085C277.41 133.465 278.431 139.095 282.406 142.275L282.879 142.653C283.62 143.246 284.194 144.022 284.543 144.905L291.856 163.379C292.03 163.818 292.276 164.226 292.584 164.585L306.705 181.06C307.22 181.661 307.822 182.184 308.49 182.611L311.346 184.436C317.44 188.329 325.569 185.974 328.638 179.426C328.906 178.856 329.694 178.796 330.044 179.321L331.191 181.042C333.244 184.121 334.151 187.823 333.753 191.503L333.42 194.584C332.951 198.922 330.195 202.677 326.197 204.426L326.059 204.487C321.464 206.497 316.368 207.071 311.441 206.132L310.043 205.866L305.131 204.463C302.471 203.703 300.035 202.307 298.034 200.397L288.084 190.899C284.273 187.261 281.27 182.862 279.27 177.988L275.475 168.737L274.005 163.102C273.303 160.414 271.619 158.086 269.284 156.579L262.306 152.077C260.576 150.961 259.088 149.509 257.93 147.807Z" fill="url(#paint7_linear_1375_4188)"/>
<path d="M266.939 86.798L259.076 83.967C257.342 83.3428 256.077 81.8349 255.764 80.0187L254.168 70.7617C254.147 70.6414 254.139 70.5193 254.144 70.3975L254.932 52.2727C254.97 51.3987 255.176 50.5402 255.538 49.7437L256.818 46.9283C257.019 46.4846 257.124 46.0029 257.124 45.5155V39H327.114L323.175 44.1502C322.14 45.5042 321.648 47.1966 321.797 48.8947L323.35 66.6017C323.579 69.206 323.099 71.8236 321.963 74.1779L317.979 82.4296C317.812 82.7768 317.725 83.1573 317.725 83.5428V91.4147C317.725 92.2096 317.176 92.8993 316.402 93.0781L306.629 95.3333L296.213 96.5733C291.312 97.1568 286.347 96.3114 281.915 94.139L266.939 86.798Z" fill="url(#paint8_linear_1375_4188)"/>
<rect x="201.298" y="122.646" width="13.6566" height="2.56061" rx="0.853535" transform="rotate(21.3961 201.298 122.646)" fill="#9BA0A8"/>
<rect width="13.6566" height="2.56061" rx="0.853535" transform="matrix(-0.975305 0.220861 0.220861 0.975305 317.882 164.718)" fill="#9BA0A8"/>
<rect x="207.192" y="117.276" width="13.6566" height="2.56061" rx="0.853535" transform="rotate(-2.53646 207.192 117.276)" fill="#91979F"/>
<rect width="13.6566" height="2.56061" rx="0.853535" transform="matrix(-0.981047 -0.193772 -0.193772 0.981047 312.861 158.523)" fill="#91979F"/>
<rect x="216.581" y="109.594" width="13.6566" height="2.56061" rx="0.853535" transform="rotate(-2.53646 216.581 109.594)" fill="#91979F"/>
<rect width="13.6566" height="2.56061" rx="0.853535" transform="matrix(-0.981047 -0.193772 -0.193772 0.981047 304.732 149.519)" fill="#818892"/>
<rect width="13.6566" height="2.56061" rx="0.853535" transform="matrix(-0.981047 -0.193772 -0.193772 0.981047 301.318 137.569)" fill="#818892"/>
<rect x="211.967" y="112.404" width="13.6566" height="2.56061" rx="0.853535" transform="rotate(59.8561 211.967 112.404)" fill="#9BA0A8"/>
<rect width="13.6566" height="2.56061" rx="0.853535" transform="matrix(-0.626338 0.779551 0.779551 0.626338 308.872 152.989)" fill="#9BA0A8"/>
<rect x="221.356" y="104.722" width="13.6566" height="2.56061" rx="0.853535" transform="rotate(59.8561 221.356 104.722)" fill="#9BA0A8"/>
<rect width="13.6566" height="2.56061" rx="0.853535" transform="matrix(-0.626338 0.779551 0.779551 0.626338 300.743 143.985)" fill="#9BA0A8"/>
<rect width="13.6566" height="2.56061" rx="0.853535" transform="matrix(-0.626338 0.779551 0.779551 0.626338 297.329 132.035)" fill="#9BA0A8"/>
<defs>
<linearGradient id="paint0_linear_1375_4188" x1="122" y1="183" x2="379.5" y2="183" gradientUnits="userSpaceOnUse">
<stop stop-color="#BFC4CB"/>
<stop offset="1" stop-color="#B3B9C1"/>
</linearGradient>
<linearGradient id="paint1_linear_1375_4188" x1="42" y1="88" x2="-1.19209e-06" y2="88" gradientUnits="userSpaceOnUse">
<stop stop-color="#BFC4CB"/>
<stop offset="1" stop-color="#B3B9C1"/>
</linearGradient>
<linearGradient id="paint2_linear_1375_4188" x1="350" y1="112.5" x2="317" y2="112.5" gradientUnits="userSpaceOnUse">
<stop stop-color="#BFC4CB"/>
<stop offset="1" stop-color="#B3B9C1"/>
</linearGradient>
<linearGradient id="paint3_linear_1375_4188" x1="190.975" y1="138.437" x2="257.551" y2="108.563" gradientUnits="userSpaceOnUse">
<stop stop-color="#BFC4CB"/>
<stop offset="1" stop-color="#72777E"/>
</linearGradient>
<linearGradient id="paint4_linear_1375_4188" x1="182.013" y1="109.417" x2="260.111" y2="109.843" gradientUnits="userSpaceOnUse">
<stop stop-color="#BFC4CB"/>
<stop offset="1" stop-color="#72777E"/>
</linearGradient>
<linearGradient id="paint5_linear_1375_4188" x1="246" y1="37.5" x2="262" y2="80.5" gradientUnits="userSpaceOnUse">
<stop stop-color="#BFC4CB"/>
<stop offset="1" stop-color="#A0A7B1"/>
</linearGradient>
<linearGradient id="paint6_linear_1375_4188" x1="334.369" y1="182.821" x2="261.391" y2="118.379" gradientUnits="userSpaceOnUse">
<stop stop-color="#BFC4CB"/>
<stop offset="1" stop-color="#72777E"/>
</linearGradient>
<linearGradient id="paint7_linear_1375_4188" x1="335.649" y1="158.068" x2="268.646" y2="157.641" gradientUnits="userSpaceOnUse">
<stop stop-color="#BFC4CB"/>
<stop offset="1" stop-color="#72777E"/>
</linearGradient>
<linearGradient id="paint8_linear_1375_4188" x1="284.5" y1="39" x2="272.487" y2="88.0783" gradientUnits="userSpaceOnUse">
<stop stop-color="#BFC4CB"/>
<stop offset="1" stop-color="#A0A7B1"/>
</linearGradient>
</defs>
</svg>
