<svg width="24" height="24" viewBox="0 0 24 24" fill="none" xmlns="http://www.w3.org/2000/svg">
<path d="M1.99976 9.5H21.9999V18.8734C21.9999 20.14 20.9731 21.1668 19.7066 21.1668H4.29311C3.02653 21.1668 1.99976 20.14 1.99976 18.8734V9.5Z" fill="#E2E4E7"/>
<path d="M22.0001 9.5L1.99997 9.5L10.8334 3.66662L10.9512 3.59295C11.6949 3.12816 12.6385 3.12816 13.3822 3.59295L13.5001 3.66662L22.0001 9.5Z" fill="#D3D7DB"/>
<path d="M22.0001 9.5L12 15.3334V21.1668H19.7068C20.9734 21.1668 22.0001 20.14 22.0001 18.8734V9.5Z" fill="#D3D7DB"/>
<path d="M1.99976 9.5L11.9998 15.3334V21.1668H4.29311C3.02653 21.1668 1.99976 20.14 1.99976 18.8734V9.5Z" fill="#D3D7DB"/>
<path d="M1.99976 19.0217C1.99976 18.791 2.12707 18.5792 2.33076 18.471L11.3742 13.6659C11.7654 13.4581 12.2343 13.4581 12.6255 13.6659L21.3233 18.2874C21.7397 18.5086 21.9999 18.9415 21.9999 19.413C21.9999 20.3816 21.2147 21.1669 20.246 21.1669H4.14495C2.96019 21.1669 1.99976 20.2065 1.99976 19.0217Z" fill="#BFC4CB"/>
</svg>
