<svg width="24" height="24" viewBox="0 0 24 24" fill="none" xmlns="http://www.w3.org/2000/svg">
<path d="M1.99976 9.5H21.9999V18.8734C21.9999 20.14 20.9731 21.1668 19.7066 21.1668H4.29311C3.02653 21.1668 1.99976 20.14 1.99976 18.8734V9.5Z" fill="#BFE6DA"/>
<path d="M22.0002 9.5L2.0001 9.5L10.8335 3.66662L10.9514 3.59295C11.695 3.12816 12.6386 3.12816 13.3823 3.59295L13.5002 3.66662L22.0002 9.5Z" fill="#75C9B0"/>
<path d="M22.0002 9.5L12.0002 15.3334V21.1668H19.7069C20.9735 21.1668 22.0002 20.14 22.0002 18.8734V9.5Z" fill="#75C9B0"/>
<path d="M1.99976 9.5L11.9998 15.3334V21.1668H4.29311C3.02653 21.1668 1.99976 20.14 1.99976 18.8734V9.5Z" fill="#75C9B0"/>
<path d="M1.99976 19.0217C1.99976 18.791 2.12707 18.5792 2.33076 18.471L11.3742 13.6659C11.7654 13.4581 12.2343 13.4581 12.6255 13.6659L21.3233 18.2874C21.7397 18.5086 21.9999 18.9415 21.9999 19.413C21.9999 20.3816 21.2147 21.1669 20.246 21.1669H4.14495C2.96019 21.1669 1.99976 20.2065 1.99976 19.0217Z" fill="#5ABFA1"/>
</svg>
