<svg width="335" height="229" viewBox="0 0 335 229" fill="none" xmlns="http://www.w3.org/2000/svg">
<path d="M334.035 15.328C334.035 6.86258 327.173 0 318.707 0H94.536C86.0706 0 79.208 6.86256 79.208 15.328V147.532C79.208 155.997 86.0706 162.86 94.536 162.86H318.707C327.173 162.86 334.035 155.997 334.035 147.532V15.328Z" fill="#FFECF7"/>
<path d="M276.715 31.1346H140.191L172.011 142.924H243.71H308.648L276.715 31.1346Z" fill="#FF80CA"/>
<path d="M137.513 33.0589C137.85 31.9178 138.898 31.1346 140.088 31.1346H276.715L243.707 142.924H105.074L137.513 33.0589Z" fill="#FFC4E7"/>
<circle cx="155.968" cy="38.1522" r="2.99374" fill="#FF80CA"/>
<path d="M155.967 39.5555C156.743 39.5554 157.371 38.927 157.371 38.1518C157.371 37.3765 156.743 36.7481 155.967 36.7482L155.967 39.5555ZM156.966 19.1907L156.966 17.787L156.966 19.1907ZM155.967 38.1518L155.967 36.7482C154.001 36.7482 152.693 35.853 151.851 34.4625C150.969 33.005 150.584 30.9508 150.756 28.7819C150.926 26.6208 151.637 24.511 152.752 22.9797C153.853 21.4675 155.278 20.5944 156.966 20.5943L156.966 19.1907L156.966 17.787C154.164 17.787 151.97 19.2841 150.483 21.3272C149.009 23.3512 148.161 25.9818 147.957 28.5609C147.754 31.1324 148.18 33.8184 149.45 35.9161C150.76 38.0808 152.944 39.5556 155.967 39.5555L155.967 38.1518ZM156.966 19.1907L156.966 20.5943C159.253 20.5943 161.122 22.1085 162.499 24.4032C163.873 26.6934 164.544 29.4392 164.544 31.1651L165.948 31.1651L167.352 31.1651C167.352 28.8992 166.526 25.6577 164.906 22.9586C163.289 20.2641 160.666 17.787 156.966 17.787L156.966 19.1907Z" fill="#FFA8DB"/>
<circle cx="180.648" cy="38.1522" r="2.99374" fill="#FF80CA"/>
<path d="M180.647 39.5557C181.422 39.5557 182.05 38.9272 182.05 38.152C182.05 37.3768 181.422 36.7484 180.647 36.7484L180.647 39.5557ZM181.646 19.1909L181.646 17.7873L181.646 19.1909ZM180.647 38.1521L180.647 36.7484C178.68 36.7485 177.372 35.8532 176.531 34.4628C175.648 33.0053 175.264 30.951 175.435 28.7822C175.606 26.621 176.317 24.5112 177.431 22.9799C178.533 21.4677 179.957 20.5946 181.646 20.5946L181.646 19.1909L181.646 17.7873C178.843 17.7873 176.65 19.2844 175.162 21.3275C173.688 23.3514 172.84 25.982 172.636 28.5612C172.433 31.1327 172.859 33.8187 174.129 35.9164C175.439 38.0811 177.623 39.5558 180.647 39.5557L180.647 38.1521ZM181.646 19.1909L181.646 20.5946C183.932 20.5946 185.801 22.1088 187.178 24.4035C188.552 26.6936 189.224 29.4394 189.224 31.1654L190.627 31.1654L192.031 31.1654C192.031 28.8994 191.205 25.658 189.585 22.9589C187.968 20.2643 185.346 17.7872 181.646 17.7873L181.646 19.1909Z" fill="#FFA8DB"/>
<circle cx="205.327" cy="38.1522" r="2.99374" fill="#FF80CA"/>
<path d="M205.327 39.5555C206.102 39.5554 206.73 38.927 206.73 38.1518C206.73 37.3765 206.102 36.7481 205.327 36.7482L205.327 39.5555ZM206.326 19.1907L206.326 17.787L206.326 19.1907ZM205.327 38.1518L205.327 36.7482C203.361 36.7482 202.052 35.853 201.211 34.4625C200.329 33.005 199.944 30.9508 200.115 28.7819C200.286 26.6208 200.997 24.511 202.112 22.9797C203.213 21.4675 204.637 20.5944 206.326 20.5943L206.326 19.1907L206.326 17.787C203.523 17.787 201.33 19.2841 199.842 21.3272C198.369 23.3512 197.52 25.9818 197.316 28.5609C197.113 31.1324 197.539 33.8184 198.809 35.9161C200.119 38.0808 202.304 39.5556 205.327 39.5555L205.327 38.1518ZM206.326 19.1907L206.326 20.5943C208.613 20.5943 210.481 22.1085 211.858 24.4032C213.232 26.6934 213.904 29.4392 213.904 31.1651L215.307 31.1651L216.711 31.1651C216.711 28.8992 215.885 25.6577 214.265 22.9586C212.648 20.2641 210.026 17.787 206.326 17.787L206.326 19.1907Z" fill="#FFA8DB"/>
<circle cx="230.007" cy="38.1522" r="2.99374" fill="#FF80CA"/>
<path d="M230.006 39.5554C230.782 39.5554 231.41 38.9269 231.41 38.1517C231.41 37.3765 230.782 36.7481 230.006 36.7481L230.006 39.5554ZM231.005 19.1906L231.005 17.787L231.005 19.1906ZM230.006 38.1518L230.006 36.7481C228.04 36.7482 226.732 35.8529 225.89 34.4625C225.008 33.005 224.624 30.9507 224.795 28.7819C224.965 26.6207 225.676 24.5109 226.791 22.9796C227.892 21.4674 229.317 20.5943 231.005 20.5943L231.005 19.1906L231.005 17.787C228.203 17.787 226.009 19.2841 224.522 21.3272C223.048 23.3511 222.2 25.9817 221.996 28.5609C221.793 31.1324 222.219 33.8184 223.489 35.916C224.799 38.0808 226.983 39.5555 230.006 39.5554L230.006 38.1518ZM231.005 19.1906L231.005 20.5943C233.292 20.5943 235.161 22.1085 236.538 24.4031C237.912 26.6933 238.583 29.4391 238.583 31.165L239.987 31.165L241.391 31.165C241.391 28.8991 240.565 25.6577 238.945 22.9586C237.328 20.264 234.705 17.7869 231.005 17.787L231.005 19.1906Z" fill="#FFA8DB"/>
<circle cx="254.687" cy="38.1522" r="2.99374" fill="#FF80CA"/>
<path d="M254.686 39.5555C255.461 39.5554 256.089 38.927 256.089 38.1518C256.089 37.3765 255.461 36.7481 254.686 36.7482L254.686 39.5555ZM255.685 19.1907L255.685 17.787L255.685 19.1907ZM254.686 38.1518L254.686 36.7482C252.719 36.7482 251.411 35.853 250.57 34.4625C249.687 33.005 249.303 30.9508 249.474 28.7819C249.645 26.6208 250.356 24.511 251.471 22.9797C252.572 21.4675 253.996 20.5944 255.685 20.5943L255.685 19.1907L255.685 17.787C252.882 17.787 250.689 19.2841 249.201 21.3272C247.727 23.3512 246.879 25.9818 246.675 28.5609C246.472 31.1324 246.898 33.8184 248.168 35.9161C249.478 38.0808 251.662 39.5556 254.686 39.5555L254.686 38.1518ZM255.685 19.1907L255.685 20.5943C257.971 20.5943 259.84 22.1085 261.217 24.4032C262.591 26.6934 263.263 29.4392 263.263 31.1651L264.666 31.1651L266.07 31.1651C266.07 28.8992 265.244 25.6577 263.624 22.9586C262.007 20.2641 259.385 17.787 255.685 17.787L255.685 19.1907Z" fill="#FFA8DB"/>
<path d="M147.573 51.7303C147.8 50.9731 148.497 50.4545 149.287 50.4545H251.518C252.734 50.4545 253.596 51.6419 253.219 52.7986L229.467 125.699C229.227 126.436 228.54 126.935 227.765 126.935H127.437C126.239 126.935 125.379 125.779 125.723 124.631L147.573 51.7303Z" fill="#FFECF7"/>
<path d="M147.574 51.7329C147.8 50.9744 148.498 50.4545 149.289 50.4545H251.515C252.732 50.4545 253.594 51.6432 253.216 52.8002L249.612 63.8265H143.969L147.574 51.7329Z" fill="#FFA8DB"/>
<circle cx="1.916" cy="1.916" r="1.916" transform="matrix(1 0 -0.292372 0.956305 198.897 80.4191)" fill="#FF80CA"/>
<circle cx="1.916" cy="1.916" r="1.916" transform="matrix(1 0 -0.292372 0.956305 204.275 94.1611)" fill="#FF80CA"/>
<circle cx="1.916" cy="1.916" r="1.916" transform="matrix(1 0 -0.292372 0.956305 171.351 85.9158)" fill="#FF80CA"/>
<path d="M193.211 99.2959C197.221 95.6826 198.394 90.2627 194.449 88.908C192.482 88.2322 189.607 88.9079 187.81 91.6177C187.67 88.9079 185.208 88.2322 182.827 88.908C178.054 90.2627 175.913 95.6826 177.714 99.2959C179.336 102.55 183.391 106.071 183.391 106.071C183.391 106.071 189.599 102.55 193.211 99.2959Z" fill="#FF68C0"/>
<rect width="1.755" height="4.75261" rx="0.877499" transform="matrix(0.542313 0.644041 -0.889594 0.706916 209.883 76.7792)" fill="#FFC4E7"/>
<rect width="1.755" height="4.75261" rx="0.877499" transform="matrix(0.170837 0.861451 -1.02776 0.415236 213.789 89.5804)" fill="#FFC4E7"/>
<rect width="1.755" height="4.75261" rx="0.877499" transform="matrix(0.753201 -0.828184 0.71984 0.478152 162.122 91.0339)" fill="#FFC4E7"/>
<path d="M334.035 19.3063C334.035 10.231 326.678 2.87402 317.603 2.87402H95.6403C86.565 2.87402 79.208 10.231 79.208 19.3063V149.301C79.208 158.377 86.565 165.734 95.6403 165.734H317.603C326.678 165.734 334.035 158.377 334.035 149.301V19.3063Z" fill="url(#paint0_linear_2857_3916)"/>
<circle cx="106.371" cy="128.577" r="25.5236" fill="url(#paint1_linear_2857_3916)"/>
<path d="M119.746 143.119C118.518 131.285 120.462 117.195 126.164 112.606C120.707 104.702 112.388 100.465 105.958 100.478C82.6478 100.524 78.1251 116.041 78.0206 125.33C77.8864 137.256 86.461 147.304 96.3785 149.944C96.8684 150.075 97.3832 150.063 97.8742 149.937L106.9 147.622L118.514 144.874C119.308 144.686 119.831 143.931 119.746 143.119Z" fill="#3B3B3B"/>
<path d="M97.4712 97.1257C109.771 93.5281 116.999 101.988 118.948 104.088C120.508 105.768 122.224 106.009 123.237 106.518C128.03 108.929 126.835 112.929 125.058 115.161C124.632 115.696 124.256 116.304 123.903 116.921C124.656 123.471 118.346 132.176 108.175 137.836C96.4313 144.372 83.9516 144.394 80.1345 137.932C79.2367 136.921 78.7772 135.508 78.8093 133.871C78.9 129.252 76.4082 126.999 76.1395 118.96C75.8708 110.921 85.1718 100.723 97.4712 97.1257Z" fill="url(#paint2_linear_2857_3916)"/>
<circle cx="38.7121" cy="129.178" r="25.5236" fill="url(#paint3_linear_2857_3916)"/>
<path d="M21.2762 163.514C24.1727 154.462 32.5868 148.32 42.0903 148.32C51.5939 148.32 60.008 154.462 62.9044 163.514L83.5661 228.082H5.32518C2.99555 228.082 1.34019 225.814 2.0502 223.595L21.2762 163.514Z" fill="url(#paint4_linear_2857_3916)"/>
<path d="M195.286 125.874C197.588 127.574 198.076 130.818 196.377 133.12L190.837 140.622L190.958 140.712C197.336 145.422 198.688 154.411 193.978 160.789L188.964 167.578L168.959 152.805L188.041 126.964C189.741 124.663 192.984 124.175 195.286 125.874Z" fill="url(#paint5_linear_2857_3916)"/>
<path d="M112.281 148.32C117.401 148.32 122.204 150.104 126 153.164L126.076 153.106L126.495 153.574C127.953 154.822 129.249 156.265 130.343 157.871L147.423 176.94L168.788 153.106C176.695 155.705 183.637 160.622 188.711 167.219L188.899 167.463L162.372 199.092C158.295 203.952 152.417 206.215 146.66 205.903L152.321 223.595C153.03 225.814 151.376 228.081 149.046 228.082H70.8052L91.4673 163.513C94.3638 154.462 102.777 148.32 112.281 148.32Z" fill="url(#paint6_linear_2857_3916)"/>
<path d="M56.2045 108.784C64.4571 116.12 59.6431 126.359 56.2045 130.562C44.7427 143.399 46.0798 155.014 48.181 159.217C43.5963 159.217 40.1577 158.07 39.0115 157.497C23.4233 162.082 16.0878 159.408 14.3685 157.497C18.9534 152.454 16.2789 144.316 14.3685 140.877C6.57445 121.621 14.5596 112.605 19.5264 110.503C29.6129 94.4567 48.181 100.761 56.2045 108.784Z" fill="url(#paint7_linear_2857_3916)"/>
<defs>
<linearGradient id="paint0_linear_2857_3916" x1="174.529" y1="97.7158" x2="142.915" y2="165.734" gradientUnits="userSpaceOnUse">
<stop stop-color="white" stop-opacity="0"/>
<stop offset="1" stop-color="white"/>
</linearGradient>
<linearGradient id="paint1_linear_2857_3916" x1="128.992" y1="146.863" x2="129.595" y2="117.353" gradientUnits="userSpaceOnUse">
<stop stop-color="#FFDBDD"/>
<stop offset="1" stop-color="#FFB2B5"/>
</linearGradient>
<linearGradient id="paint2_linear_2857_3916" x1="99.3999" y1="96.5562" x2="104.126" y2="141.529" gradientUnits="userSpaceOnUse">
<stop stop-color="#31AF82"/>
<stop offset="1" stop-color="#1D6F51"/>
</linearGradient>
<linearGradient id="paint3_linear_2857_3916" x1="61.9357" y1="142.597" x2="61.9357" y2="117.954" gradientUnits="userSpaceOnUse">
<stop stop-color="#FFDBDD"/>
<stop offset="1" stop-color="#FFBEC1"/>
</linearGradient>
<linearGradient id="paint4_linear_2857_3916" x1="57.924" y1="156.351" x2="42.0903" y2="228.082" gradientUnits="userSpaceOnUse">
<stop stop-color="#FFC4E7"/>
<stop offset="1" stop-color="white"/>
</linearGradient>
<linearGradient id="paint5_linear_2857_3916" x1="186.871" y1="127.123" x2="178.963" y2="160.192" gradientUnits="userSpaceOnUse">
<stop stop-color="#FFAEB2"/>
<stop offset="1" stop-color="#FFDBDD"/>
</linearGradient>
<linearGradient id="paint6_linear_2857_3916" x1="130.134" y1="161.509" x2="124.976" y2="234.866" gradientUnits="userSpaceOnUse">
<stop stop-color="#31AF82"/>
<stop offset="0.5" stop-color="#98D7C0"/>
<stop offset="1" stop-color="white"/>
</linearGradient>
<linearGradient id="paint7_linear_2857_3916" x1="35.9339" y1="100.538" x2="35.9339" y2="160.029" gradientUnits="userSpaceOnUse">
<stop stop-color="#574D4D"/>
<stop offset="1" stop-color="#363434"/>
</linearGradient>
</defs>
</svg>
