<svg width="166" height="176" viewBox="0 0 166 176" fill="none" xmlns="http://www.w3.org/2000/svg">
<rect x="80" y="79" width="18" height="97" fill="url(#paint0_linear_1751_3836)"/>
<path d="M121.571 16L122.124 16.0068C133.703 16.2999 143 25.7788 143 37.4287V85C143 88.3137 140.314 91 137 91H59C55.6863 91 53 88.3137 53 85V22C53 18.6863 55.6863 16 59 16H121.571Z" fill="#D3D7DB"/>
<path d="M30 41C30 27.1929 41.1929 16 55 16C68.8071 16 80 27.1929 80 41V91H30V41Z" fill="#F6F6F7"/>
<path d="M55 19C67.1503 19 77 28.8497 77 41V88H33V41C33 28.8497 42.8497 19 55 19Z" fill="#BFC4CB" stroke="#E2E4E7" stroke-width="6"/>
<path d="M20 89C20 87.8954 20.8954 87 22 87H80V91H22C20.8954 91 20 90.1046 20 89Z" fill="#E2E4E7"/>
<path d="M103 0.0917969L109.092 0.186523L108.999 6.18652L103 6.09277V49.6738C105.365 50.7973 107 53.2076 107 56C107 59.866 103.866 63 100 63C96.134 63 93 59.866 93 56C93 53.2076 94.6351 50.7973 97 49.6738V0H103V0.0917969Z" fill="#E2E4E7"/>
<path d="M148.757 70.3293C150.729 67.8384 150.4 64.102 147.443 63.168C145.968 62.7021 144.157 63.1679 143.5 65.0361C142.843 63.1679 141.032 62.7021 139.557 63.168C136.6 64.102 136.271 67.8384 138.243 70.3293C140.018 72.5729 143.5 75 143.5 75C143.5 75 146.982 72.5729 148.757 70.3293Z" fill="#E2E4E7"/>
<path d="M164.471 48.1617C166.897 45.048 166.493 40.3774 162.853 39.21C161.037 38.6276 158.809 39.2099 158 41.5451C157.191 39.2099 154.963 38.6276 153.147 39.21C149.507 40.3774 149.103 45.048 151.529 48.1617C153.715 50.9661 158 54 158 54C158 54 162.285 50.9661 164.471 48.1617Z" fill="#D3D7DB"/>
<path d="M11.7573 61.3293C13.7288 58.8384 13.4003 55.102 10.443 54.168C8.96774 53.7021 7.15717 54.1679 6.5 56.0361C5.84283 54.1679 4.03226 53.7021 2.557 54.168C-0.400304 55.102 -0.728838 58.8384 1.24266 61.3293C3.01836 63.5729 6.5 66 6.5 66C6.5 66 9.98164 63.5729 11.7573 61.3293Z" fill="#D3D7DB"/>
<circle cx="158" cy="94" r="3" fill="#D3D7DB"/>
<circle cx="16" cy="42" r="3" fill="#BFC4CB"/>
<defs>
<linearGradient id="paint0_linear_1751_3836" x1="89" y1="79" x2="89" y2="176" gradientUnits="userSpaceOnUse">
<stop stop-color="#D9DCE0"/>
<stop offset="1" stop-color="#E2E4E7" stop-opacity="0"/>
</linearGradient>
</defs>
</svg>
