<svg width="24" height="24" viewBox="0 0 24 24" fill="none" xmlns="http://www.w3.org/2000/svg">
<path fill-rule="evenodd" clip-rule="evenodd" d="M10.0295 1.97518C9.81915 1.80714 9.54169 1.74855 9.28137 1.81721C8.38618 2.05332 7.52634 2.40733 6.72443 2.86995C6.49028 3.00504 6.33424 3.24334 6.30405 3.51198L6.04901 5.78144C5.96082 5.86597 5.87443 5.95235 5.78988 6.04053L3.51898 6.29555C3.2508 6.32566 3.0128 6.48121 2.87757 6.71476C2.41275 7.51751 2.05663 8.37844 1.81855 9.27496C1.74932 9.53562 1.80777 9.81366 1.97608 10.0244L3.40176 11.8094C3.3992 11.9315 3.3992 12.0537 3.40176 12.1759L1.97527 13.9608C1.80675 14.1717 1.74828 14.45 1.81768 14.7109C2.04218 15.5546 2.52175 16.3677 2.90325 17.0146C2.95714 17.1059 3.00907 17.194 3.05806 17.2783C3.2302 17.5748 3.56345 17.739 3.90342 17.6949L6.19443 17.3976L6.57639 17.7795L6.1657 19.833C6.09253 20.1988 6.26625 20.5697 6.59418 20.7477L9.09828 22.1068C9.39884 22.27 9.76786 22.2373 10.0351 22.024L11.8205 20.5985C11.9427 20.601 12.065 20.601 12.1873 20.5985L13.9726 22.0248C14.1834 22.1932 14.4617 22.2516 14.7224 22.1823C15.6192 21.9438 16.4801 21.5869 17.2826 21.1211C17.5157 20.9858 17.6709 20.7481 17.701 20.4802L17.956 18.2108C18.0442 18.1262 18.1306 18.0398 18.2151 17.9517L20.486 17.6967C20.7548 17.6665 20.9932 17.5104 21.1282 17.2761C21.5912 16.473 21.9456 15.6121 22.182 14.7159C22.2507 14.4556 22.1921 14.1782 22.0241 13.9678L20.5984 12.1828C20.601 12.0607 20.601 11.9385 20.5984 11.8163L22.0249 10.0314C22.1934 9.8205 22.2519 9.5422 22.1825 9.28135C21.9439 8.38476 21.587 7.52394 21.1211 6.7216C20.9858 6.48855 20.7481 6.33338 20.4803 6.30329L18.2103 6.04829C18.1258 5.96011 18.0394 5.87373 17.9512 5.78919L17.6961 3.51879C17.666 3.25057 17.5104 3.01255 17.2768 2.87734C16.4739 2.41262 15.6129 2.05657 14.7163 1.81853C14.4557 1.74934 14.1777 1.80776 13.967 1.97599L12.1816 3.40149C12.0594 3.39893 11.9371 3.39893 11.8148 3.40149L10.0295 1.97518ZM7.70478 6.28657L7.9458 4.14183C8.38435 3.91632 8.84119 3.72828 9.31144 3.57975L11.0004 4.92907C11.1647 5.06034 11.3718 5.12612 11.5818 5.11369C11.8591 5.09728 12.1372 5.09728 12.4145 5.11369C12.6244 5.12611 12.8314 5.0604 12.9957 4.92922L14.684 3.58121C15.156 3.73107 15.6143 3.9206 16.0543 4.14776L16.2954 6.29428C16.3189 6.50325 16.4189 6.69614 16.5762 6.83572C16.7836 7.01978 16.9799 7.21602 17.164 7.42339C17.3035 7.58062 17.4964 7.6806 17.7053 7.70408L19.852 7.94524C20.0796 8.38463 20.2695 8.84255 20.4196 9.31405L19.0709 11.0017C18.9396 11.166 18.8738 11.3732 18.8862 11.5832C18.9026 11.8605 18.9026 12.1385 18.8862 12.4158C18.8738 12.6257 18.9395 12.8328 19.0708 12.9971L20.4195 14.6857C20.2706 15.1572 20.0822 15.6152 19.8562 16.0549L17.7102 16.2959C17.5012 16.3193 17.3084 16.4193 17.1688 16.5766C16.9847 16.7839 16.7884 16.9802 16.581 17.1642C16.4237 17.3038 16.3237 17.4967 16.3002 17.7056L16.059 19.8519C15.6195 20.0795 15.1614 20.2693 14.6898 20.4195L13.0017 19.0709C12.8374 18.9396 12.6303 18.8738 12.4203 18.8862C12.143 18.9027 11.8649 18.9027 11.5876 18.8862C11.3777 18.8738 11.1707 18.9395 11.0064 19.0707L9.4142 20.342L7.95755 19.5514L8.33447 17.6667C8.39027 17.3877 8.30295 17.0993 8.10177 16.8982L7.10177 15.8982C6.9151 15.7115 6.65237 15.622 6.39057 15.656L4.24383 15.9346C3.98338 15.4878 3.75113 15.0736 3.5915 14.6644L4.92926 12.9905C5.06059 12.8262 5.12639 12.619 5.11396 12.409C5.09755 12.1317 5.09755 11.8537 5.11396 11.5764C5.12639 11.3665 5.06064 11.1594 4.92941 10.9951L3.58126 9.30719C3.73114 8.83545 3.92067 8.37723 4.14783 7.93744L6.29484 7.69634C6.50378 7.67287 6.69664 7.57288 6.83622 7.41564C7.02031 7.20827 7.21658 7.01204 7.42399 6.82798C7.58127 6.6884 7.68129 6.49553 7.70478 6.28657ZM9.73103 11.8589C9.73103 10.6838 10.6838 9.73098 11.8594 9.73098C13.0351 9.73098 13.9879 10.6838 13.9879 11.8589C13.9879 13.034 13.0351 13.9868 11.8594 13.9868C10.6838 13.9868 9.73103 13.034 9.73103 11.8589ZM11.8594 8.02916C9.7442 8.02916 8.02921 9.74366 8.02921 11.8589C8.02921 13.9741 9.7442 15.6886 11.8594 15.6886C13.9747 15.6886 15.6897 13.9741 15.6897 11.8589C15.6897 9.74366 13.9747 8.02916 11.8594 8.02916Z" fill="#43464A"/>
</svg>
