<svg width="222" height="105" viewBox="0 0 222 105" fill="none" xmlns="http://www.w3.org/2000/svg">
<path d="M156.411 11.6558H42.8349L69.3065 99.6539H182.976L156.411 11.6558Z" fill="#B3B9C1"/>
<path d="M40.524 13.4394C40.8551 12.3783 41.8375 11.6558 42.949 11.6558H156.41L128.951 99.6539H13.6211L40.524 13.4394Z" fill="#E2E4E7"/>
<circle cx="55.9602" cy="17.493" r="2.49051" fill="#B3B9C1"/>
<path d="M55.9598 18.8213C56.6934 18.8213 57.2881 18.2266 57.288 17.493C57.288 16.7594 56.6933 16.1648 55.9597 16.1648L55.9598 18.8213ZM56.7908 1.71918L56.7908 0.39091L56.7908 1.71918ZM55.9598 17.4931L55.9597 16.1648C54.3846 16.1648 53.3463 15.4532 52.673 14.3408C51.9613 13.1649 51.6436 11.4921 51.7842 9.71082C51.9243 7.93686 52.5079 6.2115 53.4149 4.96575C54.3088 3.73812 55.4498 3.04747 56.7908 3.04746L56.7908 1.71918L56.7908 0.39091C54.3956 0.390926 52.5269 1.67206 51.2673 3.40209C50.0209 5.11399 49.3072 7.33216 49.1359 9.50171C48.9652 11.664 49.3219 13.9346 50.4003 15.7163C51.517 17.5614 53.3842 18.8214 55.9598 18.8213L55.9598 17.4931ZM56.7908 1.71918L56.7908 3.04746C58.6124 3.04744 60.1237 4.25206 61.2556 6.13813C62.3849 8.01996 62.9345 10.2758 62.9345 11.6808L64.2628 11.6808L65.5911 11.6808C65.5911 9.76485 64.8949 7.03991 63.5334 4.77115C62.1744 2.50664 59.9498 0.390888 56.7908 0.39091L56.7908 1.71918Z" fill="#B3B9C1"/>
<circle cx="76.4912" cy="17.493" r="2.49051" fill="#B3B9C1"/>
<path d="M76.4908 18.8213C77.2244 18.8213 77.8191 18.2266 77.819 17.493C77.819 16.7594 77.2243 16.1648 76.4907 16.1648L76.4908 18.8213ZM77.3218 1.71918L77.3218 0.39091L77.3218 1.71918ZM76.4908 17.4931L76.4907 16.1648C74.9156 16.1648 73.8773 15.4532 73.204 14.3408C72.4923 13.1649 72.1746 11.4921 72.3152 9.71082C72.4553 7.93686 73.0389 6.2115 73.9459 4.96575C74.8398 3.73812 75.9808 3.04747 77.3218 3.04746L77.3218 1.71918L77.3218 0.39091C74.9266 0.390926 73.0579 1.67206 71.7983 3.40209C70.5519 5.11399 69.8382 7.33216 69.6669 9.50171C69.4962 11.664 69.853 13.9346 70.9313 15.7163C72.048 17.5614 73.9153 18.8214 76.4908 18.8213L76.4908 17.4931ZM77.3218 1.71918L77.3218 3.04746C79.1434 3.04744 80.6547 4.25206 81.7866 6.13813C82.9159 8.01996 83.4655 10.2758 83.4655 11.6808L84.7938 11.6808L86.1221 11.6808C86.1221 9.76485 85.4259 7.03991 84.0644 4.77115C82.7054 2.50664 80.4808 0.390888 77.3218 0.39091L77.3218 1.71918Z" fill="#B3B9C1"/>
<circle cx="97.0225" cy="17.493" r="2.49051" fill="#B3B9C1"/>
<path d="M97.0221 18.8213C97.7557 18.8213 98.3503 18.2266 98.3503 17.493C98.3503 16.7594 97.7555 16.1648 97.022 16.1648L97.0221 18.8213ZM97.8531 1.71918L97.8531 0.39091L97.8531 1.71918ZM97.022 17.4931L97.022 16.1648C95.4468 16.1648 94.4085 15.4532 93.7352 14.3408C93.0235 13.1649 92.7058 11.4921 92.8465 9.71082C92.9865 7.93686 93.5701 6.2115 94.4772 4.96575C95.371 3.73812 96.5121 3.04747 97.8531 3.04746L97.8531 1.71918L97.8531 0.39091C95.4578 0.390926 93.5892 1.67206 92.3296 3.40209C91.0831 5.11399 90.3695 7.33216 90.1982 9.50171C90.0274 11.664 90.3842 13.9346 91.4625 15.7163C92.5793 17.5614 94.4465 18.8214 97.0221 18.8213L97.022 17.4931ZM97.8531 1.71918L97.8531 3.04746C99.6746 3.04744 101.186 4.25206 102.318 6.13813C103.447 8.01996 103.997 10.2758 103.997 11.6808L105.325 11.6808L106.653 11.6808C106.653 9.76485 105.957 7.03991 104.596 4.77115C103.237 2.50664 101.012 0.390888 97.8531 0.39091L97.8531 1.71918Z" fill="#B3B9C1"/>
<circle cx="117.554" cy="17.493" r="2.49051" fill="#B3B9C1"/>
<path d="M117.554 18.8213C118.287 18.8213 118.882 18.2266 118.882 17.493C118.882 16.7594 118.287 16.1648 117.553 16.1648L117.554 18.8213ZM118.385 1.71918L118.385 0.39091L118.385 1.71918ZM117.554 17.4931L117.553 16.1648C115.978 16.1648 114.94 15.4532 114.267 14.3408C113.555 13.1649 113.237 11.4921 113.378 9.71082C113.518 7.93686 114.102 6.2115 115.009 4.96575C115.903 3.73812 117.044 3.04747 118.385 3.04746L118.385 1.71918L118.385 0.39091C115.989 0.390926 114.121 1.67206 112.861 3.40209C111.615 5.11399 110.901 7.33216 110.73 9.50171C110.559 11.664 110.916 13.9346 111.994 15.7163C113.111 17.5614 114.978 18.8214 117.554 18.8213L117.554 17.4931ZM118.385 1.71918L118.385 3.04746C120.206 3.04744 121.717 4.25206 122.849 6.13813C123.979 8.01996 124.528 10.2758 124.528 11.6808L125.857 11.6808L127.185 11.6808C127.185 9.76485 126.489 7.03991 125.127 4.77115C123.768 2.50664 121.544 0.390888 118.385 0.39091L118.385 1.71918Z" fill="#B3B9C1"/>
<circle cx="138.085" cy="17.493" r="2.49051" fill="#B3B9C1"/>
<path d="M138.085 18.8213C138.818 18.8213 139.413 18.2266 139.413 17.493C139.413 16.7594 138.818 16.1648 138.084 16.1648L138.085 18.8213ZM138.916 1.71918L138.916 0.39091L138.916 1.71918ZM138.085 17.4931L138.084 16.1648C136.509 16.1648 135.471 15.4532 134.798 14.3408C134.086 13.1649 133.768 11.4921 133.909 9.71082C134.049 7.93686 134.633 6.2115 135.54 4.96575C136.434 3.73812 137.575 3.04747 138.916 3.04746L138.916 1.71918L138.916 0.39091C136.52 0.390926 134.652 1.67206 133.392 3.40209C132.146 5.11399 131.432 7.33216 131.261 9.50171C131.09 11.664 131.447 13.9346 132.525 15.7163C133.642 17.5614 135.509 18.8214 138.085 18.8213L138.085 17.4931ZM138.916 1.71918L138.916 3.04746C140.737 3.04744 142.248 4.25206 143.38 6.13813C144.51 8.01996 145.059 10.2758 145.059 11.6808L146.388 11.6808L147.716 11.6808C147.716 9.76485 147.02 7.03991 145.658 4.77115C144.299 2.50664 142.075 0.390888 138.916 0.39091L138.916 1.71918Z" fill="#B3B9C1"/>
<path d="M48.9323 28.9349C49.1471 28.2183 49.8066 27.7275 50.5546 27.7275H135.166C136.317 27.7275 137.133 28.8512 136.777 29.9457L117.15 90.1829C116.923 90.88 116.273 91.3518 115.54 91.3518H32.5002C31.3659 91.3518 30.5523 90.2586 30.8779 89.1721L48.9323 28.9349Z" fill="#F6F6F7"/>
<path d="M48.9337 28.9373C49.1476 28.2195 49.8077 27.7275 50.5566 27.7275H135.164C136.316 27.7275 137.132 28.8525 136.774 29.9473L133.863 38.8518H45.978L48.9337 28.9373Z" fill="#D3D7DB"/>
<path d="M181.706 98.2254C181.706 85.5237 177.082 24.8662 184.153 15.1631" stroke="#D3D7DB" stroke-width="1.86784" stroke-linecap="square"/>
<path d="M182.596 98.5087L182.312 99.3987L180.532 98.8323L180.816 97.9423L182.596 98.5087ZM164.541 28.6541C164.062 28.4622 163.83 27.9185 164.022 27.4397C164.214 26.961 164.757 26.7284 165.236 26.9203L164.541 28.6541ZM181.706 98.2255L180.816 97.9423C182.253 93.4254 182.854 87.1764 182.695 80.2034C182.537 73.2449 181.624 65.6286 180.074 58.4077C178.523 51.182 176.342 44.3875 173.666 39.0578C170.967 33.6852 167.856 29.9826 164.541 28.6541L164.889 27.7872L165.236 26.9203C169.211 28.5135 172.587 32.7479 175.335 38.2195C178.104 43.734 180.328 50.691 181.9 58.0158C183.473 65.3454 184.401 73.0787 184.562 80.1609C184.723 87.2285 184.122 93.7111 182.596 98.5087L181.706 98.2255Z" fill="#D3D7DB"/>
<path d="M192.883 6.79431C194.467 7.62802 195.101 9.57309 194.352 11.183L185.292 13.9964L188.339 8.20534C188.355 8.17556 188.389 8.12733 188.391 8.12487L191.34 9.67428L188.397 8.12377C189.284 6.55037 191.278 5.94995 192.883 6.79431Z" fill="#D3D7DB"/>
<path d="M195.566 15.6508C196.399 14.0664 195.82 12.1045 194.291 11.2016L185.231 14.0153L191.022 17.0619C191.052 17.0774 191.107 17.0976 191.11 17.0989L192.871 13.7564L191.116 17.0972C192.737 17.8916 194.721 17.2559 195.566 15.6508Z" fill="#E2E4E7"/>
<path d="M173.831 12.711C172.997 14.2955 173.577 16.2574 175.105 17.1602L184.166 14.3465L178.375 11.3C178.345 11.2846 178.291 11.2646 178.286 11.263L176.734 14.2094L178.281 11.2656C176.66 10.4711 174.675 11.106 173.831 12.711Z" fill="#D3D7DB"/>
<path d="M176.637 21.5292C175.053 20.6955 174.419 18.7502 175.168 17.1405L184.227 14.3271L181.181 20.1182C181.165 20.1473 181.132 20.1934 181.129 20.1977L178.161 18.6405L181.122 20.1997C180.236 21.7729 178.242 22.3734 176.637 21.5292Z" fill="#E2E4E7"/>
<path d="M192.117 22.3312C191.283 23.9158 189.338 24.5482 187.728 23.7995L184.915 14.7409L190.706 17.7875C190.736 17.8032 190.783 17.8376 190.785 17.8394L189.028 21.1839L190.787 17.845C192.361 18.7314 192.961 20.726 192.117 22.3312Z" fill="#D3D7DB"/>
<path d="M183.26 25.0144C184.845 25.8479 186.806 25.2678 187.709 23.7392L184.896 14.6797L181.849 20.4707C181.834 20.4995 181.815 20.5527 181.813 20.5586L184.778 22.1216L181.815 20.5642C181.02 22.1858 181.655 24.1699 183.26 25.0144Z" fill="#E2E4E7"/>
<path d="M186.2 3.27834C184.615 2.44513 182.653 3.0252 181.751 4.55358L184.564 13.6131L187.611 7.8221C187.626 7.793 187.645 7.7393 187.647 7.7342L184.682 6.17118L187.645 7.7286C188.44 6.10695 187.805 4.12286 186.2 3.27834Z" fill="#D3D7DB"/>
<path d="M177.382 6.08453C178.215 4.50014 180.16 3.86646 181.77 4.61438L184.584 13.6748L178.793 10.6283C178.763 10.6125 178.714 10.5777 178.712 10.5766L180.262 7.62695L178.711 10.5698C177.138 9.68346 176.537 7.68966 177.382 6.08453Z" fill="#E2E4E7"/>
<circle cx="184.895" cy="13.9331" r="1.69355" transform="rotate(72.7481 184.895 13.9331)" fill="#E2E4E7"/>
<path d="M172.792 20.3283C174.376 21.1619 175.009 23.1072 174.261 24.7169L165.202 27.5303L168.248 21.7393C168.264 21.7087 168.3 21.6588 168.3 21.6588L170.774 22.9572L168.306 21.658C169.192 20.0849 171.187 19.4839 172.792 20.3283Z" fill="#D3D7DB"/>
<path d="M175.475 29.185C176.308 27.6007 175.728 25.6387 174.2 24.7358L165.14 27.5494L170.931 30.596C170.96 30.6113 171.014 30.6303 171.019 30.6321L172.571 27.6856L171.024 30.6304C172.646 31.4247 174.63 30.79 175.475 29.185Z" fill="#E2E4E7"/>
<path d="M153.74 26.2448C152.906 27.8295 153.486 29.791 155.015 30.6937L164.075 27.8803L158.284 24.8337C158.255 24.8189 158.203 24.8004 158.196 24.7976L156.643 27.7453L158.19 24.7994C156.569 24.0048 154.584 24.6397 153.74 26.2448Z" fill="#D3D7DB"/>
<path d="M156.545 35.0632C154.961 34.2294 154.328 32.2842 155.076 30.6745L164.136 27.8611L161.089 33.6522C161.073 33.6827 161.037 33.7326 161.037 33.7326L158.088 32.1832L161.03 33.7337C160.144 35.3071 158.15 35.9076 156.545 35.0632Z" fill="#E2E4E7"/>
<path d="M172.025 35.8655C171.191 37.4499 169.246 38.0824 167.636 37.3338L164.823 28.2752L170.614 31.3217C170.644 31.3377 170.692 31.3728 170.694 31.3737L168.937 34.7182L170.695 31.3793C172.269 32.2656 172.87 34.2603 172.025 35.8655Z" fill="#D3D7DB"/>
<path d="M163.168 38.5475C164.753 39.3812 166.715 38.8009 167.617 37.2723L164.804 28.2137L161.757 34.0038C161.742 34.0334 161.722 34.0884 161.72 34.092L164.668 35.6451L161.722 34.0985C160.928 35.72 161.564 37.7032 163.168 38.5475Z" fill="#E2E4E7"/>
<path d="M166.109 16.812C164.524 15.9786 162.562 16.5581 161.659 18.0863L164.473 27.1458L167.52 21.3558C167.535 21.3257 167.556 21.2693 167.557 21.2676L164.609 19.7145L167.554 21.2613C168.348 19.6397 167.714 17.6565 166.109 16.812Z" fill="#D3D7DB"/>
<path d="M157.29 19.6193C158.124 18.0343 160.069 17.4019 161.679 18.151L164.492 27.2096L158.701 24.163C158.673 24.1479 158.627 24.1151 158.622 24.111L160.379 20.7666L158.62 24.1054C157.047 23.2191 156.446 21.2245 157.29 19.6193Z" fill="#E2E4E7"/>
<circle cx="164.572" cy="27.4809" r="1.69355" transform="rotate(72.7481 164.572 27.4809)" fill="#E2E4E7"/>
<path opacity="0.85" d="M175.863 50.8062H186.024L192.01 88.5763C192.685 92.8309 190.587 97.0451 186.786 99.0723H180.435H174.085C170.3 97.054 168.252 92.8231 169.017 88.6028L175.863 50.8062Z" fill="#F6F6F7"/>
<rect x="0.919434" y="99.0728" width="220.161" height="5.92742" rx="1.69355" fill="url(#paint0_linear_2853_3915)"/>
<defs>
<linearGradient id="paint0_linear_2853_3915" x1="0.919434" y1="102.036" x2="221.081" y2="102.036" gradientUnits="userSpaceOnUse">
<stop stop-color="#B3B9C1"/>
<stop offset="1" stop-color="#F0F1F3"/>
</linearGradient>
</defs>
</svg>
