<svg width="317" height="192" viewBox="0 0 317 192" fill="none" xmlns="http://www.w3.org/2000/svg">
<rect y="32" width="317" height="160" rx="13.7453" fill="url(#paint0_linear_1671_3818)"/>
<mask id="mask0_1671_3818" style="mask-type:alpha" maskUnits="userSpaceOnUse" x="0" y="32" width="317" height="160">
<rect y="32" width="317" height="160" rx="13.7453" fill="#B2E1FF"/>
</mask>
<g mask="url(#mask0_1671_3818)">
<path d="M-48.5 147L34.367 74.7367L62.287 104.804L115.12 158.067L34.367 241L-48.5 147Z" fill="url(#paint1_linear_1671_3818)"/>
</g>
<path d="M62.8917 173.954L62.114 104.56L246.682 52.4039L62.8917 173.954Z" fill="#D9D9D9"/>
<path d="M34.363 74.6431L246.683 52.4038L62.1143 104.56L34.363 74.6431Z" fill="white"/>
<path d="M62.8919 173.954L69.8444 112.388L104.378 146.902L62.8919 173.954Z" fill="url(#paint2_linear_1671_3818)"/>
<path d="M115.237 158.164L246.683 52.4039L69.4173 112.433L115.237 158.164Z" fill="white"/>
<path d="M175.682 91.063L173.175 103.637L164.167 102.591L165.802 89.7739L175.682 91.063Z" fill="url(#paint3_linear_1671_3818)"/>
<path d="M173.593 99.3952L170.864 100.034L170.006 103.991L175.016 105.072C176.282 105.346 177.168 103.908 176.361 102.89L173.593 99.3952Z" fill="#FFDBDD"/>
<path d="M124.136 99.4425L120.956 111.832L120.954 111.831L120.955 111.832L105.601 114.075C104.32 114.262 103.532 112.768 104.406 111.806L113.878 101.38L113.907 101.389L114.687 97.7242L124.136 99.4425Z" fill="url(#paint4_linear_1671_3818)"/>
<path d="M121.659 107.628L118.893 108.081L117.77 111.972L122.695 113.388C123.94 113.746 124.921 112.372 124.185 111.301L121.659 107.628Z" fill="#FFDBDD"/>
<path d="M194.304 78.0317L206.857 71.3044L247.476 118.084L237.118 127.061L194.304 78.0317Z" fill="url(#paint5_linear_1671_3818)"/>
<path d="M213.376 87.4345C217.887 91.9196 219.551 98.5301 217.7 104.616L210.877 127.061L198.447 122.918L204.901 103.48C205.27 102.371 204.9 101.15 203.979 100.431L189.818 89.3882C187.665 87.7097 186.266 85.246 185.928 82.5375L185.597 79.8945L198.447 72.5923L213.376 87.4345Z" fill="url(#paint6_linear_1671_3818)"/>
<path d="M162.599 61.2L188.598 72.8937L192.155 63.6967L167.648 51.5452L162.599 61.2Z" fill="url(#paint7_linear_1671_3818)"/>
<path d="M179.691 64.6147L175.681 91.062L165.802 89.7739L168.845 63.5718L179.691 64.6147Z" fill="url(#paint8_linear_1671_3818)"/>
<path d="M176.121 96.6172C182.308 102.29 185.344 110.621 184.259 118.944L182.126 135.305L168.81 134.446L169.495 116.613C169.604 113.793 168.319 111.1 166.061 109.408L151.916 98.8125L144.086 114.686C142.886 117.119 142.905 119.977 144.139 122.394L152.487 138.741L139.171 144.755L130.316 127.33C127.443 121.678 126.755 115.165 128.383 109.037L133.157 91.0625L139.871 89.7891L139.151 89.249L160.556 82.3438L176.121 96.6172Z" fill="#0F3053"/>
<path d="M131.236 74.6023L124.137 99.6536L114.687 97.9346L120.545 72.5L131.236 74.6023Z" fill="url(#paint9_linear_1671_3818)"/>
<path d="M166 87.5C166 87.5 156.798 88.3565 151 89.5C143.381 91.0027 131.869 94.9281 131.869 94.9281L129.721 68.7263L130.58 79.207L119.842 75.5989L121.005 68.0337C122.411 58.8988 128.6 51.2158 137.226 47.898L140.03 46.8197L149.23 45.9221C154.694 45.389 160.186 46.6147 164.905 49.4204L173.534 54.5514L163.655 71.733L164.514 66.673L166 87.5Z" fill="black"/>
<path d="M166 87.5C166 87.5 156.798 88.3565 151 89.5C143.381 91.0027 131.869 94.9281 131.869 94.9281L129.721 68.7263L130.58 79.207L119.842 75.5989L121.005 68.0337C122.411 58.8988 128.6 51.2158 137.226 47.898L140.03 46.8197L149.23 45.9221C154.694 45.389 160.186 46.6147 164.905 49.4204L173.534 54.5514L163.655 71.733L164.514 66.673L166 87.5Z" fill="#241919" fill-opacity="0.2"/>
<path d="M208.278 72.6267L185.597 79.8945V70.0151L180.752 57.757L179.583 65.2902L168.845 64.0016L170.231 54.3005C171.208 47.4628 176.29 41.93 183.02 40.3769L190.322 38.6587L194.188 37.3701L202.177 48.0227C202.846 48.9149 203.208 50.0001 203.208 51.1154V56.9025C203.208 57.4683 203.301 58.0303 203.484 58.5659L208.278 72.6267Z" fill="url(#paint10_linear_1671_3818)"/>
<path d="M191.611 38.2101L193.244 37.6419C197.446 36.1804 201.908 39.0351 202.342 43.4624L203.638 56.6802L194.783 58.5285L191.611 38.2101Z" fill="#FFC8E8"/>
<path d="M198.447 122.917L210.877 127.061L208.537 133.405C208.092 134.611 208.233 135.955 208.917 137.043L214.703 146.249C215.44 147.422 214.182 148.83 212.934 148.228L194.872 139.521C193.583 138.899 192.982 137.396 193.487 136.057L198.447 122.917Z" fill="url(#paint11_linear_1671_3818)"/>
<path d="M237.117 127.061L247.476 118.084L251.557 123.227C252.38 124.264 253.651 124.846 254.975 124.791L265.768 124.341C267.153 124.284 267.75 126.075 266.607 126.86L250.035 138.247C248.875 139.044 247.302 138.842 246.381 137.777L237.117 127.061Z" fill="url(#paint12_linear_1671_3818)"/>
<path d="M181.348 35.2734L187.94 32.5744L190.022 37.6578C190.43 38.6543 190.697 39.7877 190.106 40.6875C189.723 41.2692 189.067 41.904 187.94 42.3692C186.76 42.8567 185.747 42.7613 184.981 42.4996C183.833 42.1075 183.222 40.9545 182.842 39.8026L181.348 35.2734Z" fill="url(#paint13_linear_1671_3818)"/>
<path d="M184.11 0.106821C192.397 -0.571523 200.626 1.8491 211.041 11.1677C214.128 13.9299 222.126 17.3522 226.924 13.2394C231.758 9.09608 232.863 6.19584 240.044 8.40559C237.973 8.86596 236.937 9.09614 235.901 11.1677C233.829 15.3109 229.686 25.4961 220.709 27.7409C215.185 29.122 207.589 24.9787 200.683 29.8125C200.172 30.1703 199.684 30.4663 199.221 30.7121C194.677 34.3819 188.374 36.7059 182.729 36.7059C172.432 36.7059 164.084 28.9766 164.084 19.4422C164.084 9.90784 173.752 0.954746 184.11 0.106821Z" fill="url(#paint14_linear_1671_3818)"/>
<ellipse cx="197.497" cy="22.8138" rx="4.42961" ry="5.31554" transform="rotate(29.7197 197.497 22.8138)" fill="url(#paint15_linear_1671_3818)"/>
<ellipse cx="182.729" cy="22.9069" rx="13.811" ry="15.1921" fill="url(#paint16_linear_1671_3818)"/>
<circle cx="184.636" cy="23.4783" r="1.3811" fill="#241919"/>
<circle cx="174.968" cy="24.8596" r="1.3811" fill="#241919"/>
<path d="M202.755 19.4541L200.459 18.4709C199.057 17.8703 197.434 18.519 196.833 19.9208C196.833 19.9208 196.142 21.4068 195.685 22.0973C195.228 22.7879 193.538 20.8073 192.923 20.7162C189.144 20.1574 178.421 18.6446 174.968 13.8107C170.825 18.4709 169.74 21.3192 168.228 26.3596L168.918 9.09592L184.801 6.33373C184.622 6.57504 184.428 6.81998 184.223 7.07149L186.872 4.95264L202.755 19.4541Z" fill="#241919"/>
<path d="M169.06 133.666L182.112 134.811L181.309 141.525C181.156 142.801 181.605 144.076 182.523 144.976L190.287 152.587C191.277 153.558 190.38 155.219 189.026 154.923L169.436 150.646C168.038 150.34 167.105 149.018 167.286 147.598L169.06 133.666Z" fill="url(#paint17_linear_1671_3818)"/>
<path d="M152.356 138.657L139.171 144.755L142.762 150.884C143.402 151.975 143.508 153.299 143.05 154.478L138.992 164.93C138.5 166.198 139.945 167.339 141.064 166.566L158.887 154.259C160.096 153.425 160.439 151.79 159.669 150.539L152.356 138.657Z" fill="url(#paint18_linear_1671_3818)"/>
<path d="M135.414 43.8928L142.145 41.5597L143.944 46.7497C144.296 47.767 144.501 48.9134 143.862 49.7794C143.448 50.3393 142.758 50.9371 141.607 51.3398C140.402 51.7617 139.396 51.6109 138.645 51.3076C137.521 50.853 136.974 49.6683 136.658 48.4972L135.414 43.8928Z" fill="url(#paint19_linear_1671_3818)"/>
<ellipse cx="4.42961" cy="5.31554" rx="4.42961" ry="5.31554" transform="matrix(-0.579387 0.815053 0.815053 0.579387 121.239 31.3701)" fill="url(#paint20_linear_1671_3818)"/>
<ellipse cx="13.811" cy="15.1921" rx="13.811" ry="15.1921" transform="matrix(-0.907243 0.420607 0.420607 0.907243 142.583 12.3408)" fill="url(#paint21_linear_1671_3818)"/>
<circle cx="1.3811" cy="1.3811" r="1.3811" transform="matrix(-0.907243 0.420607 0.420607 0.907243 137.523 31.6802)" fill="#241919"/>
<circle cx="1.3811" cy="1.3811" r="1.3811" transform="matrix(-0.907243 0.420607 0.420607 0.907243 146.356 28.6821)" fill="#241919"/>
<path d="M144.911 21.4059L132.546 25.4266C129.59 26.3878 127.421 28.9223 126.927 31.9911L126.214 36.4263C126.05 37.4462 124.865 37.9316 124.033 37.3202L119.73 34.16L119.429 30.7054C119.083 26.72 120.481 22.7801 123.263 19.905L124.466 18.6615C126.995 16.0474 130.453 14.5366 134.09 14.4571L146.078 14.1951C146.304 14.1902 146.529 14.1575 146.747 14.0979L148.654 13.5763C149.581 13.3226 150.462 14.1095 150.315 15.0598C149.853 18.0245 147.764 20.4781 144.911 21.4059Z" fill="url(#paint22_linear_1671_3818)"/>
<rect x="17" y="5" width="46" height="19" rx="9.5" fill="#CFEDFF"/>
<path d="M28.0859 18H25.5957V10.9297H28.1152C30.2441 10.9297 31.543 12.2578 31.543 14.4551C31.543 16.6719 30.2441 18 28.0859 18ZM27.0605 16.7402H28.0273C29.375 16.7402 30.0781 16.0371 30.0781 14.4551C30.0781 12.8828 29.375 12.1895 28.0371 12.1895H27.0605V16.7402ZM35.8691 13.8887V15.041H32.6465V13.8887H35.8691ZM40.1074 10.9297V18H38.6328V12.3262H38.5938L36.9727 13.3418V12.043L38.7207 10.9297H40.1074ZM44.4922 18.0977C42.7246 18.0977 41.6504 16.7793 41.6504 14.4648C41.6504 12.1504 42.7246 10.832 44.4922 10.832C46.2598 10.832 47.334 12.1602 47.334 14.4648C47.334 16.7891 46.2598 18.0977 44.4922 18.0977ZM44.4922 16.8867C45.3125 16.8867 45.8398 16.0957 45.8301 14.4648C45.8301 12.8535 45.3125 12.0332 44.4922 12.0332C43.6719 12.0332 43.1543 12.8535 43.1543 14.4648C43.1445 16.0957 43.6719 16.8867 44.4922 16.8867ZM51.0938 18.0977C49.3262 18.0977 48.252 16.7793 48.252 14.4648C48.252 12.1504 49.3262 10.832 51.0938 10.832C52.8613 10.832 53.9355 12.1602 53.9355 14.4648C53.9355 16.7891 52.8613 18.0977 51.0938 18.0977ZM51.0938 16.8867C51.9141 16.8867 52.4414 16.0957 52.4316 14.4648C52.4316 12.8535 51.9141 12.0332 51.0938 12.0332C50.2734 12.0332 49.7559 12.8535 49.7559 14.4648C49.7461 16.0957 50.2734 16.8867 51.0938 16.8867Z" fill="#0095F4"/>
<rect x="229" y="161" width="47" height="19" rx="9.5" fill="#CFEDFF"/>
<path d="M240.086 174H237.596V166.93H240.115C242.244 166.93 243.543 168.258 243.543 170.455C243.543 172.672 242.244 174 240.086 174ZM239.061 172.74H240.027C241.375 172.74 242.078 172.037 242.078 170.455C242.078 168.883 241.375 168.189 240.037 168.189H239.061V172.74ZM247.869 169.889V171.041H244.646V169.889H247.869ZM251.629 174.098C250.076 174.098 248.963 173.238 248.934 172.008H250.418C250.447 172.535 250.955 172.887 251.639 172.887C252.342 172.887 252.85 172.486 252.84 171.92C252.85 171.344 252.332 170.934 251.502 170.934H250.848V169.85H251.502C252.195 169.85 252.684 169.469 252.684 168.912C252.684 168.375 252.273 168.004 251.648 168.004C251.023 168.004 250.506 168.355 250.486 168.893H249.08C249.1 167.672 250.203 166.832 251.648 166.832C253.123 166.832 254.109 167.701 254.1 168.824C254.109 169.615 253.553 170.182 252.762 170.318V170.377C253.797 170.504 254.373 171.139 254.363 172.018C254.373 173.229 253.221 174.098 251.629 174.098ZM258.133 174.098C256.668 174.088 255.281 173.219 255.281 170.631C255.281 168.248 256.424 166.832 258.191 166.832C259.617 166.832 260.584 167.73 260.73 168.893H259.285C259.168 168.395 258.758 168.092 258.191 168.092C257.234 168.092 256.727 168.961 256.717 170.348H256.785C257.107 169.723 257.811 169.352 258.592 169.352C259.861 169.352 260.809 170.309 260.809 171.637C260.809 173.072 259.725 174.107 258.133 174.098ZM258.123 172.936C258.846 172.936 259.383 172.389 259.383 171.676C259.383 170.973 258.865 170.416 258.143 170.416C257.42 170.416 256.873 170.982 256.863 171.676C256.873 172.369 257.4 172.936 258.123 172.936ZM264.422 174.098C262.947 174.098 261.873 173.229 261.844 172.008H263.27C263.299 172.564 263.807 172.936 264.422 172.936C265.154 172.936 265.672 172.418 265.672 171.686C265.672 170.934 265.145 170.416 264.402 170.406C263.875 170.406 263.504 170.602 263.289 171.002H261.961L262.342 166.93H266.697V168.131H263.553L263.357 169.918H263.416C263.68 169.566 264.207 169.322 264.832 169.322C266.131 169.322 267.098 170.289 267.098 171.646C267.098 173.072 266.014 174.098 264.422 174.098Z" fill="#0095F4"/>
<rect x="263" y="137" width="41" height="19" rx="9.5" fill="#CFEDFF"/>
<path d="M274.086 150H271.596V142.93H274.115C276.244 142.93 277.543 144.258 277.543 146.455C277.543 148.672 276.244 150 274.086 150ZM273.061 148.74H274.027C275.375 148.74 276.078 148.037 276.078 146.455C276.078 144.883 275.375 144.189 274.037 144.189H273.061V148.74ZM281.869 145.889V147.041H278.646V145.889H281.869Z" fill="#0095F4"/>
<path d="M284.637 145.054C284.519 144.349 284.834 143.642 285.437 143.258L286.459 142.608C286.687 142.463 286.991 142.553 287.103 142.799L289.117 147.23L289.342 147.53C289.626 147.908 290.048 148.158 290.515 148.225L290.815 148.267C291.166 148.318 291.509 148.409 291.839 148.541L292.706 148.888C293.272 149.115 293.773 149.479 294.164 149.947C294.379 150.205 294.209 150.597 293.874 150.616L292.283 150.71C291.363 150.764 290.44 150.708 289.533 150.543L289.267 150.495C288.766 150.404 288.361 150.037 288.221 149.548L287.785 148.02C287.636 147.498 287.392 147.007 287.066 146.572L286.891 146.34C286.589 145.886 285.884 146.057 285.824 146.599L285.778 147.007V150.569C285.778 150.692 285.679 150.791 285.556 150.791H285.333C285.21 150.791 285.111 150.692 285.111 150.569V147.446C285.111 147.155 285.075 146.865 285.004 146.582L284.665 145.227L284.637 145.054Z" fill="#FF80CA"/>
<path d="M289.248 147.13C289.396 146.577 289.964 146.249 290.517 146.398L290.551 146.296C290.737 145.805 291.269 145.527 291.787 145.665C292.339 145.814 292.666 146.381 292.518 146.934L292.62 146.967C293.11 147.154 293.39 147.686 293.251 148.204C293.102 148.757 292.534 149.085 291.981 148.937L291.949 149.037C291.762 149.528 291.23 149.807 290.712 149.668C290.194 149.529 289.873 149.021 289.957 148.503L289.98 148.399L289.878 148.366C289.388 148.179 289.109 147.648 289.248 147.13ZM291.121 147.348C290.935 147.455 290.871 147.692 290.978 147.878C291.085 148.064 291.323 148.128 291.509 148.02C291.695 147.913 291.759 147.676 291.652 147.49C291.544 147.304 291.307 147.241 291.121 147.348Z" fill="#FF42B0"/>
<rect x="46" y="27" width="52" height="19" rx="9.5" fill="#CFEDFF"/>
<path d="M57.0859 40H54.5957V32.9297H57.1152C59.2441 32.9297 60.543 34.2578 60.543 36.4551C60.543 38.6719 59.2441 40 57.0859 40ZM56.0605 38.7402H57.0273C58.375 38.7402 59.0781 38.0371 59.0781 36.4551C59.0781 34.8828 58.375 34.1895 57.0371 34.1895H56.0605V38.7402ZM64.8691 35.8887V37.041H61.6465V35.8887H64.8691ZM69.1074 32.9297V40H67.6328V34.3262H67.5938L65.9727 35.3418V34.043L67.7207 32.9297H69.1074ZM73.4922 40.0977C71.7246 40.0977 70.6504 38.7793 70.6504 36.4648C70.6504 34.1504 71.7246 32.832 73.4922 32.832C75.2598 32.832 76.334 34.1602 76.334 36.4648C76.334 38.7891 75.2598 40.0977 73.4922 40.0977ZM73.4922 38.8867C74.3125 38.8867 74.8398 38.0957 74.8301 36.4648C74.8301 34.8535 74.3125 34.0332 73.4922 34.0332C72.6719 34.0332 72.1543 34.8535 72.1543 36.4648C72.1445 38.0957 72.6719 38.8867 73.4922 38.8867ZM80.0938 40.0977C78.3262 40.0977 77.252 38.7793 77.252 36.4648C77.252 34.1504 78.3262 32.832 80.0938 32.832C81.8613 32.832 82.9355 34.1602 82.9355 36.4648C82.9355 38.7891 81.8613 40.0977 80.0938 40.0977ZM80.0938 38.8867C80.9141 38.8867 81.4414 38.0957 81.4316 36.4648C81.4316 34.8535 80.9141 34.0332 80.0938 34.0332C79.2734 34.0332 78.7559 34.8535 78.7559 36.4648C78.7461 38.0957 79.2734 38.8867 80.0938 38.8867ZM86.6953 40.0977C84.9277 40.0977 83.8535 38.7793 83.8535 36.4648C83.8535 34.1504 84.9277 32.832 86.6953 32.832C88.4629 32.832 89.5371 34.1602 89.5371 36.4648C89.5371 38.7891 88.4629 40.0977 86.6953 40.0977ZM86.6953 38.8867C87.5156 38.8867 88.043 38.0957 88.0332 36.4648C88.0332 34.8535 87.5156 34.0332 86.6953 34.0332C85.875 34.0332 85.3574 34.8535 85.3574 36.4648C85.3477 38.0957 85.875 38.8867 86.6953 38.8867Z" fill="#0095F4"/>
<defs>
<linearGradient id="paint0_linear_1671_3818" x1="158.5" y1="32" x2="158.5" y2="192" gradientUnits="userSpaceOnUse">
<stop stop-color="#E4F4FF"/>
<stop offset="1" stop-color="#B2E1FF"/>
</linearGradient>
<linearGradient id="paint1_linear_1671_3818" x1="97.2544" y1="100.314" x2="-95.5307" y2="398.064" gradientUnits="userSpaceOnUse">
<stop stop-color="white" stop-opacity="0.6"/>
<stop offset="1" stop-color="white" stop-opacity="0"/>
</linearGradient>
<linearGradient id="paint2_linear_1671_3818" x1="78.5078" y1="111.48" x2="84.8111" y2="171.658" gradientUnits="userSpaceOnUse">
<stop/>
<stop offset="1" stop-color="#0095F4"/>
</linearGradient>
<linearGradient id="paint3_linear_1671_3818" x1="172.371" y1="98.8366" x2="163.6" y2="98.7794" gradientUnits="userSpaceOnUse">
<stop stop-color="#FFDBDD"/>
<stop offset="1" stop-color="#FFB3B7"/>
</linearGradient>
<linearGradient id="paint4_linear_1671_3818" x1="117.965" y1="109.058" x2="103.411" y2="107.944" gradientUnits="userSpaceOnUse">
<stop stop-color="#FFDBDD"/>
<stop offset="1" stop-color="#FFB3B7"/>
</linearGradient>
<linearGradient id="paint5_linear_1671_3818" x1="218.736" y1="100.015" x2="251.166" y2="81.6489" gradientUnits="userSpaceOnUse">
<stop stop-color="#1D4388"/>
<stop offset="1" stop-color="#071122"/>
</linearGradient>
<linearGradient id="paint6_linear_1671_3818" x1="220.017" y1="94.7242" x2="175.132" y2="111.297" gradientUnits="userSpaceOnUse">
<stop stop-color="#365FA9"/>
<stop offset="1" stop-color="#071122"/>
</linearGradient>
<linearGradient id="paint7_linear_1671_3818" x1="171.296" y1="80.3907" x2="177.864" y2="73.1231" gradientUnits="userSpaceOnUse">
<stop stop-color="#FFDBDD"/>
<stop offset="1" stop-color="#FFCACD"/>
</linearGradient>
<linearGradient id="paint8_linear_1671_3818" x1="175.972" y1="78.9664" x2="166.961" y2="75.9736" gradientUnits="userSpaceOnUse">
<stop stop-color="#FFDBDD"/>
<stop offset="1" stop-color="#FFCACD"/>
</linearGradient>
<linearGradient id="paint9_linear_1671_3818" x1="126.094" y1="88.0549" x2="117.348" y2="83.9958" gradientUnits="userSpaceOnUse">
<stop stop-color="#FFDBDD"/>
<stop offset="1" stop-color="#FFCACD"/>
</linearGradient>
<linearGradient id="paint10_linear_1671_3818" x1="207.589" y1="62.9591" x2="177.205" y2="78.1511" gradientUnits="userSpaceOnUse">
<stop stop-color="#FFD3ED"/>
<stop offset="1" stop-color="#FF8FD1"/>
</linearGradient>
<linearGradient id="paint11_linear_1671_3818" x1="207.85" y1="134.016" x2="201.407" y2="157.211" gradientUnits="userSpaceOnUse">
<stop stop-color="#241919"/>
<stop offset="1" stop-color="#B2E1FF"/>
</linearGradient>
<linearGradient id="paint12_linear_1671_3818" x1="249.623" y1="125.64" x2="270.563" y2="153.56" gradientUnits="userSpaceOnUse">
<stop stop-color="#241919"/>
<stop offset="1" stop-color="#B2E1FF"/>
</linearGradient>
<linearGradient id="paint13_linear_1671_3818" x1="188.58" y1="42.1072" x2="186.222" y2="33.5558" gradientUnits="userSpaceOnUse">
<stop stop-color="#FFDBDD"/>
<stop offset="1" stop-color="#FFB7BB"/>
</linearGradient>
<linearGradient id="paint14_linear_1671_3818" x1="215.185" y1="21.526" x2="223.471" y2="40.1708" gradientUnits="userSpaceOnUse">
<stop stop-color="#241919"/>
<stop offset="1" stop-color="#8FD4FF"/>
</linearGradient>
<linearGradient id="paint15_linear_1671_3818" x1="197.054" y1="28.1293" x2="196.253" y2="17.6268" gradientUnits="userSpaceOnUse">
<stop stop-color="#FFDBDD"/>
<stop offset="1" stop-color="#FFC9CC"/>
</linearGradient>
<linearGradient id="paint16_linear_1671_3818" x1="182.729" y1="7.71484" x2="182.729" y2="38.0989" gradientUnits="userSpaceOnUse">
<stop stop-color="#FFBEC1"/>
<stop offset="1" stop-color="#FFDBDD"/>
</linearGradient>
<linearGradient id="paint17_linear_1671_3818" x1="182.49" y1="143.218" x2="180.104" y2="160.038" gradientUnits="userSpaceOnUse">
<stop/>
<stop offset="1" stop-color="#B2E1FF"/>
</linearGradient>
<linearGradient id="paint18_linear_1671_3818" x1="138.756" y1="145.367" x2="157.834" y2="176.686" gradientUnits="userSpaceOnUse">
<stop stop-color="#241919"/>
<stop offset="1" stop-color="#B2E1FF"/>
</linearGradient>
<linearGradient id="paint19_linear_1671_3818" x1="142.26" y1="51.1133" x2="140.375" y2="42.4453" gradientUnits="userSpaceOnUse">
<stop stop-color="#FFDBDD"/>
<stop offset="1" stop-color="#FFB7BB"/>
</linearGradient>
<linearGradient id="paint20_linear_1671_3818" x1="3.98704" y1="10.6311" x2="3.18616" y2="0.128569" gradientUnits="userSpaceOnUse">
<stop stop-color="#FFDBDD"/>
<stop offset="1" stop-color="#FFC9CC"/>
</linearGradient>
<linearGradient id="paint21_linear_1671_3818" x1="13.811" y1="0" x2="13.811" y2="30.3841" gradientUnits="userSpaceOnUse">
<stop stop-color="#FFBEC1"/>
<stop offset="1" stop-color="#FFDBDD"/>
</linearGradient>
<linearGradient id="paint22_linear_1671_3818" x1="138.325" y1="24.9544" x2="106.825" y2="-8.50342" gradientUnits="userSpaceOnUse">
<stop stop-color="#241919"/>
<stop offset="1" stop-color="#B2E1FF"/>
</linearGradient>
</defs>
</svg>
