<svg width="24" height="24" viewBox="0 0 24 24" fill="none" xmlns="http://www.w3.org/2000/svg">
<path d="M21 17.0034H3C3.51861 16.6643 3.96317 16.2236 4.3069 15.708C4.65063 15.1924 4.8864 14.6126 5 14.0034C5.53 9.33342 5.59 2.00342 12 2.00342C18.41 2.00342 18.47 9.33342 19 14.0034C19.1136 14.6126 19.3494 15.1924 19.6931 15.708C20.0368 16.2236 20.4814 16.6643 21 17.0034Z" stroke="white" stroke-width="2" stroke-linecap="round" stroke-linejoin="round"/>
<path d="M15.4601 20.0034C15.1084 20.6096 14.6037 21.1127 13.9965 21.4625C13.3893 21.8122 12.7008 21.9963 12 21.9963C11.2993 21.9963 10.6108 21.8122 10.0036 21.4625C9.39635 21.1127 8.89166 20.6096 8.54004 20.0034" stroke="white" stroke-width="2" stroke-miterlimit="10" stroke-linecap="round"/>
</svg>
