<svg width="249" height="347" viewBox="0 0 249 347" fill="none" xmlns="http://www.w3.org/2000/svg">
<path d="M4.10887e-06 298.5C1.83961e-06 311.479 10.5213 322 23.5 322L249 322L249 275L23.5 275C10.5213 275 6.37814e-06 285.521 4.10887e-06 298.5Z" fill="url(#paint0_linear_1823_6979)"/>
<path d="M131 250.5C131 258.508 137.492 265 145.5 265L191.5 265C199.508 265 206 258.508 206 250.5C206 242.492 199.508 236 191.5 236L145.5 236C137.492 236 131 242.492 131 250.5Z" fill="url(#paint1_linear_1823_6979)"/>
<path d="M42.2052 286.25L41.7716 283.54C41.2699 280.404 41.7639 277.19 43.1842 274.349C43.7158 273.286 44.4227 272.32 45.2751 271.491L59.351 257.806L72.9267 245.886C75.5013 243.625 77.478 240.764 78.681 237.555C79.1656 236.263 79.7531 235.012 80.4379 233.814L81.8939 231.265C82.4426 230.305 82.2807 229.097 81.4988 228.315C79.2886 226.105 77.6782 223.368 76.8195 220.362L74.9901 213.959C74.8456 213.454 75.1881 212.939 75.7102 212.877L96.5896 210.4C98.7811 210.14 100.924 209.566 102.952 208.697L107.666 206.677C108.23 206.436 108.856 206.849 108.856 207.461V209.104C108.856 209.7 108.977 210.291 109.212 210.839L110.14 213.004C110.973 214.947 111.215 217.091 110.837 219.171C110.658 220.155 110.757 221.171 111.123 222.102L115.258 232.627L116.322 247.88C116.463 249.899 116.002 251.916 114.997 253.674L113.844 255.693C112.281 258.428 109.764 260.49 106.776 261.487L99.0156 264.073C97.1026 264.711 95.4771 266.005 94.4273 267.727L90.9835 273.375C87.2805 279.448 82.5172 284.807 76.9204 289.196C75.3181 290.453 73.524 291.444 71.6069 292.131L65.6919 294.249C62.0691 295.547 58.2263 296.118 54.3827 295.931C52.4735 295.838 50.6335 295.187 49.0909 294.058L45.2706 291.262C43.6283 290.061 42.5267 288.259 42.2052 286.25Z" fill="url(#paint2_linear_1823_6979)"/>
<path d="M42.2633 286.613L41.6505 282.783C41.2275 280.139 41.644 277.43 42.8414 275.035L43.8635 272.991C43.9455 272.826 44.0535 272.677 44.1833 272.547L47.2338 269.496C47.6106 269.119 48.2551 269.386 48.2551 269.919V272.716C48.2551 275.835 50.1247 278.651 52.9999 279.862C55.1681 280.775 57.5943 280.868 59.8261 280.124L68.0118 277.395C69.6262 276.857 71.151 276.081 72.5357 275.092L75.0557 273.292C81.7953 268.478 86.9884 261.807 90.0019 254.092L92.5406 247.593C94.6198 242.27 92.9198 236.214 88.3743 232.751L84.8945 230.1C80.502 226.753 77.3091 222.076 75.7921 216.766L74.9901 213.959C74.8456 213.454 75.1881 212.939 75.7102 212.877L96.5896 210.4C98.7811 210.14 100.924 209.566 102.952 208.697L107.666 206.677C108.23 206.436 108.856 206.849 108.856 207.461V209.104C108.856 209.7 108.977 210.291 109.212 210.839L110.14 213.004C110.973 214.947 111.215 217.091 110.837 219.171C110.658 220.155 110.757 221.171 111.123 222.102L115.258 232.627L116.322 247.88C116.463 249.899 116.002 251.916 114.997 253.674L113.844 255.693C112.281 258.428 109.764 260.49 106.776 261.487L99.0156 264.073C97.1026 264.711 95.4771 266.005 94.4273 267.727L90.9835 273.375C87.2805 279.448 82.5172 284.807 76.9204 289.196C75.3181 290.453 73.524 291.444 71.6069 292.131L65.6919 294.249C62.0691 295.547 58.2263 296.118 54.3827 295.931C52.4735 295.838 50.6335 295.187 49.0909 294.058L44.9737 291.045C43.5216 289.983 42.5476 288.39 42.2633 286.613Z" fill="url(#paint3_linear_1823_6979)"/>
<path d="M55.51 178.434V178H113.124V183.94C113.124 184.809 112.958 185.669 112.635 186.476L112.203 187.556C111.682 188.858 111.379 190.237 111.305 191.638L110.666 203.784C110.602 204.995 109.9 206.082 108.822 206.638L101.723 210.303C98.8317 211.795 95.6482 212.633 92.3974 212.758L79.2811 213.262C76.5697 213.367 73.879 212.751 71.4827 211.478L62.6723 206.798C61.9091 206.392 61.3281 205.712 61.0464 204.895L58.103 196.36C57.5165 194.659 57.2171 192.872 57.2171 191.073V187.298C57.2171 185.948 56.9596 184.611 56.4584 183.358C55.8319 181.792 55.51 180.121 55.51 178.434Z" fill="url(#paint4_linear_1823_6979)"/>
<path d="M114.357 287.233L111.719 283.355C109.88 280.65 109.146 277.345 109.667 274.117L110.99 265.914L118.245 243.295L120.805 233.48L122.513 225.371L138.144 232.874C141.874 234.665 146.031 235.377 150.145 234.929L161.836 233.659C162.526 233.584 163.012 234.319 162.673 234.924L158.522 242.338C157.857 243.525 157.507 244.864 157.507 246.225C157.507 248.512 157.014 250.774 156.061 252.853L154.081 257.173C153.284 258.911 153.368 260.925 154.305 262.592L156.654 266.768L163.843 285.686C164.452 287.288 165.324 288.777 166.424 290.091L175.727 301.203C178.651 304.695 181.189 308.494 183.296 312.532L188.357 322.233C189.66 324.73 190.086 327.593 189.567 330.362L188.577 335.644C188.088 338.249 186.495 340.514 184.209 341.855C178.576 345.157 171.886 346.156 165.534 344.643L163.442 344.145C159.555 343.22 155.985 341.279 153.095 338.52L144.51 330.326C140.699 326.688 137.696 322.289 135.696 317.414L131.901 308.164L130.431 302.529C129.73 299.84 128.045 297.513 125.71 296.006L118.732 291.504C117.002 290.388 115.514 288.936 114.357 287.233Z" fill="url(#paint5_linear_1823_6979)"/>
<path d="M113.93 286.807L111.293 282.928C109.454 280.224 108.719 276.918 109.24 273.69L110.563 265.487L117.818 242.869L120.379 233.053L122.086 224.944L137.717 232.447C141.447 234.238 145.604 234.95 149.718 234.503L159.263 233.465C160.17 233.367 160.578 234.567 159.801 235.042L150.806 240.539C144.006 244.695 139.544 251.796 138.751 259.726C138.456 262.678 137.517 265.533 136.005 268.085C133.409 272.465 134.431 278.095 138.406 281.275L138.879 281.653C139.62 282.246 140.194 283.022 140.543 283.905L147.856 302.379C148.03 302.818 148.276 303.226 148.584 303.585L162.704 320.06C163.22 320.661 163.822 321.184 164.489 321.611L167.346 323.436C173.44 327.329 181.569 324.974 184.638 318.426C184.905 317.856 185.694 317.796 186.044 318.321L187.191 320.042C189.244 323.121 190.151 326.823 189.753 330.503L189.42 333.583C188.951 337.922 186.195 341.677 182.197 343.426L182.059 343.487C177.464 345.497 172.368 346.071 167.441 345.132L166.043 344.866L161.131 343.463C158.471 342.703 156.035 341.307 154.034 339.397L144.084 329.899C140.273 326.261 137.269 321.862 135.27 316.988L131.475 307.737L130.005 302.102C129.303 299.414 127.618 297.086 125.283 295.579L118.306 291.077C116.576 289.961 115.088 288.509 113.93 286.807Z" fill="url(#paint6_linear_1823_6979)"/>
<path d="M122.939 225.798L115.076 222.967C113.341 222.343 112.077 220.835 111.763 219.019L110.167 209.762C110.147 209.641 110.139 209.519 110.144 209.397L110.932 191.273C110.97 190.399 111.176 189.54 111.538 188.744L112.818 185.928C113.019 185.485 113.124 185.003 113.124 184.516V178H183.114L179.175 183.15C178.14 184.504 177.648 186.197 177.797 187.895L179.35 205.602C179.579 208.206 179.099 210.824 177.963 213.178L173.979 221.43C173.812 221.777 173.725 222.157 173.725 222.543V230.415C173.725 231.21 173.176 231.899 172.401 232.078L162.629 234.333L152.213 235.573C147.312 236.157 142.347 235.311 137.915 233.139L122.939 225.798Z" fill="url(#paint7_linear_1823_6979)"/>
<rect x="57.2976" y="261.646" width="13.6566" height="2.56061" rx="0.853535" transform="rotate(21.3961 57.2976 261.646)" fill="#A0A7B1"/>
<rect width="13.6566" height="2.56061" rx="0.853535" transform="matrix(-0.975305 0.220861 0.220861 0.975305 173.882 303.718)" fill="#A0A7B1"/>
<rect x="63.1919" y="256.276" width="13.6566" height="2.56061" rx="0.853535" transform="rotate(-2.53646 63.1919 256.276)" fill="#A0A7B1"/>
<rect width="13.6566" height="2.56061" rx="0.853535" transform="matrix(-0.981047 -0.193772 -0.193772 0.981047 168.861 297.523)" fill="#A0A7B1"/>
<rect x="72.5808" y="248.594" width="13.6566" height="2.56061" rx="0.853535" transform="rotate(-2.53646 72.5808 248.594)" fill="#A0A7B1"/>
<rect width="13.6566" height="2.56061" rx="0.853535" transform="matrix(-0.981047 -0.193772 -0.193772 0.981047 160.732 288.519)" fill="#A0A7B1"/>
<rect width="13.6566" height="2.56061" rx="0.853535" transform="matrix(-0.981047 -0.193772 -0.193772 0.981047 157.318 276.569)" fill="#A0A7B1"/>
<rect x="67.9668" y="251.404" width="13.6566" height="2.56061" rx="0.853535" transform="rotate(59.8561 67.9668 251.404)" fill="#A0A7B1"/>
<rect width="13.6566" height="2.56061" rx="0.853535" transform="matrix(-0.626338 0.779551 0.779551 0.626338 164.872 291.989)" fill="#A0A7B1"/>
<rect x="77.3557" y="243.723" width="13.6566" height="2.56061" rx="0.853535" transform="rotate(59.8561 77.3557 243.723)" fill="#A0A7B1"/>
<rect width="13.6566" height="2.56061" rx="0.853535" transform="matrix(-0.626338 0.779551 0.779551 0.626338 156.743 282.984)" fill="#A0A7B1"/>
<rect width="13.6566" height="2.56061" rx="0.853535" transform="matrix(-0.626338 0.779551 0.779551 0.626338 153.329 271.035)" fill="#A0A7B1"/>
<path d="M96.7617 131.5C152.408 144.502 113.762 164.5 96.7617 173.5C179.762 156 125.762 114.5 96.7617 104C75.7617 96.3966 93.2617 87 119.262 87C246.521 87 235.428 22.6667 214.262 0H119.262C161.262 19.5 119.262 34 55.2616 53C15.9693 64.6649 -10.2382 106.5 96.7617 131.5Z" fill="url(#paint8_linear_1823_6979)"/>
<defs>
<linearGradient id="paint0_linear_1823_6979" x1="0" y1="322" x2="249" y2="322" gradientUnits="userSpaceOnUse">
<stop stop-color="#E2E4E7" stop-opacity="0"/>
<stop offset="0.5" stop-color="#E2E4E7"/>
<stop offset="1" stop-color="#E2E4E7" stop-opacity="0"/>
</linearGradient>
<linearGradient id="paint1_linear_1823_6979" x1="206" y1="251.5" x2="159.5" y2="251.5" gradientUnits="userSpaceOnUse">
<stop stop-color="#E2E4E7" stop-opacity="0"/>
<stop offset="1" stop-color="#E2E4E7"/>
</linearGradient>
<linearGradient id="paint2_linear_1823_6979" x1="46.9747" y1="277.437" x2="113.551" y2="247.563" gradientUnits="userSpaceOnUse">
<stop stop-color="#BFC4CB"/>
<stop offset="1" stop-color="#A0A7B1"/>
</linearGradient>
<linearGradient id="paint3_linear_1823_6979" x1="38.0126" y1="248.417" x2="116.111" y2="248.844" gradientUnits="userSpaceOnUse">
<stop stop-color="#E2E4E7"/>
<stop offset="1" stop-color="#BFC4CB"/>
</linearGradient>
<linearGradient id="paint4_linear_1823_6979" x1="102" y1="176.5" x2="105" y2="208" gradientUnits="userSpaceOnUse">
<stop stop-color="#E2E4E7" stop-opacity="0"/>
<stop offset="1" stop-color="#E2E4E7"/>
</linearGradient>
<linearGradient id="paint5_linear_1823_6979" x1="190.369" y1="321.821" x2="117.391" y2="257.379" gradientUnits="userSpaceOnUse">
<stop stop-color="#BFC4CB"/>
<stop offset="1" stop-color="#A0A7B1"/>
</linearGradient>
<linearGradient id="paint6_linear_1823_6979" x1="191.649" y1="297.068" x2="124.646" y2="296.641" gradientUnits="userSpaceOnUse">
<stop stop-color="#E2E4E7"/>
<stop offset="1" stop-color="#BFC4CB"/>
</linearGradient>
<linearGradient id="paint7_linear_1823_6979" x1="140.5" y1="178" x2="128.487" y2="227.078" gradientUnits="userSpaceOnUse">
<stop stop-color="#E2E4E7" stop-opacity="0"/>
<stop offset="1" stop-color="#E2E4E7"/>
</linearGradient>
<linearGradient id="paint8_linear_1823_6979" x1="124.16" y1="0" x2="124.16" y2="156" gradientUnits="userSpaceOnUse">
<stop stop-color="#F6F6F7" stop-opacity="0"/>
<stop offset="1" stop-color="#F6F6F7"/>
</linearGradient>
</defs>
</svg>
