<svg width="18" height="22" viewBox="0 0 18 22" fill="none" xmlns="http://www.w3.org/2000/svg">
<rect x="0.818359" y="12.4326" width="16.3635" height="8.99992" rx="1.63639" fill="#FFA8DB"/>
<path d="M7.36377 7.5223C7.36377 7.07042 7.73009 6.7041 8.18197 6.7041H9.81827C10.2701 6.7041 10.6365 7.07042 10.6365 7.5223V11.6131H7.36377V7.5223Z" fill="#FFECF7"/>
<path d="M7.36353 4.53612C7.36353 4.34725 7.40316 4.16048 7.47987 3.98788L8.2522 2.25014C8.54013 1.60228 9.45961 1.60229 9.74755 2.25015L10.5199 3.98788C10.5966 4.16048 10.6362 4.34725 10.6362 4.53612C10.6362 5.28164 10.0319 5.88601 9.28634 5.88601H8.71341C7.96789 5.88601 7.36353 5.28164 7.36353 4.53612Z" fill="#E83CA0"/>
<path d="M0 13.2495C0 11.8939 1.09896 10.7949 2.45459 10.7949H15.5452C16.9009 10.7949 17.9998 11.8939 17.9998 13.2495V14.0676C17.9998 14.5195 17.6335 14.8858 17.1816 14.8858H0.818198C0.366321 14.8858 0 14.5195 0 14.0676V13.2495Z" fill="#FF80CA"/>
</svg>
