<svg width="28" height="34" viewBox="0 0 28 34" fill="none" xmlns="http://www.w3.org/2000/svg">
<g id="Group 2085670310">
<rect id="Rectangle 240653977" x="1.27319" y="19.228" width="25.4545" height="14" rx="2.54552" fill="#FFA8DB"/>
<path id="Rectangle 240653979" d="M11.455 11.5904C11.455 10.8875 12.0248 10.3176 12.7277 10.3176H15.2731C15.976 10.3176 16.5459 10.8875 16.5459 11.5904V17.954H11.455V11.5904Z" fill="#FFC4E7"/>
<path id="Rectangle 240653980" d="M11.4546 6.94486C11.4546 6.65106 11.5162 6.36052 11.6356 6.09204L12.837 3.38887C13.2849 2.38108 14.7152 2.38108 15.1631 3.38887L16.3645 6.09204C16.4838 6.36052 16.5455 6.65106 16.5455 6.94486C16.5455 8.10457 15.6054 9.0447 14.4457 9.0447H13.5544C12.3947 9.0447 11.4546 8.10457 11.4546 6.94486Z" fill="#E83CA0"/>
<path id="Rectangle 240653978" d="M0 20.4994C0 18.3907 1.7095 16.6812 3.81829 16.6812H24.1817C26.2905 16.6812 28 18.3907 28 20.4994V21.772C28 22.475 27.4302 23.0448 26.7272 23.0448H1.27276C0.569836 23.0448 0 22.475 0 21.772V20.4994Z" fill="#FF80CA"/>
</g>
</svg>
