<svg width="20" height="20" viewBox="0 0 20 20" fill="none" xmlns="http://www.w3.org/2000/svg">
<g id="Group 9">
<path id="Subtract" fill-rule="evenodd" clip-rule="evenodd" d="M20 10C20 15.5228 15.5228 20 10 20C4.47715 20 0 15.5228 0 10C0 4.47715 4.47715 0 10 0C15.5228 0 20 4.47715 20 10ZM6.70727 14.7069L6.63131 14.776C6.23854 15.0963 5.65917 15.0731 5.29306 14.7069C4.92695 14.3408 4.90368 13.7615 5.224 13.3687L5.29306 13.2927L8.58579 10L5.29289 6.70711C4.90237 6.31658 4.90237 5.68342 5.29289 5.29289C5.68342 4.90237 6.31658 4.90237 6.70711 5.29289L10 8.58579L13.2929 5.29289C13.6834 4.90237 14.3166 4.90237 14.7071 5.29289C15.0976 5.68342 15.0976 6.31658 14.7071 6.70711L11.4142 10L14.7069 13.2927L14.776 13.3687C15.0963 13.7615 15.0731 14.3408 14.7069 14.7069C14.3408 15.0731 13.7615 15.0963 13.3687 14.776L13.2927 14.7069L10 11.4142L6.70727 14.7069Z" fill="#72777E"/>
</g>
</svg>
