<svg width="22" height="22" viewBox="0 0 22 22" fill="none" xmlns="http://www.w3.org/2000/svg">
<path id="Union" d="M8.37908 0.797437C8.60954 0.764839 8.84533 0.8281 9.02947 0.975171L10.8156 2.40193C10.937 2.3994 11.0585 2.39941 11.1799 2.40193L12.967 0.976147L13.049 0.91853C13.2469 0.79563 13.488 0.758441 13.716 0.818921C14.5005 1.0272 15.2579 1.32584 15.9728 1.70857L16.2765 1.87751L16.3605 1.93318C16.5471 2.07299 16.6691 2.28448 16.6955 2.51912L16.9504 4.7906C17.0381 4.87472 17.124 4.96069 17.2082 5.04841L19.4797 5.3033L19.5793 5.32087C19.8059 5.37398 20.0029 5.51844 20.1213 5.72224C20.587 6.52446 20.9443 7.38539 21.1828 8.28181C21.252 8.54256 21.193 8.82104 21.0246 9.03181L19.5968 10.8179C19.5994 10.939 19.5994 11.0601 19.5968 11.1812L21.0236 12.9683C21.1916 13.1787 21.2505 13.4561 21.1818 13.7164C20.9454 14.6124 20.591 15.4731 20.1281 16.276C19.993 16.5102 19.7542 16.6667 19.4855 16.6969L17.2131 16.9508C17.1288 17.0386 17.0431 17.1253 16.9552 17.2095L16.7004 19.4801C16.6703 19.7479 16.5155 19.9864 16.2824 20.1217C15.48 20.5874 14.6185 20.9437 13.7218 21.1822C13.4613 21.2514 13.1835 21.1932 12.9728 21.025L11.1857 19.5972C11.0643 19.5998 10.9429 19.5998 10.8215 19.5972L9.03533 21.024C8.76808 21.2373 8.39836 21.2701 8.09783 21.107L5.59392 19.7476C5.2663 19.5697 5.0923 19.1992 5.16521 18.8336L5.57536 16.7789L5.1945 16.398L2.90349 16.6949C2.60612 16.7335 2.3138 16.6127 2.13005 16.3834L2.05779 16.2789C1.7115 15.6825 1.21758 14.901 0.927903 14.0699L0.817552 13.7115C0.748202 13.4509 0.806565 13.1723 0.974778 12.9615L2.40154 11.1744C2.39902 11.053 2.399 10.9315 2.40154 10.8101L0.975755 9.02498C0.807472 8.81426 0.749332 8.53561 0.818528 8.27498C1.05656 7.37873 1.41249 6.51795 1.87712 5.71541L1.93279 5.63142C2.07257 5.44473 2.28405 5.32188 2.51872 5.29548L4.79021 5.0406C4.87448 4.95272 4.96111 4.86705 5.049 4.78279L5.30388 2.51228L5.32146 2.41267C5.37481 2.18552 5.51917 1.98784 5.7238 1.8697L6.02751 1.70173C6.74154 1.32082 7.49813 1.02357 8.28142 0.816968L8.37908 0.797437ZM8.31169 2.58064C7.84121 2.72924 7.38423 2.91748 6.94548 3.14314L6.70427 5.28669C6.68078 5.49564 6.58126 5.68912 6.424 5.82869C6.21673 6.01264 6.02009 6.20837 5.83611 6.4156C5.69661 6.5727 5.50386 6.67331 5.29509 6.69685L3.14861 6.93709C2.92116 7.37731 2.73122 7.83593 2.58122 8.30818L3.92888 9.99568C4.0601 10.16 4.12587 10.3668 4.11345 10.5767C4.09706 10.8538 4.09707 11.1317 4.11345 11.4088C4.12277 11.5663 4.08815 11.7225 4.01482 11.8599L3.92888 11.9908L2.59294 13.6627C2.7525 14.072 2.98279 14.4872 3.24333 14.9342L5.39079 14.6558L5.48845 14.649C5.71661 14.6459 5.93841 14.7348 6.10173 14.898L7.10173 15.898C7.30283 16.0991 7.38981 16.3877 7.33415 16.6666L6.95622 18.5513L8.41325 19.3414L10.006 18.0709L10.1369 17.9849C10.2741 17.9118 10.4299 17.8771 10.5871 17.8863C10.8644 17.9027 11.1428 17.9027 11.4201 17.8863L11.5763 17.8912C11.7308 17.9105 11.8779 17.9726 12.0011 18.0709L13.6877 19.4185C14.16 19.2683 14.6186 19.0781 15.0588 18.8502L15.3 16.7056L15.3322 16.5523C15.3776 16.4036 15.4634 16.2692 15.5812 16.1646C15.7886 15.9806 15.9851 15.784 16.1691 15.5767L16.2824 15.4703C16.4054 15.3746 16.5533 15.3141 16.7101 15.2965L18.8537 15.0543C19.08 14.6141 19.2692 14.1561 19.4181 13.6842L18.0705 11.9976C17.9393 11.8333 17.8735 11.6255 17.8859 11.4156C17.9023 11.1385 17.9023 10.8607 17.8859 10.5836C17.8735 10.3736 17.9392 10.1659 18.0705 10.0015L19.4181 8.31501C19.2678 7.84295 19.0777 7.38477 18.8498 6.9449L16.7052 6.70466C16.4964 6.68118 16.3038 6.58056 16.1642 6.42341C16.0722 6.31975 15.9771 6.21865 15.8791 6.12068L15.5763 5.83552C15.4191 5.69595 15.3186 5.50344 15.2951 5.29451L15.0539 3.149C14.6136 2.92165 14.1551 2.73155 13.6828 2.58162L11.9953 3.92927C11.8721 4.02761 11.7249 4.0896 11.5705 4.10896L11.4142 4.11384C11.137 4.09745 10.8585 4.09744 10.5812 4.11384C10.3714 4.12614 10.1644 4.06045 10.0002 3.92927L8.31169 2.58064ZM10.8595 7.02986C12.9746 7.02995 14.6895 8.74392 14.6896 10.859C14.6895 12.9741 12.9747 14.6889 10.8595 14.689C8.74436 14.689 7.02956 12.9741 7.02947 10.859C7.02963 8.74387 8.74441 7.02986 10.8595 7.02986ZM10.8595 8.73103C9.68402 8.73103 8.7308 9.68402 8.73064 10.859C8.73073 12.034 9.68398 12.9869 10.8595 12.9869C12.035 12.9868 12.9874 12.0339 12.9875 10.859C12.9873 9.68408 12.035 8.73112 10.8595 8.73103Z" fill="#43464A"/>
</svg>
