<svg width="16" height="16" viewBox="0 0 16 16" fill="none" xmlns="http://www.w3.org/2000/svg">
<path d="M4 2.33366C4 1.96547 4.29848 1.66699 4.66667 1.66699C5.03486 1.66699 5.33333 1.96547 5.33333 2.33366V4.33366C5.33333 4.70185 5.03486 5.00033 4.66667 5.00033C4.29848 5.00033 4 4.70185 4 4.33366V2.33366Z" fill="#D3D7DB"/>
<path d="M10.6667 2.33366C10.6667 1.96547 10.9652 1.66699 11.3334 1.66699C11.7016 1.66699 12.0001 1.96547 12.0001 2.33366V4.33366C12.0001 4.70185 11.7016 5.00033 11.3334 5.00033C10.9652 5.00033 10.6667 4.70185 10.6667 4.33366V2.33366Z" fill="#D3D7DB"/>
<path d="M13.667 3.00024C14.4031 3.00042 14.9998 3.59713 15 4.33325V13.0002C15 13.7365 14.4032 14.3331 13.667 14.3333H2.33301C1.59678 14.3331 1 13.7365 1 13.0002V4.33325C1.00018 3.59713 1.59689 3.00042 2.33301 3.00024H13.667ZM3 4.33325C2.63181 4.33325 2.33301 4.63205 2.33301 5.00024V6.33325C2.33301 6.70144 2.63181 7.00024 3 7.00024H13C13.3682 7.00024 13.667 6.70144 13.667 6.33325V5.00024C13.667 4.63205 13.3682 4.33325 13 4.33325H3Z" fill="#D3D7DB"/>
</svg>
