<svg width="20" height="19" viewBox="0 0 20 19" fill="none" xmlns="http://www.w3.org/2000/svg">
<g id="Group 2085670322">
<path id="Rectangle 240653971" d="M-0.000244141 7H19.9999V16.3734C19.9999 17.64 18.9731 18.6668 17.7066 18.6668H2.29311C1.02653 18.6668 -0.000244141 17.64 -0.000244141 16.3734V7Z" fill="#BFE6DA"/>
<path id="Rectangle 240653972" d="M20.0002 7L9.53674e-05 7L8.83349 1.16662L8.95136 1.09295C9.69503 0.628164 10.6386 0.628164 11.3823 1.09295L11.5002 1.16662L20.0002 7Z" fill="#75C9B0"/>
<path id="Rectangle 240653974" d="M20.0002 7L10.0002 12.8334V18.6668H17.7069C18.9735 18.6668 20.0002 17.64 20.0002 16.3734V7Z" fill="#75C9B0"/>
<path id="Rectangle 240653973" d="M-0.000244141 7L9.99983 12.8334V18.6668H2.29311C1.02653 18.6668 -0.000244141 17.64 -0.000244141 16.3734V7Z" fill="#75C9B0"/>
<path id="Rectangle 240653975" d="M-0.000244141 16.5217C-0.000244141 16.291 0.12707 16.0792 0.330757 15.971L9.37421 11.1659C9.76539 10.9581 10.2343 10.9581 10.6255 11.1659L19.3233 15.7874C19.7397 16.0086 19.9999 16.4415 19.9999 16.913C19.9999 17.8816 19.2147 18.6669 18.246 18.6669H2.14495C0.960195 18.6669 -0.000244141 17.7065 -0.000244141 16.5217Z" fill="#5ABFA1"/>
</g>
</svg>
