<svg width="24" height="24" viewBox="0 0 24 24" fill="none" xmlns="http://www.w3.org/2000/svg">
<path d="M12.5141 7.47438C12.8834 7.10542 13.4819 7.10529 13.851 7.47438L16.5255 10.1488C16.8945 10.518 16.8944 11.1165 16.5255 11.4857L8.90058 19.1106C8.73076 19.2804 8.50257 19.379 8.26253 19.3868L5.49901 19.4765C4.95314 19.4942 4.50568 19.0467 4.52329 18.5008L4.61306 15.7373C4.62083 15.4973 4.71944 15.2691 4.88927 15.0993L12.5141 7.47438ZM16.5255 3.46307C16.8946 3.09389 17.4938 3.09334 17.863 3.46238L20.5375 6.13681C20.9067 6.50605 20.906 7.10514 20.5368 7.47438L19.1999 8.81125C18.8307 9.18046 18.2323 9.18048 17.863 8.81125L15.1886 6.13681C14.8196 5.76757 14.8194 5.16912 15.1886 4.79994L16.5255 3.46307Z" fill="#43464A"/>
</svg>
