<svg width="16" height="17" viewBox="0 0 16 17" fill="none" xmlns="http://www.w3.org/2000/svg">
<path id="Union" d="M7.99951 0.498535C8.5518 0.498535 8.99951 0.94625 8.99951 1.49854V7.49756H14.9995C15.5517 7.49769 15.9995 7.94536 15.9995 8.49756C15.9995 9.04976 15.5517 9.49743 14.9995 9.49756H8.99951V15.4976L8.99463 15.5991C8.94341 16.1034 8.51727 16.4976 7.99951 16.4976C7.48189 16.4974 7.05557 16.1033 7.00439 15.5991L6.99951 15.4976V9.49756H1.00049L0.898926 9.49268C0.394488 9.44164 0.000488281 9.01546 0.000488281 8.49756C0.000488281 7.97966 0.394488 7.55348 0.898926 7.50244L1.00049 7.49756H6.99951V1.49854C6.99951 0.946373 7.4474 0.498733 7.99951 0.498535Z" fill="#43464A"/>
</svg>
