<svg width="42" height="34" viewBox="0 0 42 34" fill="none" xmlns="http://www.w3.org/2000/svg">
<path d="M12.2005 9.84567L17.6456 15.0665L23.2462 10.6875L14.9522 7.82851C14.7791 7.76886 14.5922 7.76236 14.4155 7.80983L12.5973 8.29812C11.9075 8.48339 11.6849 9.35133 12.2005 9.84567Z" fill="#5ABFA1"/>
<path d="M3.10527 18.5177L8.10853 23.1046L12.3942 19.6583L5.81136 16.5862C5.62071 16.4972 5.40525 16.4765 5.20114 16.5275L3.50254 16.9522C2.79369 17.1294 2.56668 18.024 3.10527 18.5177Z" fill="#5ABFA1"/>
<path d="M4.43084 26.5993C3.52786 26.6546 3.09882 25.5075 3.81643 24.9566L26.7393 7.3599C27.3887 6.86137 28.1412 6.51405 28.9419 6.34327L37.2453 4.57224C38.4673 4.3116 39.7188 4.86379 40.35 5.94215V5.94215C41.1302 7.27507 40.7276 8.98568 39.4349 9.83076L18.815 23.3098C16.1503 25.0518 13.078 26.0701 9.90034 26.2645L4.43084 26.5993Z" fill="#5ABFA1"/>
<path d="M38.4683 4.57764C39.2416 4.747 39.9321 5.22874 40.3501 5.94287C41.1303 7.27577 40.7278 8.98648 39.4351 9.83154L18.815 23.3101C16.1503 25.0519 13.0784 26.0706 9.9009 26.2651L4.43117 26.6001C3.5282 26.6554 3.09931 25.5084 3.81692 24.9575L26.7398 7.36084C27.3891 6.86238 28.1413 6.51502 28.9419 6.34424L35.5405 4.93604C35.5423 5.06265 35.5673 5.19058 35.6236 5.31104L36.1323 6.40088C36.3549 6.8777 36.9321 7.06923 37.396 6.8208L38.2808 6.34717C38.6853 6.13048 38.8679 5.64817 38.7075 5.21826L38.4683 4.57764Z" fill="#BFE6DA"/>
<path d="M28.1117 12.7245L20.6974 18.3122L24.0543 31.3841C24.2444 32.1245 25.2039 32.3209 25.6697 31.7147L27.7009 29.071C27.8213 28.9142 27.8879 28.7227 27.8907 28.5251L28.1117 12.7245Z" fill="#BFE6DA"/>
<path d="M19.3201 17.9211L19.1555 17.5918C18.9573 17.1954 19.0709 16.714 19.4255 16.4481L19.69 16.2497C20.1727 15.8876 20.8675 16.0825 21.0916 16.6427L21.2509 17.0408C21.428 17.4837 21.2362 17.9883 20.8096 18.2016L20.5504 18.3312C20.0975 18.5577 19.5466 18.3741 19.3201 17.9211Z" fill="#5ABFA1"/>
<path d="M24.8222 14.2529L24.6576 13.9236C24.4594 13.5272 24.573 13.0458 24.9276 12.7799L25.1921 12.5815C25.6748 12.2194 26.3696 12.4142 26.5937 12.9745L26.753 13.3726C26.9301 13.8155 26.7382 14.3201 26.3117 14.5334L26.0525 14.663C25.5995 14.8895 25.0487 14.7059 24.8222 14.2529Z" fill="#5ABFA1"/>
<path d="M27.5732 12.4189L27.4085 12.0896C27.2103 11.6932 27.324 11.2118 27.6785 10.9459L27.9431 10.7475C28.4258 10.3854 29.1206 10.5803 29.3447 11.1405L29.504 11.5386C29.6811 11.9815 29.4892 12.4861 29.0626 12.6994L28.8035 12.829C28.3505 13.0555 27.7997 12.8719 27.5732 12.4189Z" fill="#5ABFA1"/>
<path d="M33.0763 8.17744L32.8405 7.63834C32.6788 7.26881 32.7776 6.83703 33.0838 6.57454L33.3834 6.31774C33.8734 5.89771 34.6325 6.10188 34.8457 6.71105L35.0672 7.34394C35.2134 7.76139 35.0407 8.22364 34.6567 8.44307L34.3714 8.60607C33.8981 8.87652 33.2948 8.67685 33.0763 8.17744Z" fill="#5ABFA1"/>
<path d="M22.0711 16.0871L21.9065 15.7578C21.7083 15.3614 21.8219 14.88 22.1765 14.6141L22.441 14.4157C22.9237 14.0536 23.6185 14.2485 23.8426 14.8087L24.0019 15.2069C24.179 15.6497 23.9871 16.1543 23.5606 16.3676L23.3014 16.4972C22.8484 16.7237 22.2976 16.5401 22.0711 16.0871Z" fill="#5ABFA1"/>
</svg>
