<svg width="1000" height="1000" viewBox="0 0 1000 1000" fill="none" xmlns="http://www.w3.org/2000/svg">
<rect width="1000" height="1000" rx="216.216" fill="white"/>
<path fill-rule="evenodd" clip-rule="evenodd" d="M220.917 162.162C188.467 162.162 162.162 188.467 162.162 220.917V331.682C162.162 350.678 165.924 369.486 173.23 387.021C189.772 426.721 191.392 471.065 177.791 511.867L171.684 530.19C165.377 549.109 162.162 568.921 162.162 588.864V793.772C162.162 818.109 181.891 837.838 206.228 837.838H314.243C320.208 837.838 326.032 836.022 330.939 832.632L361.518 811.51C371.031 804.939 383.514 804.559 393.409 810.54L431.567 833.602C436.152 836.373 441.406 837.838 446.763 837.838H793.772C818.109 837.838 837.838 818.109 837.838 793.772V746.801C837.838 655.322 768.15 580.12 678.966 571.385C685.022 604.447 675.267 639.835 649.702 665.401C608.364 706.739 541.341 706.739 500.002 665.401L500 665.398L499.998 665.401C458.659 706.739 391.636 706.739 350.298 665.401C308.963 624.066 308.959 557.051 350.287 515.712C308.959 474.372 308.963 407.358 350.298 366.023C391.636 324.684 458.659 324.684 499.998 366.023L500 366.025V220.917C500 188.467 473.695 162.162 441.246 162.162H220.917ZM507.029 480.984C506.335 480.948 505.637 480.93 504.935 480.93C483.012 480.93 465.24 498.702 465.24 520.625C465.24 542.548 483.012 560.32 504.935 560.32C521.805 560.32 536.218 549.796 541.965 534.955C526.247 520.269 514.116 501.793 507.029 480.984Z" fill="#FF80CA"/>
</svg>
