<svg width="74" height="74" viewBox="0 0 74 74" fill="none" xmlns="http://www.w3.org/2000/svg">
<rect width="74" height="74" rx="16" fill="white"/>
<path fill-rule="evenodd" clip-rule="evenodd" d="M18.7391 15.5C16.6741 15.5 15 17.1741 15 19.2391V26.2883C15 27.4972 15.2394 28.6941 15.7043 29.81C16.7571 32.3365 16.8602 35.1586 15.9946 37.7552L15.6059 38.9213C15.2046 40.1253 15 41.3862 15 42.6553V55.6957C15 57.2444 16.2556 58.5 17.8044 58.5H24.6784C25.058 58.5 25.4287 58.3844 25.741 58.1687L27.687 56.8245C28.2924 56.4063 29.0868 56.3822 29.7166 56.7628L32.1449 58.2305C32.4367 58.4068 32.7711 58.5 33.112 58.5H55.1957C56.7444 58.5 58 57.2444 58 55.6957V52.7064C58 46.8846 53.565 42.0987 47.8892 41.5429C48.2749 43.6472 47.6542 45.8997 46.027 47.5269C43.3962 50.1577 39.1309 50.1577 36.5001 47.5269L36.5 47.5269L36.5 47.5269C33.8692 50.1577 29.6039 50.1577 26.9731 47.5269C24.3423 44.8961 24.3423 40.6308 26.9731 38C24.3423 35.3692 24.3423 31.1039 26.9731 28.4731C29.6039 25.8423 33.8692 25.8423 36.5 28.4731L36.5 19.2391C36.5 17.1741 34.8259 15.5 32.7609 15.5H18.7391ZM36.9477 35.791C36.9034 35.7886 36.8587 35.7875 36.8138 35.7875C35.4186 35.7875 34.2876 36.9185 34.2876 38.3137C34.2876 39.7089 35.4186 40.8399 36.8138 40.8399C37.8878 40.8399 38.8053 40.1697 39.1708 39.2246C38.1707 38.2903 37.3988 37.1149 36.9477 35.791Z" fill="#FF80CA"/>
</svg>
