<svg width="116" height="116" viewBox="0 0 116 116" fill="none" xmlns="http://www.w3.org/2000/svg">
<g filter="url(#filter0_d_1671_5052)">
<rect x="4" y="4" width="108" height="108" rx="16" fill="#F6F6F7" shape-rendering="crispEdges"/>
<path d="M21.8711 20.0352C21.8711 22.8242 20.1133 24.7578 16.9844 25.625L16.3984 24.4648C18.7188 23.8438 20.0195 22.6719 20.2773 21.2305H16.9727V20.0352H21.8711ZM25.3047 26.0352V30.0547H23.8164V27.2305H17.9805V26.0352H25.3047ZM25.3047 19.4258V25.6133H23.8164V23.2344H21.9766V22.0039H23.8164V19.4258H25.3047ZM35.6758 19.4141V25.7422H34.1875V23.2227H32.5234V22.0156H34.1875V19.4141H35.6758ZM32.0312 25.9766C34.3047 25.9883 35.6992 26.7383 35.7109 28.0391C35.6992 29.3281 34.3047 30.0898 32.0312 30.0898C29.7578 30.0898 28.3633 29.3281 28.3633 28.0391C28.3633 26.7383 29.7578 25.9883 32.0312 25.9766ZM32.0312 27.125C30.6133 27.125 29.8516 27.418 29.8516 28.0391C29.8516 28.6484 30.6133 28.9531 32.0312 28.9531C33.4492 28.9531 34.2227 28.6484 34.2227 28.0391C34.2227 27.418 33.4492 27.125 32.0312 27.125ZM32.8398 20.0586V21.2539H30.7188C30.7539 22.4961 31.5039 23.75 33.168 24.3008L32.4297 25.4727C31.252 25.0918 30.4434 24.3184 29.9805 23.3516C29.5059 24.4414 28.6562 25.3203 27.3906 25.7539L26.6172 24.5703C28.3691 23.9844 29.1543 22.5898 29.1953 21.2539H27.0508V20.0586H32.8398ZM36.918 26.7617C37.5215 26.7617 38.2598 26.7559 39.0391 26.7383V24.9453H37.3867V20.375H41.9805V21.582H38.8516V23.75H42.0742V24.9453H40.4688V26.6797C41.1191 26.6562 41.7578 26.6094 42.3203 26.5391L42.4023 27.6055C40.6797 27.9336 38.4883 27.9805 37.1172 27.9805L36.918 26.7617ZM46.4102 19.4141V30.0781H44.9805V24.8633H44.1484V29.5859H42.7539V19.5898H44.1484V23.6562H44.9805V19.4141H46.4102ZM57.1914 27.6055V28.8359H47.4297V27.6055H49.6094V24.9922C48.7832 24.5 48.2852 23.7441 48.2852 22.8008C48.2852 21.0781 49.9727 19.9297 52.293 19.9297C54.6016 19.9297 56.3008 21.0781 56.3125 22.8008C56.3066 23.7207 55.8203 24.4707 55.0234 24.9688V27.6055H57.1914ZM52.293 21.1133C50.7695 21.1133 49.7617 21.7227 49.7617 22.8008C49.7617 23.8438 50.7695 24.4883 52.293 24.4883C53.8047 24.4883 54.8242 23.8438 54.8359 22.8008C54.8242 21.7227 53.8047 21.1133 52.293 21.1133ZM51.0859 27.6055H53.5117V25.5312C53.1309 25.6074 52.7207 25.6484 52.293 25.6484C51.8652 25.6484 51.4609 25.6133 51.0859 25.5312V27.6055Z" fill="#43464A"/>
<circle cx="72" cy="72" r="28" fill="#FDD057"/>
<mask id="mask0_1671_5052" style="mask-type:alpha" maskUnits="userSpaceOnUse" x="44" y="44" width="56" height="56">
<circle cx="72" cy="72" r="28" fill="#FDD057"/>
</mask>
<g mask="url(#mask0_1671_5052)">
<path d="M61.5 101.167H56.8333V60.3333H61.5V101.167Z" fill="#9AD2FF"/>
<path d="M87.4712 101.166H82.8042V60.3333H87.4712V101.166Z" fill="#9AD2FF"/>
</g>
<path d="M79 71.4167C79 76.2492 77.8333 80.1667 72 80.1667C66.1667 80.1667 65 76.2492 65 71.4167C65 66.5843 68.134 62.6667 72 62.6667C75.866 62.6667 79 66.5843 79 71.4167Z" fill="#2C2E31"/>
<circle cx="59.3188" cy="60.4854" r="3.04347" fill="#2C2E31" stroke="#2C2E31" stroke-width="1.21739"/>
<ellipse cx="1.15801" cy="0.953431" rx="1.15801" ry="0.953431" transform="matrix(0.791812 0.610765 -0.598066 0.801446 59.8013 58.1355)" fill="white"/>
<ellipse cx="1.15801" cy="0.953431" rx="1.15801" ry="0.953431" transform="matrix(0.791812 0.610765 -0.598066 0.801446 57.9146 60.054)" fill="white"/>
<circle cx="85.2897" cy="60.4854" r="3.04347" fill="#2C2E31" stroke="#2C2E31" stroke-width="1.21739"/>
<ellipse cx="1.15801" cy="0.953431" rx="1.15801" ry="0.953431" transform="matrix(0.791812 0.610765 -0.598066 0.801446 85.7721 58.1355)" fill="white"/>
<ellipse cx="1.15801" cy="0.953431" rx="1.15801" ry="0.953431" transform="matrix(0.791812 0.610765 -0.598066 0.801446 83.8854 60.054)" fill="white"/>
<path d="M78.9844 72C78.888 76.5604 77.5877 80.1669 71.9912 80.167C66.3945 80.167 65.0944 76.5605 64.998 72H78.9844Z" fill="#FF7868"/>
</g>
<defs>
<filter id="filter0_d_1671_5052" x="0" y="0" width="116" height="116" filterUnits="userSpaceOnUse" color-interpolation-filters="sRGB">
<feFlood flood-opacity="0" result="BackgroundImageFix"/>
<feColorMatrix in="SourceAlpha" type="matrix" values="0 0 0 0 0 0 0 0 0 0 0 0 0 0 0 0 0 0 127 0" result="hardAlpha"/>
<feOffset/>
<feGaussianBlur stdDeviation="2"/>
<feComposite in2="hardAlpha" operator="out"/>
<feColorMatrix type="matrix" values="0 0 0 0 0 0 0 0 0 0 0 0 0 0 0 0 0 0 0.02 0"/>
<feBlend mode="normal" in2="BackgroundImageFix" result="effect1_dropShadow_1671_5052"/>
<feBlend mode="normal" in="SourceGraphic" in2="effect1_dropShadow_1671_5052" result="shape"/>
</filter>
</defs>
</svg>
