<svg width="116" height="116" viewBox="0 0 116 116" fill="none" xmlns="http://www.w3.org/2000/svg">
<g filter="url(#filter0_d_1671_5043)">
<rect x="4" y="4" width="108" height="108" rx="16" fill="#F6F6F7" shape-rendering="crispEdges"/>
<path d="M24.8477 20.3984V21.6758C24.8477 23.1406 24.8477 24.5938 24.4609 26.7969L22.9492 26.668C23.3477 24.6172 23.3477 23.0938 23.3594 21.6758V21.5938H17.3242V20.3984H24.8477ZM26.043 27.4531V28.6836H16.3164V27.4531H26.043ZM36.543 20.7734V21.9922H35.1484V23.0352H36.543V24.2891H35.1484V25.6484H33.6484V19.4141H35.1484V20.7734H36.543ZM31.6328 25.7773C33.8242 25.7656 35.2539 26.6094 35.2539 27.9219C35.2539 29.2812 33.8242 30.0898 31.6328 30.0898C29.418 30.0898 27.9766 29.2812 27.9766 27.9219C27.9766 26.6094 29.418 25.7656 31.6328 25.7773ZM31.6328 26.9727C30.25 26.9727 29.4414 27.2891 29.4531 27.9219C29.4414 28.5664 30.25 28.9062 31.6328 28.9062C32.9688 28.9062 33.7773 28.5664 33.7773 27.9219C33.7773 27.2891 32.9688 26.9727 31.6328 26.9727ZM28.6211 20.0117V23.7617C29.9102 23.7441 31.2988 23.6211 32.7812 23.3281L32.957 24.5352C31.1992 24.8867 29.5469 24.9922 28.0352 24.9922H27.1211V20.0117H28.6211ZM48.3555 20.3984V21.6758C48.3555 23.1406 48.3555 24.5938 47.9688 26.7969L46.457 26.668C46.8555 24.6172 46.8555 23.0938 46.8672 21.6758V21.5938H40.832V20.3984H48.3555ZM49.5508 27.4531V28.6836H39.8242V27.4531H49.5508ZM54.543 20.4453V24.5586H51.9297V26.4688C52.9434 26.457 53.9102 26.416 55 26.2461L55.1055 27.4414C53.7109 27.6758 52.5625 27.7109 51.2383 27.7109H50.5V23.3633H53.1016V21.6523H50.4883V20.4453H54.543ZM59.418 19.4141V30.0781H58V24.6523H56.9688V29.5625H55.5977V19.5898H56.9688V23.4453H58V19.4141H59.418ZM70.3281 27.6055V28.8359H60.5664V27.6055H62.7461V24.9922C61.9199 24.5 61.4219 23.7441 61.4219 22.8008C61.4219 21.0781 63.1094 19.9297 65.4297 19.9297C67.7383 19.9297 69.4375 21.0781 69.4492 22.8008C69.4434 23.7207 68.957 24.4707 68.1602 24.9688V27.6055H70.3281ZM65.4297 21.1133C63.9062 21.1133 62.8984 21.7227 62.8984 22.8008C62.8984 23.8438 63.9062 24.4883 65.4297 24.4883C66.9414 24.4883 67.9609 23.8438 67.9727 22.8008C67.9609 21.7227 66.9414 21.1133 65.4297 21.1133ZM64.2227 27.6055H66.6484V25.5312C66.2676 25.6074 65.8574 25.6484 65.4297 25.6484C65.002 25.6484 64.5977 25.6133 64.2227 25.5312V27.6055Z" fill="#43464A"/>
<path d="M100 72C100 87.464 87.464 100 72 100C56.536 100 44 87.464 44 72C44 56.536 56.536 44 72 44C87.464 44 100 56.536 100 72Z" fill="#FDD057"/>
<path d="M78 81C78 81 75.75 81 72 81C68.25 81 66 81 66 81" stroke="black" stroke-width="3.25161" stroke-linecap="round"/>
<circle cx="62" cy="69" r="3" fill="black"/>
<circle cx="82" cy="69" r="3" fill="black"/>
</g>
<defs>
<filter id="filter0_d_1671_5043" x="0" y="0" width="116" height="116" filterUnits="userSpaceOnUse" color-interpolation-filters="sRGB">
<feFlood flood-opacity="0" result="BackgroundImageFix"/>
<feColorMatrix in="SourceAlpha" type="matrix" values="0 0 0 0 0 0 0 0 0 0 0 0 0 0 0 0 0 0 127 0" result="hardAlpha"/>
<feOffset/>
<feGaussianBlur stdDeviation="2"/>
<feComposite in2="hardAlpha" operator="out"/>
<feColorMatrix type="matrix" values="0 0 0 0 0 0 0 0 0 0 0 0 0 0 0 0 0 0 0.02 0"/>
<feBlend mode="normal" in2="BackgroundImageFix" result="effect1_dropShadow_1671_5043"/>
<feBlend mode="normal" in="SourceGraphic" in2="effect1_dropShadow_1671_5043" result="shape"/>
</filter>
</defs>
</svg>
