<svg width="116" height="116" viewBox="0 0 116 116" fill="none" xmlns="http://www.w3.org/2000/svg">
<g filter="url(#filter0_d_1671_5001)">
<rect x="4" y="4" width="108" height="108" rx="16" fill="#F6F6F7" shape-rendering="crispEdges"/>
<path d="M26.0781 27.6172V28.8359H16.3164V27.6172H20.4297V25.6484H17.3477V20.0938H18.8477V21.7461H23.5V20.0938H24.9883V25.6484H21.918V27.6172H26.0781ZM18.8477 24.4531H23.5V22.9414H18.8477V24.4531ZM35.4766 20.3398V21.3477C35.4766 22.6836 35.4766 24.1836 35.043 26.4453L33.543 26.293C33.9473 24.2773 33.9648 22.7773 33.9766 21.5234H27.6953V20.3398H35.4766ZM36.4141 27.5586V28.7773H26.6875V27.5586H30.168V23.8906H31.6562V27.5586H36.4141ZM48.7539 19.4258V25.332H47.2539V19.4258H48.7539ZM43.9141 20.8203C43.9023 22.0859 44.6758 23.3398 46.4219 23.8203L45.707 25.0039C44.4766 24.6406 43.627 23.9023 43.1406 22.9531C42.6543 23.9844 41.7812 24.7988 40.5039 25.1797L39.7891 24.0078C41.5703 23.4688 42.3555 22.1445 42.3555 20.8203V19.7891H43.9141V20.8203ZM48.8125 25.8125V26.9961H47.5352V28.7656H48.9062V29.9609H41.3945V28.7656H42.7773V26.9961H41.4883V25.8125H48.8125ZM44.2539 28.7656H46.0586V26.9961H44.2539V28.7656ZM53.1367 20.1641C54.5781 20.1641 55.6504 21.3535 55.8672 23.2695H57.7188V19.4141H59.1953V30.1016H57.7188V24.4648H55.8789C55.7207 26.5156 54.625 27.7695 53.1367 27.7695C51.5195 27.7695 50.3594 26.3047 50.3711 23.9609C50.3594 21.6406 51.5195 20.1641 53.1367 20.1641ZM53.1367 21.5117C52.3398 21.5117 51.7891 22.3789 51.8008 23.9609C51.7891 25.5547 52.3398 26.4102 53.1367 26.4102C53.9453 26.4102 54.4727 25.5547 54.4727 23.9609C54.4727 22.3789 53.9453 21.5117 53.1367 21.5117ZM70.3281 27.6055V28.8359H60.5664V27.6055H62.7461V24.9922C61.9199 24.5 61.4219 23.7441 61.4219 22.8008C61.4219 21.0781 63.1094 19.9297 65.4297 19.9297C67.7383 19.9297 69.4375 21.0781 69.4492 22.8008C69.4434 23.7207 68.957 24.4707 68.1602 24.9688V27.6055H70.3281ZM65.4297 21.1133C63.9062 21.1133 62.8984 21.7227 62.8984 22.8008C62.8984 23.8438 63.9062 24.4883 65.4297 24.4883C66.9414 24.4883 67.9609 23.8438 67.9727 22.8008C67.9609 21.7227 66.9414 21.1133 65.4297 21.1133ZM64.2227 27.6055H66.6484V25.5312C66.2676 25.6074 65.8574 25.6484 65.4297 25.6484C65.002 25.6484 64.5977 25.6133 64.2227 25.5312V27.6055Z" fill="#43464A"/>
<circle cx="72" cy="72" r="28" fill="#FDD057"/>
<mask id="mask0_1671_5001" style="mask-type:alpha" maskUnits="userSpaceOnUse" x="44" y="44" width="56" height="56">
<circle cx="72" cy="72" r="28" fill="#FDD057"/>
</mask>
<g mask="url(#mask0_1671_5001)">
<path d="M61.5 101.167H56.8333V60.3333H61.5V101.167Z" fill="#9AD2FF"/>
<path d="M87.4712 101.166H82.8042V60.3333H87.4712V101.166Z" fill="#9AD2FF"/>
</g>
<path d="M57.0668 55.9999L64.433 59.8738L55.0002 60.8848" stroke="black" stroke-width="2.6" stroke-linecap="round" stroke-linejoin="round"/>
<path d="M87.2228 55.9999L79.8566 59.8738L89.2894 60.8848" stroke="black" stroke-width="2.6" stroke-linecap="round" stroke-linejoin="round"/>
<path d="M68 65.6667C70 62.1111 74 62.1111 76 65.6667" stroke="#2C2E31" stroke-width="3" stroke-linecap="round"/>
</g>
<defs>
<filter id="filter0_d_1671_5001" x="0" y="0" width="116" height="116" filterUnits="userSpaceOnUse" color-interpolation-filters="sRGB">
<feFlood flood-opacity="0" result="BackgroundImageFix"/>
<feColorMatrix in="SourceAlpha" type="matrix" values="0 0 0 0 0 0 0 0 0 0 0 0 0 0 0 0 0 0 127 0" result="hardAlpha"/>
<feOffset/>
<feGaussianBlur stdDeviation="2"/>
<feComposite in2="hardAlpha" operator="out"/>
<feColorMatrix type="matrix" values="0 0 0 0 0 0 0 0 0 0 0 0 0 0 0 0 0 0 0.02 0"/>
<feBlend mode="normal" in2="BackgroundImageFix" result="effect1_dropShadow_1671_5001"/>
<feBlend mode="normal" in="SourceGraphic" in2="effect1_dropShadow_1671_5001" result="shape"/>
</filter>
</defs>
</svg>
