<svg width="116" height="116" viewBox="0 0 116 116" fill="none" xmlns="http://www.w3.org/2000/svg">
<g filter="url(#filter0_d_788_3183)">
<rect x="4" y="4" width="108" height="108" rx="16" fill="#F6F6F7" shape-rendering="crispEdges"/>
<path d="M25.2812 19.4141V30.0781H23.7695V19.4141H25.2812ZM22.6211 20.3984V21.5938H21.6719V26.2227C22.1406 26.1934 22.6035 26.1465 23.0547 26.0938L23.125 27.207C20.8516 27.582 18.3906 27.6172 16.4336 27.6289L16.293 26.4102L17.5234 26.3984V21.5938H16.5859V20.3984H22.6211ZM18.9766 26.3633L20.2188 26.3164V21.5938H18.9766V26.3633ZM35.2422 20.0117V20.7617C35.2422 21.582 35.2422 22.6133 34.9492 23.9258L33.4609 23.7734C33.6953 22.7012 33.7363 21.8984 33.7539 21.1836H27.8008V20.0117H35.2422ZM36.3906 24.5V25.707H26.7109V24.5H30.3438V22.4961H31.8203V24.5H36.3906ZM35.4766 28.6953V29.8906H27.8359V26.5977H29.3359V28.6953H35.4766ZM42.2031 21.043V22.2266H37.0469V21.043H38.8984V19.707H40.375V21.043H42.2031ZM39.6484 22.707C41.0078 22.707 41.9805 23.7617 41.9922 25.2383C41.9805 26.7266 41.0078 27.7812 39.6484 27.7812C38.2891 27.7812 37.293 26.7266 37.293 25.2383C37.293 23.7617 38.2891 22.707 39.6484 22.707ZM39.6484 23.9492C39.0273 23.9492 38.6055 24.4297 38.6055 25.2383C38.6055 26.0469 39.0273 26.5156 39.6484 26.5156C40.2461 26.5156 40.668 26.0469 40.6797 25.2383C40.668 24.4297 40.2461 23.9492 39.6484 23.9492ZM46.2812 19.4141V30.0781H44.8633V24.9453H43.9961V29.6211H42.6016V19.625H43.9961V23.75H44.8633V19.4141H46.2812ZM57.1914 27.6055V28.8359H47.4297V27.6055H49.6094V24.9922C48.7832 24.5 48.2852 23.7441 48.2852 22.8008C48.2852 21.0781 49.9727 19.9297 52.293 19.9297C54.6016 19.9297 56.3008 21.0781 56.3125 22.8008C56.3066 23.7207 55.8203 24.4707 55.0234 24.9688V27.6055H57.1914ZM52.293 21.1133C50.7695 21.1133 49.7617 21.7227 49.7617 22.8008C49.7617 23.8438 50.7695 24.4883 52.293 24.4883C53.8047 24.4883 54.8242 23.8438 54.8359 22.8008C54.8242 21.7227 53.8047 21.1133 52.293 21.1133ZM51.0859 27.6055H53.5117V25.5312C53.1309 25.6074 52.7207 25.6484 52.293 25.6484C51.8652 25.6484 51.4609 25.6133 51.0859 25.5312V27.6055Z" fill="#43464A"/>
<g clip-path="url(#clip0_788_3183)">
<path fill-rule="evenodd" clip-rule="evenodd" d="M76 95.8819C81.4903 101.372 90.3919 101.372 95.8823 95.882C101.373 90.3917 101.373 81.4902 95.8823 75.9999C101.373 70.5096 101.373 61.608 95.8823 56.1177C90.3919 50.6274 81.4904 50.6274 76.0001 56.1177C70.5098 50.6274 61.6081 50.6274 56.1177 56.1177C50.6274 61.608 50.6274 70.5096 56.1177 75.9999C50.6274 81.4902 50.6274 90.3917 56.1177 95.882C61.6081 101.372 70.5097 101.372 76 95.8819Z" fill="#BEA8FF"/>
<circle cx="76" cy="76" r="20" fill="url(#paint0_radial_788_3183)"/>
<rect opacity="0.8" x="72.4995" y="69.8074" width="7.17966" height="8.97455" rx="3.58983" fill="#967BFF"/>
<path d="M73.8208 79.5006C75.0614 77.4419 77.5427 77.4418 78.7834 79.5006" stroke="#43464A" stroke-width="1.66956" stroke-linecap="round"/>
<mask id="path-7-inside-1_788_3183" fill="white">
<path d="M88.295 74.8545C88.295 74.0319 87.9683 73.243 87.3866 72.6614C86.8049 72.0797 86.016 71.7529 85.1934 71.7529C84.3708 71.7529 83.5819 72.0797 83.0002 72.6614C82.4186 73.243 82.0918 74.0319 82.0918 74.8545L85.1934 74.8545H88.295Z"/>
</mask>
<path d="M88.295 74.8545C88.295 74.0319 87.9683 73.243 87.3866 72.6614C86.8049 72.0797 86.016 71.7529 85.1934 71.7529C84.3708 71.7529 83.5819 72.0797 83.0002 72.6614C82.4186 73.243 82.0918 74.0319 82.0918 74.8545L85.1934 74.8545H88.295Z" fill="#43464A" stroke="#43464A" stroke-width="2.08695" mask="url(#path-7-inside-1_788_3183)"/>
<mask id="path-8-inside-2_788_3183" fill="white">
<path d="M88.2948 74.8549C88.2948 75.6775 87.968 76.4664 87.3863 77.0481C86.8047 77.6298 86.0158 77.9565 85.1932 77.9565C84.3706 77.9565 83.5817 77.6298 83 77.0481C82.4183 76.4664 82.0916 75.6775 82.0916 74.8549L85.1932 74.8549H88.2948Z"/>
</mask>
<path d="M88.2948 74.8549C88.2948 75.6775 87.968 76.4664 87.3863 77.0481C86.8047 77.6298 86.0158 77.9565 85.1932 77.9565C84.3706 77.9565 83.5817 77.6298 83 77.0481C82.4183 76.4664 82.0916 75.6775 82.0916 74.8549L85.1932 74.8549H88.2948Z" fill="#967BFF" stroke="#967BFF" stroke-width="2.08695" mask="url(#path-8-inside-2_788_3183)"/>
<mask id="path-9-inside-3_788_3183" fill="white">
<path d="M69.6854 74.8545C69.6854 74.0319 69.3586 73.243 68.777 72.6614C68.1953 72.0797 67.4064 71.7529 66.5838 71.7529C65.7612 71.7529 64.9723 72.0797 64.3906 72.6614C63.809 73.243 63.4822 74.0319 63.4822 74.8545L66.5838 74.8545H69.6854Z"/>
</mask>
<path d="M69.6854 74.8545C69.6854 74.0319 69.3586 73.243 68.777 72.6614C68.1953 72.0797 67.4064 71.7529 66.5838 71.7529C65.7612 71.7529 64.9723 72.0797 64.3906 72.6614C63.809 73.243 63.4822 74.0319 63.4822 74.8545L66.5838 74.8545H69.6854Z" fill="#43464A" stroke="#43464A" stroke-width="2.08695" mask="url(#path-9-inside-3_788_3183)"/>
<mask id="path-10-inside-4_788_3183" fill="white">
<path d="M69.6854 74.8549C69.6854 75.6775 69.3586 76.4664 68.777 77.0481C68.1953 77.6298 67.4064 77.9565 66.5838 77.9565C65.7612 77.9565 64.9723 77.6298 64.3906 77.0481C63.809 76.4664 63.4822 75.6775 63.4822 74.8549L66.5838 74.8549H69.6854Z"/>
</mask>
<path d="M69.6854 74.8549C69.6854 75.6775 69.3586 76.4664 68.777 77.0481C68.1953 77.6298 67.4064 77.9565 66.5838 77.9565C65.7612 77.9565 64.9723 77.6298 64.3906 77.0481C63.809 76.4664 63.4822 75.6775 63.4822 74.8549L66.5838 74.8549H69.6854Z" fill="#967BFF" stroke="#967BFF" stroke-width="2.08695" mask="url(#path-10-inside-4_788_3183)"/>
</g>
</g>
<defs>
<filter id="filter0_d_788_3183" x="0" y="0" width="116" height="116" filterUnits="userSpaceOnUse" color-interpolation-filters="sRGB">
<feFlood flood-opacity="0" result="BackgroundImageFix"/>
<feColorMatrix in="SourceAlpha" type="matrix" values="0 0 0 0 0 0 0 0 0 0 0 0 0 0 0 0 0 0 127 0" result="hardAlpha"/>
<feOffset/>
<feGaussianBlur stdDeviation="2"/>
<feComposite in2="hardAlpha" operator="out"/>
<feColorMatrix type="matrix" values="0 0 0 0 0 0 0 0 0 0 0 0 0 0 0 0 0 0 0.02 0"/>
<feBlend mode="normal" in2="BackgroundImageFix" result="effect1_dropShadow_788_3183"/>
<feBlend mode="normal" in="SourceGraphic" in2="effect1_dropShadow_788_3183" result="shape"/>
</filter>
<radialGradient id="paint0_radial_788_3183" cx="0" cy="0" r="1" gradientUnits="userSpaceOnUse" gradientTransform="translate(76 76) rotate(90) scale(20)">
<stop stop-color="#9F7EFF" stop-opacity="0.8"/>
<stop offset="1" stop-color="#A8B4FF" stop-opacity="0"/>
</radialGradient>
<clipPath id="clip0_788_3183">
<rect width="48" height="47.9997" fill="white" transform="translate(52 52)"/>
</clipPath>
</defs>
</svg>
