<svg width="116" height="116" viewBox="0 0 116 116" fill="none" xmlns="http://www.w3.org/2000/svg">
<g filter="url(#filter0_d_788_3314)">
<rect x="4" y="4" width="108" height="108" rx="16" fill="#F6F6F7" shape-rendering="crispEdges"/>
<path d="M20.3477 21.8281C20.3477 23.832 21.1562 25.7773 22.9375 26.5508L22.0234 27.7461C20.8398 27.166 20.0488 26.1055 19.6094 24.793C19.1406 26.1875 18.3203 27.3301 17.1016 27.9336L16.1641 26.7148C17.9922 25.8945 18.8242 23.832 18.8359 21.8281V20.2344H20.3477V21.8281ZM25.3164 19.4141V30.1016H23.8398V23.9727H21.7422V22.7656H23.8398V19.4141H25.3164ZM36.4375 24.6055V25.8008H32.3945V27.6523H30.8828V25.8008H26.6758V24.6055H36.4375ZM35.3594 28.6836V29.8906H27.8359V26.7031H29.3477V28.6836H35.3594ZM31.5508 19.6133C33.8594 19.625 35.3945 20.4805 35.4062 21.8281C35.3945 23.1875 33.8594 24.0312 31.5508 24.0312C29.2305 24.0312 27.6836 23.1875 27.6836 21.8281C27.6836 20.4805 29.2305 19.625 31.5508 19.6133ZM31.5508 20.7969C30.168 20.7969 29.2891 21.1484 29.3008 21.8281C29.2891 22.4844 30.168 22.8359 31.5508 22.8359C32.9219 22.8359 33.8008 22.4844 33.8008 21.8281C33.8008 21.1484 32.9219 20.7969 31.5508 20.7969ZM42.2031 21.043V22.2266H37.0469V21.043H38.8984V19.707H40.375V21.043H42.2031ZM39.6484 22.707C41.0078 22.707 41.9805 23.7617 41.9922 25.2383C41.9805 26.7266 41.0078 27.7812 39.6484 27.7812C38.2891 27.7812 37.293 26.7266 37.293 25.2383C37.293 23.7617 38.2891 22.707 39.6484 22.707ZM39.6484 23.9492C39.0273 23.9492 38.6055 24.4297 38.6055 25.2383C38.6055 26.0469 39.0273 26.5156 39.6484 26.5156C40.2461 26.5156 40.668 26.0469 40.6797 25.2383C40.668 24.4297 40.2461 23.9492 39.6484 23.9492ZM46.2812 19.4141V30.0781H44.8633V24.9453H43.9961V29.6211H42.6016V19.625H43.9961V23.75H44.8633V19.4141H46.2812ZM57.1914 27.6055V28.8359H47.4297V27.6055H49.6094V24.9922C48.7832 24.5 48.2852 23.7441 48.2852 22.8008C48.2852 21.0781 49.9727 19.9297 52.293 19.9297C54.6016 19.9297 56.3008 21.0781 56.3125 22.8008C56.3066 23.7207 55.8203 24.4707 55.0234 24.9688V27.6055H57.1914ZM52.293 21.1133C50.7695 21.1133 49.7617 21.7227 49.7617 22.8008C49.7617 23.8438 50.7695 24.4883 52.293 24.4883C53.8047 24.4883 54.8242 23.8438 54.8359 22.8008C54.8242 21.7227 53.8047 21.1133 52.293 21.1133ZM51.0859 27.6055H53.5117V25.5312C53.1309 25.6074 52.7207 25.6484 52.293 25.6484C51.8652 25.6484 51.4609 25.6133 51.0859 25.5312V27.6055Z" fill="#43464A"/>
<path fill-rule="evenodd" clip-rule="evenodd" d="M56.1178 75.9997C50.6275 70.5094 50.6275 61.6078 56.1178 56.1175C61.6081 50.6272 70.5096 50.6272 75.9999 56.1175C81.4903 50.6272 90.3918 50.6272 95.8821 56.1175C101.372 61.6078 101.372 70.5094 95.8821 75.9997C101.372 81.49 101.372 90.3916 95.8821 95.8819C90.3918 101.372 81.4903 101.372 75.9999 95.8819C70.5096 101.372 61.6081 101.372 56.1178 95.8819C50.6275 90.3916 50.6275 81.49 56.1178 75.9997Z" fill="#9AD2FF"/>
<circle cx="76" cy="76" r="20" fill="url(#paint0_radial_788_3314)"/>
<path d="M73.801 79.5331C75.0532 77.4552 77.5575 77.4552 78.8097 79.5331" stroke="#43464A" stroke-width="1.66956" stroke-linecap="round"/>
<path d="M84.2427 68.4133L87.4133 69.3136" stroke="#43464A" stroke-width="1.44927" stroke-linecap="round"/>
<path d="M67.5476 68.4294L64.3155 69.0748" stroke="#43464A" stroke-width="1.44927" stroke-linecap="round"/>
<circle cx="66.4966" cy="74.844" r="2.60869" fill="#43464A" stroke="#43464A" stroke-width="1.04348"/>
<circle cx="85.2794" cy="74.8443" r="2.60869" fill="#43464A" stroke="#43464A" stroke-width="1.04348"/>
<path d="M87.8661 84.2426C87.8661 85.2431 87.055 86.0542 86.0545 86.0542C85.054 86.0542 84.2429 85.2431 84.2429 84.2426C84.2429 83.2421 86.0545 79.7136 86.0545 79.7136C86.0545 79.7136 87.8661 83.2421 87.8661 84.2426Z" fill="white"/>
</g>
<defs>
<filter id="filter0_d_788_3314" x="0" y="0" width="116" height="116" filterUnits="userSpaceOnUse" color-interpolation-filters="sRGB">
<feFlood flood-opacity="0" result="BackgroundImageFix"/>
<feColorMatrix in="SourceAlpha" type="matrix" values="0 0 0 0 0 0 0 0 0 0 0 0 0 0 0 0 0 0 127 0" result="hardAlpha"/>
<feOffset/>
<feGaussianBlur stdDeviation="2"/>
<feComposite in2="hardAlpha" operator="out"/>
<feColorMatrix type="matrix" values="0 0 0 0 0 0 0 0 0 0 0 0 0 0 0 0 0 0 0.02 0"/>
<feBlend mode="normal" in2="BackgroundImageFix" result="effect1_dropShadow_788_3314"/>
<feBlend mode="normal" in="SourceGraphic" in2="effect1_dropShadow_788_3314" result="shape"/>
</filter>
<radialGradient id="paint0_radial_788_3314" cx="0" cy="0" r="1" gradientUnits="userSpaceOnUse" gradientTransform="translate(76 76) rotate(90) scale(20)">
<stop stop-color="#71C0FF" stop-opacity="0.8"/>
<stop offset="1" stop-color="#9AD2FF" stop-opacity="0"/>
</radialGradient>
</defs>
</svg>
