<svg width="116" height="116" viewBox="0 0 116 116" fill="none" xmlns="http://www.w3.org/2000/svg">
<g filter="url(#filter0_d_788_3006)">
<rect x="4" y="4" width="108" height="108" rx="16" fill="#75C9B0" shape-rendering="crispEdges"/>
<path d="M25.2812 19.4141V30.0781H23.7695V19.4141H25.2812ZM22.082 20.5273C22.082 23.7617 20.9453 26.4453 17.1367 28.25L16.3516 27.0547C19.1055 25.7539 20.3184 24.0664 20.5586 21.6992H16.9258V20.5273H22.082ZM36.4375 24.8867V26.0586H32.418V27.7812H30.9414V26.0586H26.6758V24.8867H36.4375ZM35.3594 28.6953V29.8906H27.8242V26.9375H29.3008V28.6953H35.3594ZM29.4062 19.7539V20.8672H33.6836V19.7539H35.1719V24.1367H27.9297V19.7539H29.4062ZM29.4062 22.9531H33.6836V21.9805H29.4062V22.9531ZM45.4141 22.5898V23.5742H49.5742V24.7695H39.8125V23.5742H43.9375V22.5898H45.4141ZM48.6719 19.6719V20.8086H45.8008C46.1055 21.4238 47.1777 21.9805 49.1289 22.0859L48.6602 23.1992C46.6035 23.0586 45.2324 22.4023 44.6875 21.4414C44.1367 22.3965 42.7656 23.0586 40.7148 23.1992L40.2344 22.0859C42.1504 21.9805 43.2461 21.418 43.5625 20.8086H40.7148V19.6719H48.6719ZM48.6484 25.8594V26.9727H40.7031V25.8594H43.9258V25.0625H45.4258V25.8594H48.6484ZM44.6641 27.2891C46.7266 27.2891 47.957 27.7812 47.957 28.6953C47.957 29.6211 46.7266 30.1133 44.6641 30.1133C42.5781 30.1133 41.3945 29.6211 41.3945 28.6953C41.3945 27.7812 42.5781 27.2891 44.6641 27.2891ZM44.6641 28.2734C43.5156 28.2852 42.9297 28.3906 42.9297 28.6953C42.9297 28.9883 43.5156 29.1289 44.6641 29.1289C45.8242 29.1289 46.3867 28.9883 46.3984 28.6953C46.3867 28.3906 45.8242 28.2852 44.6641 28.2734ZM53.0664 20.1641C54.6953 20.1641 55.8672 21.6406 55.8789 23.9609C55.8672 26.3047 54.6953 27.7695 53.0664 27.7695C51.4375 27.7695 50.2422 26.3047 50.2539 23.9609C50.2422 21.6406 51.4375 20.1641 53.0664 20.1641ZM53.0664 21.5117C52.2461 21.5117 51.6953 22.3789 51.6953 23.9609C51.6953 25.5547 52.2461 26.4102 53.0664 26.4102C53.8984 26.4102 54.4375 25.5547 54.4492 23.9609C54.4375 22.3789 53.8984 21.5117 53.0664 21.5117ZM58.6094 19.4141V23.4336H60.1797V24.6758H58.6094V30.0781H57.1094V19.4141H58.6094ZM70.3281 27.6055V28.8359H60.5664V27.6055H62.7461V24.9922C61.9199 24.5 61.4219 23.7441 61.4219 22.8008C61.4219 21.0781 63.1094 19.9297 65.4297 19.9297C67.7383 19.9297 69.4375 21.0781 69.4492 22.8008C69.4434 23.7207 68.957 24.4707 68.1602 24.9688V27.6055H70.3281ZM65.4297 21.1133C63.9062 21.1133 62.8984 21.7227 62.8984 22.8008C62.8984 23.8438 63.9062 24.4883 65.4297 24.4883C66.9414 24.4883 67.9609 23.8438 67.9727 22.8008C67.9609 21.7227 66.9414 21.1133 65.4297 21.1133ZM64.2227 27.6055H66.6484V25.5312C66.2676 25.6074 65.8574 25.6484 65.4297 25.6484C65.002 25.6484 64.5977 25.6133 64.2227 25.5312V27.6055Z" fill="white"/>
<path fill-rule="evenodd" clip-rule="evenodd" d="M76 75.9999L76 75.9999L76 75.9999C76 75.9999 76 75.9999 76 75.9999C76 75.9999 76 75.9999 76 75.9999ZM76 95.8819C76 95.882 76 95.882 76.0001 95.882C81.4904 101.372 90.3919 101.372 95.8823 95.882C101.373 90.3917 101.373 81.4902 95.8823 75.9999C101.373 70.5096 101.373 61.608 95.8823 56.1177C90.3919 50.6274 81.4904 50.6274 76.0001 56.1177L76 56.1178L75.9999 56.1177C70.5096 50.6274 61.6081 50.6274 56.1177 56.1177C50.6274 61.608 50.6274 70.5096 56.1177 75.9999C50.6274 81.4902 50.6274 90.3917 56.1177 95.882C61.6081 101.372 70.5096 101.372 75.9999 95.882C76 95.882 76 95.882 76 95.8819Z" fill="white"/>
<path d="M73.801 77.9745C75.0532 80.0524 77.5575 80.0524 78.8097 77.9745" stroke="#75C9B0" stroke-width="1.66956" stroke-linecap="round"/>
<circle cx="66.4966" cy="74.844" r="2.60869" fill="#75C9B0" stroke="#75C9B0" stroke-width="1.04348"/>
<circle cx="85.2792" cy="74.844" r="2.60869" fill="#75C9B0" stroke="#75C9B0" stroke-width="1.04348"/>
<circle cx="61.598" cy="81.5253" r="3.62318" fill="#BFE6DA"/>
<circle cx="90.5834" cy="81.5253" r="3.62318" fill="#BFE6DA"/>
</g>
<defs>
<filter id="filter0_d_788_3006" x="0" y="0" width="116" height="116" filterUnits="userSpaceOnUse" color-interpolation-filters="sRGB">
<feFlood flood-opacity="0" result="BackgroundImageFix"/>
<feColorMatrix in="SourceAlpha" type="matrix" values="0 0 0 0 0 0 0 0 0 0 0 0 0 0 0 0 0 0 127 0" result="hardAlpha"/>
<feOffset/>
<feGaussianBlur stdDeviation="2"/>
<feComposite in2="hardAlpha" operator="out"/>
<feColorMatrix type="matrix" values="0 0 0 0 0 0 0 0 0 0 0 0 0 0 0 0 0 0 0.02 0"/>
<feBlend mode="normal" in2="BackgroundImageFix" result="effect1_dropShadow_788_3006"/>
<feBlend mode="normal" in="SourceGraphic" in2="effect1_dropShadow_788_3006" result="shape"/>
</filter>
</defs>
</svg>
