<svg width="116" height="116" viewBox="0 0 116 116" fill="none" xmlns="http://www.w3.org/2000/svg">
<g filter="url(#filter0_d_1671_4989)">
<rect x="4" y="4" width="108" height="108" rx="16" fill="#75C9B0" shape-rendering="crispEdges"/>
<path d="M25.2812 19.4141V30.0781H23.7695V19.4141H25.2812ZM22.6211 20.3984V21.5938H21.6719V26.2227C22.1406 26.1934 22.6035 26.1465 23.0547 26.0938L23.125 27.207C20.8516 27.582 18.3906 27.6172 16.4336 27.6289L16.293 26.4102L17.5234 26.3984V21.5938H16.5859V20.3984H22.6211ZM18.9766 26.3633L20.2188 26.3164V21.5938H18.9766V26.3633ZM35.2422 20.0117V20.7617C35.2422 21.582 35.2422 22.6133 34.9492 23.9258L33.4609 23.7734C33.6953 22.7012 33.7363 21.8984 33.7539 21.1836H27.8008V20.0117H35.2422ZM36.3906 24.5V25.707H26.7109V24.5H30.3438V22.4961H31.8203V24.5H36.3906ZM35.4766 28.6953V29.8906H27.8359V26.5977H29.3359V28.6953H35.4766ZM42.2031 21.043V22.2266H37.0469V21.043H38.8984V19.707H40.375V21.043H42.2031ZM39.6484 22.707C41.0078 22.707 41.9805 23.7617 41.9922 25.2383C41.9805 26.7266 41.0078 27.7812 39.6484 27.7812C38.2891 27.7812 37.293 26.7266 37.293 25.2383C37.293 23.7617 38.2891 22.707 39.6484 22.707ZM39.6484 23.9492C39.0273 23.9492 38.6055 24.4297 38.6055 25.2383C38.6055 26.0469 39.0273 26.5156 39.6484 26.5156C40.2461 26.5156 40.668 26.0469 40.6797 25.2383C40.668 24.4297 40.2461 23.9492 39.6484 23.9492ZM46.2812 19.4141V30.0781H44.8633V24.9453H43.9961V29.6211H42.6016V19.625H43.9961V23.75H44.8633V19.4141H46.2812ZM57.1914 27.6055V28.8359H47.4297V27.6055H49.6094V24.9922C48.7832 24.5 48.2852 23.7441 48.2852 22.8008C48.2852 21.0781 49.9727 19.9297 52.293 19.9297C54.6016 19.9297 56.3008 21.0781 56.3125 22.8008C56.3066 23.7207 55.8203 24.4707 55.0234 24.9688V27.6055H57.1914ZM52.293 21.1133C50.7695 21.1133 49.7617 21.7227 49.7617 22.8008C49.7617 23.8438 50.7695 24.4883 52.293 24.4883C53.8047 24.4883 54.8242 23.8438 54.8359 22.8008C54.8242 21.7227 53.8047 21.1133 52.293 21.1133ZM51.0859 27.6055H53.5117V25.5312C53.1309 25.6074 52.7207 25.6484 52.293 25.6484C51.8652 25.6484 51.4609 25.6133 51.0859 25.5312V27.6055Z" fill="white"/>
<path d="M100 72C100 87.464 87.464 100 72 100C56.536 100 44 87.464 44 72C44 56.536 56.536 44 72 44C87.464 44 100 56.536 100 72Z" fill="white"/>
<path d="M88.5162 70.8063C88.5162 72.3463 87.9045 73.8232 86.8156 74.9121C85.7266 76.001 84.2497 76.6128 82.7098 76.6128C81.1698 76.6128 79.6929 76.001 78.604 74.9121C77.5151 73.8232 76.9033 72.3463 76.9033 70.8063L82.7098 70.8063H88.5162Z" fill="#BFE6DA"/>
<ellipse cx="82.7097" cy="71.3871" rx="3.48387" ry="2.90323" fill="#75C9B0"/>
<mask id="path-6-inside-1_1671_4989" fill="white">
<path d="M88.5162 70.8065C88.5162 69.2665 87.9045 67.7896 86.8156 66.7007C85.7266 65.6117 84.2497 65 82.7098 65C81.1698 65 79.6929 65.6117 78.604 66.7007C77.5151 67.7896 76.9033 69.2665 76.9033 70.8065L82.7098 70.8065H88.5162Z"/>
</mask>
<path d="M88.5162 70.8065C88.5162 69.2665 87.9045 67.7896 86.8156 66.7007C85.7266 65.6117 84.2497 65 82.7098 65C81.1698 65 79.6929 65.6117 78.604 66.7007C77.5151 67.7896 76.9033 69.2665 76.9033 70.8065L82.7098 70.8065H88.5162Z" fill="#75C9B0" stroke="#75C9B0" stroke-width="2.42356" mask="url(#path-6-inside-1_1671_4989)"/>
<path d="M67.6129 70.8063C67.6129 72.3463 67.0012 73.8232 65.9122 74.9121C64.8233 76.001 63.3464 76.6128 61.8065 76.6128C60.2665 76.6128 58.7896 76.001 57.7007 74.9121C56.6117 73.8232 56 72.3463 56 70.8063L61.8065 70.8063H67.6129Z" fill="#BFE6DA"/>
<ellipse cx="61.8064" cy="71.3871" rx="3.48387" ry="2.90323" fill="#75C9B0"/>
<mask id="path-9-inside-2_1671_4989" fill="white">
<path d="M67.6129 70.8065C67.6129 69.2665 67.0012 67.7896 65.9122 66.7007C64.8233 65.6117 63.3464 65 61.8065 65C60.2665 65 58.7896 65.6117 57.7007 66.7007C56.6117 67.7896 56 69.2665 56 70.8065L61.8065 70.8065H67.6129Z"/>
</mask>
<path d="M67.6129 70.8065C67.6129 69.2665 67.0012 67.7896 65.9122 66.7007C64.8233 65.6117 63.3464 65 61.8065 65C60.2665 65 58.7896 65.6117 57.7007 66.7007C56.6117 67.7896 56 69.2665 56 70.8065L61.8065 70.8065H67.6129Z" fill="#75C9B0" stroke="#75C9B0" stroke-width="2.42356" mask="url(#path-9-inside-2_1671_4989)"/>
<path d="M76.9033 83C76.9033 83 75.1614 83 72.2582 83C69.3549 83 67.613 83 67.613 83" stroke="#75C9B0" stroke-width="3.25161" stroke-linecap="round"/>
</g>
<defs>
<filter id="filter0_d_1671_4989" x="0" y="0" width="116" height="116" filterUnits="userSpaceOnUse" color-interpolation-filters="sRGB">
<feFlood flood-opacity="0" result="BackgroundImageFix"/>
<feColorMatrix in="SourceAlpha" type="matrix" values="0 0 0 0 0 0 0 0 0 0 0 0 0 0 0 0 0 0 127 0" result="hardAlpha"/>
<feOffset/>
<feGaussianBlur stdDeviation="2"/>
<feComposite in2="hardAlpha" operator="out"/>
<feColorMatrix type="matrix" values="0 0 0 0 0 0 0 0 0 0 0 0 0 0 0 0 0 0 0.02 0"/>
<feBlend mode="normal" in2="BackgroundImageFix" result="effect1_dropShadow_1671_4989"/>
<feBlend mode="normal" in="SourceGraphic" in2="effect1_dropShadow_1671_4989" result="shape"/>
</filter>
</defs>
</svg>
