<svg width="124" height="123" viewBox="0 0 124 123" fill="none" xmlns="http://www.w3.org/2000/svg">
<g filter="url(#filter0_d_788_2748)">
<rect x="4" y="4" width="108" height="108" rx="16" fill="#75C9B0" shape-rendering="crispEdges"/>
<path d="M26.0781 27.6172V28.8359H16.3164V27.6172H20.4297V25.6484H17.3477V20.0938H18.8477V21.7461H23.5V20.0938H24.9883V25.6484H21.918V27.6172H26.0781ZM18.8477 24.4531H23.5V22.9414H18.8477V24.4531ZM35.4766 20.3398V21.3477C35.4766 22.6836 35.4766 24.1836 35.043 26.4453L33.543 26.293C33.9473 24.2773 33.9648 22.7773 33.9766 21.5234H27.6953V20.3398H35.4766ZM36.4141 27.5586V28.7773H26.6875V27.5586H30.168V23.8906H31.6562V27.5586H36.4141ZM48.7539 19.4258V25.332H47.2539V19.4258H48.7539ZM43.9141 20.8203C43.9023 22.0859 44.6758 23.3398 46.4219 23.8203L45.707 25.0039C44.4766 24.6406 43.627 23.9023 43.1406 22.9531C42.6543 23.9844 41.7812 24.7988 40.5039 25.1797L39.7891 24.0078C41.5703 23.4688 42.3555 22.1445 42.3555 20.8203V19.7891H43.9141V20.8203ZM48.8125 25.8125V26.9961H47.5352V28.7656H48.9062V29.9609H41.3945V28.7656H42.7773V26.9961H41.4883V25.8125H48.8125ZM44.2539 28.7656H46.0586V26.9961H44.2539V28.7656ZM53.1367 20.1641C54.5781 20.1641 55.6504 21.3535 55.8672 23.2695H57.7188V19.4141H59.1953V30.1016H57.7188V24.4648H55.8789C55.7207 26.5156 54.625 27.7695 53.1367 27.7695C51.5195 27.7695 50.3594 26.3047 50.3711 23.9609C50.3594 21.6406 51.5195 20.1641 53.1367 20.1641ZM53.1367 21.5117C52.3398 21.5117 51.7891 22.3789 51.8008 23.9609C51.7891 25.5547 52.3398 26.4102 53.1367 26.4102C53.9453 26.4102 54.4727 25.5547 54.4727 23.9609C54.4727 22.3789 53.9453 21.5117 53.1367 21.5117ZM70.3281 27.6055V28.8359H60.5664V27.6055H62.7461V24.9922C61.9199 24.5 61.4219 23.7441 61.4219 22.8008C61.4219 21.0781 63.1094 19.9297 65.4297 19.9297C67.7383 19.9297 69.4375 21.0781 69.4492 22.8008C69.4434 23.7207 68.957 24.4707 68.1602 24.9688V27.6055H70.3281ZM65.4297 21.1133C63.9062 21.1133 62.8984 21.7227 62.8984 22.8008C62.8984 23.8438 63.9062 24.4883 65.4297 24.4883C66.9414 24.4883 67.9609 23.8438 67.9727 22.8008C67.9609 21.7227 66.9414 21.1133 65.4297 21.1133ZM64.2227 27.6055H66.6484V25.5312C66.2676 25.6074 65.8574 25.6484 65.4297 25.6484C65.002 25.6484 64.5977 25.6133 64.2227 25.5312V27.6055Z" fill="white"/>
<path fill-rule="evenodd" clip-rule="evenodd" d="M75.9 74.9L75.9 74.9L75.9 74.9C75.9 74.9 75.9 74.9 75.9 74.9C75.9 74.9 75.9 74.9 75.9 74.9ZM75.9 96.8499C75.9 96.8499 75.9001 96.8499 75.9001 96.85C81.9614 102.911 91.7888 102.911 97.8501 96.8499C103.911 90.7886 103.911 80.9613 97.8502 74.9C103.911 68.8387 103.911 59.0114 97.8501 52.9501C91.7888 46.8888 81.9614 46.8888 75.9001 52.9501L75.9 52.9502L75.8999 52.9501C69.8386 46.8888 60.0113 46.8888 53.9499 52.9501C47.8886 59.0114 47.8886 68.8387 53.9499 74.9C47.8886 80.9613 47.8886 90.7886 53.9499 96.85C60.0113 102.911 69.8386 102.911 75.8999 96.85C75.9 96.8499 75.9 96.8499 75.9 96.8499Z" fill="white"/>
<path d="M67 84C67 85.1046 66.1046 86 65 86C63.8954 86 63 85.1046 63 84C63 82.8954 65 79 65 79C65 79 67 82.8954 67 84Z" fill="#75C9B0"/>
<path d="M89 84C89 85.1046 88.1046 86 87 86C85.8954 86 85 85.1046 85 84C85 82.8954 87 79 87 79C87 79 89 82.8954 89 84Z" fill="#75C9B0"/>
<path d="M73.4722 78.8006C74.8546 76.5067 77.6194 76.5066 79.0018 78.8006" stroke="#75C9B0" stroke-width="1.8432" stroke-linecap="round"/>
<circle cx="65.4081" cy="73.624" r="2.88" fill="#75C9B0" stroke="#75C9B0" stroke-width="1.152"/>
<circle cx="86.1442" cy="73.624" r="2.88" fill="#75C9B0" stroke="#75C9B0" stroke-width="1.152"/>
</g>
<defs>
<filter id="filter0_d_788_2748" x="0" y="0" width="123.8" height="122.8" filterUnits="userSpaceOnUse" color-interpolation-filters="sRGB">
<feFlood flood-opacity="0" result="BackgroundImageFix"/>
<feColorMatrix in="SourceAlpha" type="matrix" values="0 0 0 0 0 0 0 0 0 0 0 0 0 0 0 0 0 0 127 0" result="hardAlpha"/>
<feOffset/>
<feGaussianBlur stdDeviation="2"/>
<feComposite in2="hardAlpha" operator="out"/>
<feColorMatrix type="matrix" values="0 0 0 0 0 0 0 0 0 0 0 0 0 0 0 0 0 0 0.02 0"/>
<feBlend mode="normal" in2="BackgroundImageFix" result="effect1_dropShadow_788_2748"/>
<feBlend mode="normal" in="SourceGraphic" in2="effect1_dropShadow_788_2748" result="shape"/>
</filter>
</defs>
</svg>
