<svg width="116" height="116" viewBox="0 0 116 116" fill="none" xmlns="http://www.w3.org/2000/svg">
<g filter="url(#filter0_d_1671_5046)">
<rect x="4" y="4" width="108" height="108" rx="16" fill="#75C9B0" shape-rendering="crispEdges"/>
<path d="M19.1875 20.1641C20.8164 20.1641 21.9883 21.6406 22 23.9609C21.9883 26.3047 20.8164 27.7695 19.1875 27.7695C17.5586 27.7695 16.3633 26.3047 16.375 23.9609C16.3633 21.6406 17.5586 20.1641 19.1875 20.1641ZM19.1875 21.5117C18.3672 21.5117 17.8164 22.3789 17.8164 23.9609C17.8164 25.5547 18.3672 26.4102 19.1875 26.4102C20.0195 26.4102 20.5586 25.5547 20.5703 23.9609C20.5586 22.3789 20.0195 21.5117 19.1875 21.5117ZM24.7305 19.4141V23.4336H26.3008V24.6758H24.7305V30.0781H23.2305V19.4141H24.7305ZM36.4375 25.3789V26.5742H32.2656V30.0664H30.7891V26.5742H26.6758V25.3789H36.4375ZM35.2656 19.9297V24.2305H27.8242V19.9297H35.2656ZM29.3008 21.1133V23.0586H33.7773V21.1133H29.3008ZM48.5195 24.125V25.3438H40.9141V20.3398H42.4141V24.125H48.5195ZM49.5859 27.5703V28.8125H39.8242V27.5703H49.5859ZM53.4883 20.0352C53.4883 22.2969 52.9492 23.7969 51.1562 25.1211L50.1836 24.1836C51.3672 23.3574 51.9004 22.5488 52.0586 21.2305H50.6172V20.0352H53.4883ZM56.5586 20.0352C56.5469 22.3555 56.0781 23.9961 54.3555 25.4375L53.3008 24.6172C54.4844 23.6387 54.9941 22.6777 55.1406 21.2305H53.8633V20.0352H56.5586ZM59.1133 19.4258V25.4844H57.6016V19.4258H59.1133ZM59.1133 25.9297V29.9609H51.9062V25.9297H59.1133ZM53.3711 27.1133V28.7656H57.6484V27.1133H53.3711ZM65.8984 25.6484V26.7148H67.0469V25.6484H68.4297V28.8828C69.6133 28.3555 70.1172 27.3594 70.1172 26.3867V25.5664H71.6172V26.3867C71.6055 27.4766 72.1328 28.5078 73.4688 28.9414L72.6953 30.0547C71.7754 29.7383 71.1836 29.1289 70.8438 28.3672C70.4863 29.1055 69.9004 29.7207 69.0391 30.0547L68.4297 29.1289V29.9609H64.5156V25.6484H65.8984ZM65.8984 28.8242H67.0469V27.8164H65.8984V28.8242ZM66.3086 19.8125C67.668 19.8125 68.752 20.5684 69.0508 21.6992H70.832V19.4141H72.3203V25.0625H70.832V22.9297H69.0508C68.7637 24.084 67.6738 24.8516 66.3086 24.8516C64.668 24.8516 63.4609 23.8086 63.4727 22.3203C63.4609 20.8555 64.668 19.8125 66.3086 19.8125ZM66.3086 21.043C65.4766 21.043 64.8789 21.5352 64.8906 22.3203C64.8789 23.1289 65.4766 23.6211 66.3086 23.6328C67.1172 23.6211 67.7031 23.1289 67.7031 22.3203C67.7031 21.5352 67.1172 21.043 66.3086 21.043ZM76.6445 20.1641C78.0859 20.1641 79.1582 21.3535 79.375 23.2695H81.2266V19.4141H82.7031V30.1016H81.2266V24.4648H79.3867C79.2285 26.5156 78.1328 27.7695 76.6445 27.7695C75.0273 27.7695 73.8672 26.3047 73.8789 23.9609C73.8672 21.6406 75.0273 20.1641 76.6445 20.1641ZM76.6445 21.5117C75.8477 21.5117 75.2969 22.3789 75.3086 23.9609C75.2969 25.5547 75.8477 26.4102 76.6445 26.4102C77.4531 26.4102 77.9805 25.5547 77.9805 23.9609C77.9805 22.3789 77.4531 21.5117 76.6445 21.5117ZM93.8359 27.6055V28.8359H84.0742V27.6055H86.2539V24.9922C85.4277 24.5 84.9297 23.7441 84.9297 22.8008C84.9297 21.0781 86.6172 19.9297 88.9375 19.9297C91.2461 19.9297 92.9453 21.0781 92.957 22.8008C92.9512 23.7207 92.4648 24.4707 91.668 24.9688V27.6055H93.8359ZM88.9375 21.1133C87.4141 21.1133 86.4062 21.7227 86.4062 22.8008C86.4062 23.8438 87.4141 24.4883 88.9375 24.4883C90.4492 24.4883 91.4688 23.8438 91.4805 22.8008C91.4688 21.7227 90.4492 21.1133 88.9375 21.1133ZM87.7305 27.6055H90.1562V25.5312C89.7754 25.6074 89.3652 25.6484 88.9375 25.6484C88.5098 25.6484 88.1055 25.6133 87.7305 25.5312V27.6055Z" fill="white"/>
<path d="M100 72C100 87.464 87.464 100 72 100C56.536 100 44 87.464 44 72C44 56.536 56.536 44 72 44C87.464 44 100 56.536 100 72Z" fill="white"/>
<path d="M78 81C78 81 75.75 81 72 81C68.25 81 66 81 66 81" stroke="#75C9B0" stroke-width="3.25161" stroke-linecap="round"/>
<circle cx="62" cy="69" r="3" fill="#75C9B0"/>
<circle cx="82" cy="69" r="3" fill="#75C9B0"/>
</g>
<defs>
<filter id="filter0_d_1671_5046" x="0" y="0" width="116" height="116" filterUnits="userSpaceOnUse" color-interpolation-filters="sRGB">
<feFlood flood-opacity="0" result="BackgroundImageFix"/>
<feColorMatrix in="SourceAlpha" type="matrix" values="0 0 0 0 0 0 0 0 0 0 0 0 0 0 0 0 0 0 127 0" result="hardAlpha"/>
<feOffset/>
<feGaussianBlur stdDeviation="2"/>
<feComposite in2="hardAlpha" operator="out"/>
<feColorMatrix type="matrix" values="0 0 0 0 0 0 0 0 0 0 0 0 0 0 0 0 0 0 0.02 0"/>
<feBlend mode="normal" in2="BackgroundImageFix" result="effect1_dropShadow_1671_5046"/>
<feBlend mode="normal" in="SourceGraphic" in2="effect1_dropShadow_1671_5046" result="shape"/>
</filter>
</defs>
</svg>
