<svg width="116" height="116" viewBox="0 0 116 116" fill="none" xmlns="http://www.w3.org/2000/svg">
<g filter="url(#filter0_d_1671_4995)">
<rect x="4" y="4" width="108" height="108" rx="16" fill="#EAF7F3" shape-rendering="crispEdges"/>
<rect x="4.5" y="4.5" width="107" height="107" rx="15.5" stroke="#75C9B0" shape-rendering="crispEdges"/>
<path d="M20.3477 21.8281C20.3477 23.832 21.1562 25.7773 22.9375 26.5508L22.0234 27.7461C20.8398 27.166 20.0488 26.1055 19.6094 24.793C19.1406 26.1875 18.3203 27.3301 17.1016 27.9336L16.1641 26.7148C17.9922 25.8945 18.8242 23.832 18.8359 21.8281V20.2344H20.3477V21.8281ZM25.3164 19.4141V30.1016H23.8398V23.9727H21.7422V22.7656H23.8398V19.4141H25.3164ZM36.4375 24.6055V25.8008H32.3945V27.6523H30.8828V25.8008H26.6758V24.6055H36.4375ZM35.3594 28.6836V29.8906H27.8359V26.7031H29.3477V28.6836H35.3594ZM31.5508 19.6133C33.8594 19.625 35.3945 20.4805 35.4062 21.8281C35.3945 23.1875 33.8594 24.0312 31.5508 24.0312C29.2305 24.0312 27.6836 23.1875 27.6836 21.8281C27.6836 20.4805 29.2305 19.625 31.5508 19.6133ZM31.5508 20.7969C30.168 20.7969 29.2891 21.1484 29.3008 21.8281C29.2891 22.4844 30.168 22.8359 31.5508 22.8359C32.9219 22.8359 33.8008 22.4844 33.8008 21.8281C33.8008 21.1484 32.9219 20.7969 31.5508 20.7969ZM42.2031 21.043V22.2266H37.0469V21.043H38.8984V19.707H40.375V21.043H42.2031ZM39.6484 22.707C41.0078 22.707 41.9805 23.7617 41.9922 25.2383C41.9805 26.7266 41.0078 27.7812 39.6484 27.7812C38.2891 27.7812 37.293 26.7266 37.293 25.2383C37.293 23.7617 38.2891 22.707 39.6484 22.707ZM39.6484 23.9492C39.0273 23.9492 38.6055 24.4297 38.6055 25.2383C38.6055 26.0469 39.0273 26.5156 39.6484 26.5156C40.2461 26.5156 40.668 26.0469 40.6797 25.2383C40.668 24.4297 40.2461 23.9492 39.6484 23.9492ZM46.2812 19.4141V30.0781H44.8633V24.9453H43.9961V29.6211H42.6016V19.625H43.9961V23.75H44.8633V19.4141H46.2812ZM57.1914 27.6055V28.8359H47.4297V27.6055H49.6094V24.9922C48.7832 24.5 48.2852 23.7441 48.2852 22.8008C48.2852 21.0781 49.9727 19.9297 52.293 19.9297C54.6016 19.9297 56.3008 21.0781 56.3125 22.8008C56.3066 23.7207 55.8203 24.4707 55.0234 24.9688V27.6055H57.1914ZM52.293 21.1133C50.7695 21.1133 49.7617 21.7227 49.7617 22.8008C49.7617 23.8438 50.7695 24.4883 52.293 24.4883C53.8047 24.4883 54.8242 23.8438 54.8359 22.8008C54.8242 21.7227 53.8047 21.1133 52.293 21.1133ZM51.0859 27.6055H53.5117V25.5312C53.1309 25.6074 52.7207 25.6484 52.293 25.6484C51.8652 25.6484 51.4609 25.6133 51.0859 25.5312V27.6055Z" fill="#75C9B0"/>
<circle cx="72" cy="72" r="28" fill="#BFE6DA"/>
<path d="M66 80C69 76 75 76 78 80" stroke="#75C9B0" stroke-width="3.25" stroke-linecap="round"/>
<circle cx="62" cy="68" r="3" fill="#75C9B0"/>
<circle cx="82" cy="68" r="3" fill="#75C9B0"/>
</g>
<defs>
<filter id="filter0_d_1671_4995" x="0" y="0" width="116" height="116" filterUnits="userSpaceOnUse" color-interpolation-filters="sRGB">
<feFlood flood-opacity="0" result="BackgroundImageFix"/>
<feColorMatrix in="SourceAlpha" type="matrix" values="0 0 0 0 0 0 0 0 0 0 0 0 0 0 0 0 0 0 127 0" result="hardAlpha"/>
<feOffset/>
<feGaussianBlur stdDeviation="2"/>
<feComposite in2="hardAlpha" operator="out"/>
<feColorMatrix type="matrix" values="0 0 0 0 0 0 0 0 0 0 0 0 0 0 0 0 0 0 0.02 0"/>
<feBlend mode="normal" in2="BackgroundImageFix" result="effect1_dropShadow_1671_4995"/>
<feBlend mode="normal" in="SourceGraphic" in2="effect1_dropShadow_1671_4995" result="shape"/>
</filter>
</defs>
</svg>
