<svg width="116" height="116" viewBox="0 0 116 116" fill="none" xmlns="http://www.w3.org/2000/svg">
<g filter="url(#filter0_d_836_1500)">
<rect x="4" y="4" width="108" height="108" rx="16" fill="#F6F6F7" shape-rendering="crispEdges"/>
<path d="M25.082 19.4141V23.4336H26.2773V24.6758H25.082V30.0781H23.582V26.7617L22.668 27.8164C21.9824 27.2773 21.5664 26.4688 21.3203 25.5312C21.0391 26.498 20.582 27.3477 19.8203 27.8984C19.0762 27.3535 18.625 26.5098 18.3555 25.543C18.0977 26.4805 17.6816 27.2832 16.9961 27.8164L16.0586 26.7266C17.4062 25.7305 17.6055 23.8438 17.6172 22.0859V21.5352H16.4805V20.3398H19.6445V21.5352H19.0234V22.0859C19.0234 23.3398 19.1289 24.8105 19.832 25.918C20.5176 24.8164 20.6406 23.3574 20.6406 22.0859V21.5352H20.0195V20.3398H23.0195V21.5352H22.0703V22.0859C22.0586 23.8496 22.2637 25.707 23.582 26.7031V19.4141H25.082ZM36.4141 24.3242V25.5312H26.6875V24.3242H36.4141ZM31.5391 26.1289C33.8477 26.1289 35.2422 26.8555 35.2539 28.1094C35.2422 29.375 33.8477 30.0781 31.5391 30.0781C29.207 30.0781 27.8008 29.375 27.8008 28.1094C27.8008 26.8555 29.207 26.1289 31.5391 26.1289ZM31.5391 27.2891C30.0625 27.2891 29.3125 27.5469 29.3242 28.1094C29.3125 28.6602 30.0625 28.918 31.5391 28.918C32.9805 28.918 33.7422 28.6602 33.7539 28.1094C33.7422 27.5469 32.9805 27.2891 31.5391 27.2891ZM35.5352 19.9062V21.1016H32.6289C32.8691 21.8457 33.9531 22.584 36.0039 22.7656L35.4766 23.9375C33.4668 23.7441 32.1074 22.9824 31.5391 21.9453C30.9766 22.9824 29.6406 23.7441 27.6133 23.9375L27.1211 22.7656C29.125 22.584 30.2207 21.8516 30.4727 21.1016H27.5781V19.9062H35.5352ZM46.9844 23.457V24.6758H45.4727V30.0547H43.9727V19.4141H45.4727V23.457H46.9844ZM38.8867 20.4336V26.2109C40.252 26.1934 41.7168 26.0645 43.2578 25.7539L43.4102 26.9961C41.6289 27.3594 39.8945 27.4531 38.3242 27.4531H37.3984V20.4336H38.8867ZM57.1914 27.6055V28.8359H47.4297V27.6055H49.6094V24.9922C48.7832 24.5 48.2852 23.7441 48.2852 22.8008C48.2852 21.0781 49.9727 19.9297 52.293 19.9297C54.6016 19.9297 56.3008 21.0781 56.3125 22.8008C56.3066 23.7207 55.8203 24.4707 55.0234 24.9688V27.6055H57.1914ZM52.293 21.1133C50.7695 21.1133 49.7617 21.7227 49.7617 22.8008C49.7617 23.8438 50.7695 24.4883 52.293 24.4883C53.8047 24.4883 54.8242 23.8438 54.8359 22.8008C54.8242 21.7227 53.8047 21.1133 52.293 21.1133ZM51.0859 27.6055H53.5117V25.5312C53.1309 25.6074 52.7207 25.6484 52.293 25.6484C51.8652 25.6484 51.4609 25.6133 51.0859 25.5312V27.6055Z" fill="#BFC4CB"/>
<path fill-rule="evenodd" clip-rule="evenodd" d="M76 75.9999L76 75.9999L76 75.9999C76 75.9999 76 75.9999 76 75.9999C76 75.9999 76 75.9999 76 75.9999ZM76 95.8819C76 95.882 76 95.882 76.0001 95.882C81.4904 101.372 90.3919 101.372 95.8823 95.882C101.373 90.3917 101.373 81.4902 95.8823 75.9999C101.373 70.5096 101.373 61.608 95.8823 56.1177C90.3919 50.6274 81.4904 50.6274 76.0001 56.1177L76 56.1178L75.9999 56.1177C70.5096 50.6274 61.6081 50.6274 56.1177 56.1177C50.6274 61.608 50.6274 70.5096 56.1177 75.9999C50.6274 81.4902 50.6274 90.3917 56.1177 95.882C61.6081 101.372 70.5096 101.372 75.9999 95.882C76 95.882 76 95.882 76 95.8819Z" fill="#E2E4E7"/>
<path d="M73.8009 79.5331C75.0531 77.4552 77.5574 77.4552 78.8096 79.5331" stroke="#BFC4CB" stroke-width="1.66956" stroke-linecap="round"/>
<circle cx="66.4965" cy="74.844" r="2.60869" fill="#BFC4CB" stroke="#BFC4CB" stroke-width="1.04348"/>
<circle cx="85.279" cy="74.844" r="2.60869" fill="#BFC4CB" stroke="#BFC4CB" stroke-width="1.04348"/>
<path d="M57.9747 62.0918H60.2804V59.7861" stroke="#BFC4CB" stroke-width="1.31752" stroke-linecap="round" stroke-linejoin="round"/>
<path d="M57.9747 64.3972H60.2804V66.7029" stroke="#BFC4CB" stroke-width="1.31752" stroke-linecap="round" stroke-linejoin="round"/>
<path d="M65.2211 62.0918H62.9154V59.7861" stroke="#BFC4CB" stroke-width="1.31752" stroke-linecap="round" stroke-linejoin="round"/>
<path d="M65.2211 64.3972H62.9154V66.7029" stroke="#BFC4CB" stroke-width="1.31752" stroke-linecap="round" stroke-linejoin="round"/>
</g>
<defs>
<filter id="filter0_d_836_1500" x="0" y="0" width="116" height="116" filterUnits="userSpaceOnUse" color-interpolation-filters="sRGB">
<feFlood flood-opacity="0" result="BackgroundImageFix"/>
<feColorMatrix in="SourceAlpha" type="matrix" values="0 0 0 0 0 0 0 0 0 0 0 0 0 0 0 0 0 0 127 0" result="hardAlpha"/>
<feOffset/>
<feGaussianBlur stdDeviation="2"/>
<feComposite in2="hardAlpha" operator="out"/>
<feColorMatrix type="matrix" values="0 0 0 0 0 0 0 0 0 0 0 0 0 0 0 0 0 0 0.02 0"/>
<feBlend mode="normal" in2="BackgroundImageFix" result="effect1_dropShadow_836_1500"/>
<feBlend mode="normal" in="SourceGraphic" in2="effect1_dropShadow_836_1500" result="shape"/>
</filter>
</defs>
</svg>
