<svg width="56" height="56" viewBox="0 0 56 56" fill="none" xmlns="http://www.w3.org/2000/svg">
<path d="M56 28C56 43.464 43.464 56 28 56C12.536 56 0 43.464 0 28C0 12.536 12.536 0 28 0C43.464 0 56 12.536 56 28Z" fill="url(#paint0_linear_1671_5589)"/>
<path d="M44.5162 26.8063C44.5162 28.3463 43.9045 29.8232 42.8156 30.9121C41.7266 32.001 40.2497 32.6128 38.7098 32.6128C37.1698 32.6128 35.6929 32.001 34.604 30.9121C33.5151 29.8232 32.9033 28.3463 32.9033 26.8063L38.7098 26.8063H44.5162Z" fill="white"/>
<ellipse cx="38.7097" cy="27.3871" rx="3.48387" ry="2.90323" fill="black"/>
<mask id="path-4-inside-1_1671_5589" fill="white">
<path d="M44.5162 26.8065C44.5162 25.2665 43.9045 23.7896 42.8156 22.7007C41.7266 21.6117 40.2497 21 38.7098 21C37.1698 21 35.6929 21.6117 34.604 22.7007C33.5151 23.7896 32.9033 25.2665 32.9033 26.8065L38.7098 26.8065H44.5162Z"/>
</mask>
<path d="M44.5162 26.8065C44.5162 25.2665 43.9045 23.7896 42.8156 22.7007C41.7266 21.6117 40.2497 21 38.7098 21C37.1698 21 35.6929 21.6117 34.604 22.7007C33.5151 23.7896 32.9033 25.2665 32.9033 26.8065L38.7098 26.8065H44.5162Z" fill="#967BFF" stroke="#967BFF" stroke-width="2.42356" mask="url(#path-4-inside-1_1671_5589)"/>
<mask id="path-5-inside-2_1671_5589" fill="white">
<path d="M23.6129 26.8063C23.6129 28.3463 23.0012 29.8232 21.9122 30.9121C20.8233 32.001 19.3464 32.6128 17.8065 32.6128C16.2665 32.6128 14.7896 32.001 13.7007 30.9121C12.6117 29.8232 12 28.3463 12 26.8063L17.8065 26.8063H23.6129Z"/>
</mask>
<path d="M23.6129 26.8063C23.6129 28.3463 23.0012 29.8232 21.9122 30.9121C20.8233 32.001 19.3464 32.6128 17.8065 32.6128C16.2665 32.6128 14.7896 32.001 13.7007 30.9121C12.6117 29.8232 12 28.3463 12 26.8063L17.8065 26.8063H23.6129Z" fill="white" stroke="white" stroke-width="2.42356" mask="url(#path-5-inside-2_1671_5589)"/>
<ellipse cx="17.8064" cy="27.3871" rx="3.48387" ry="2.90323" fill="black"/>
<mask id="path-7-inside-3_1671_5589" fill="white">
<path d="M23.6129 26.8065C23.6129 25.2665 23.0012 23.7896 21.9122 22.7007C20.8233 21.6117 19.3464 21 17.8065 21C16.2665 21 14.7896 21.6117 13.7007 22.7007C12.6117 23.7896 12 25.2665 12 26.8065L17.8065 26.8065H23.6129Z"/>
</mask>
<path d="M23.6129 26.8065C23.6129 25.2665 23.0012 23.7896 21.9122 22.7007C20.8233 21.6117 19.3464 21 17.8065 21C16.2665 21 14.7896 21.6117 13.7007 22.7007C12.6117 23.7896 12 25.2665 12 26.8065L17.8065 26.8065H23.6129Z" fill="#967BFF" stroke="#967BFF" stroke-width="2.42356" mask="url(#path-7-inside-3_1671_5589)"/>
<path d="M32.9033 39C32.9033 39 31.1614 39 28.2582 39C25.3549 39 23.613 39 23.613 39" stroke="black" stroke-width="3.25161" stroke-linecap="round"/>
<defs>
<linearGradient id="paint0_linear_1671_5589" x1="-7.5" y1="81.5" x2="54.5" y2="-11.5" gradientUnits="userSpaceOnUse">
<stop stop-color="#A283FF"/>
<stop offset="1" stop-color="#BEA8FF"/>
</linearGradient>
</defs>
</svg>
